<svg width="152" height="114" viewBox="0 0 152 114" fill="none" xmlns="http://www.w3.org/2000/svg">
<path fill-rule="evenodd" clip-rule="evenodd" d="M0 0.623047V113.765H152V0.623047H0Z" fill="#009933"/>
<path fill-rule="evenodd" clip-rule="evenodd" d="M75.6507 18.0845L133.609 58.1719L74.8622 95.7152L18.0908 57.395L75.6507 18.0845Z" fill="#FFD221"/>
<path fill-rule="evenodd" clip-rule="evenodd" d="M75.6507 18.0845L133.609 58.1719L74.8622 95.7152L18.0908 57.395L75.6507 18.0845Z" fill="url(#paint0_linear_8_226)"/>
<path fill-rule="evenodd" clip-rule="evenodd" d="M76 81.7074C89.1166 81.7074 99.75 71.1541 99.75 58.1362C99.75 45.1179 89.1166 34.5647 76 34.5647C62.8833 34.5647 52.25 45.1179 52.25 58.1362C52.25 71.1541 62.8833 81.7074 76 81.7074Z" fill="#2E42A5"/>
<mask id="mask0_8_226" style="mask-type:luminance" maskUnits="userSpaceOnUse" x="52" y="34" width="48" height="48">
<path fill-rule="evenodd" clip-rule="evenodd" d="M76 81.7074C89.1166 81.7074 99.75 71.1541 99.75 58.1362C99.75 45.1179 89.1166 34.5647 76 34.5647C62.8833 34.5647 52.25 45.1179 52.25 58.1362C52.25 71.1541 62.8833 81.7074 76 81.7074Z" fill="white"/>
</mask>
<g mask="url(#mask0_8_226)">
<path fill-rule="evenodd" clip-rule="evenodd" d="M68.3026 69.3094L67.2414 69.8629L67.4443 68.6905L66.5859 67.8603L67.772 67.6891L68.3026 66.6223L68.8332 67.6891L70.0192 67.8603L69.1609 68.6905L69.3637 69.8629L68.3026 69.3094Z" fill="white"/>
<path fill-rule="evenodd" clip-rule="evenodd" d="M77.8036 69.3094L76.7424 69.8629L76.9452 68.6905L76.0869 67.8603L77.273 67.6891L77.8036 66.6223L78.3341 67.6891L79.5202 67.8603L78.6619 68.6905L78.8647 69.8629L77.8036 69.3094Z" fill="white"/>
<path fill-rule="evenodd" clip-rule="evenodd" d="M77.8036 74.9673L76.7424 75.5207L76.9452 74.3483L76.0869 73.5176L77.273 73.3465L77.8036 72.2802L78.3341 73.3465L79.5202 73.5176L78.6619 74.3483L78.8647 75.5207L77.8036 74.9673Z" fill="white"/>
<path fill-rule="evenodd" clip-rule="evenodd" d="M73.0516 55.1666L71.9905 55.7201L72.1933 54.5476L71.335 53.7175L72.521 53.5463L73.0516 52.4795L73.5822 53.5463L74.7683 53.7175L73.9099 54.5476L74.1128 55.7201L73.0516 55.1666Z" fill="white"/>
<path fill-rule="evenodd" clip-rule="evenodd" d="M73.0516 64.5948L71.9905 65.1483L72.1933 63.9759L71.335 63.1457L72.521 62.9745L73.0516 61.9077L73.5822 62.9745L74.7683 63.1457L73.9099 63.9759L74.1128 65.1483L73.0516 64.5948Z" fill="white"/>
<path fill-rule="evenodd" clip-rule="evenodd" d="M66.4022 59.881L65.341 60.4344L65.5439 59.262L64.6855 58.4318L65.8716 58.2607L66.4022 57.1938L66.9328 58.2607L68.1188 58.4318L67.2605 59.262L67.4629 60.4344L66.4022 59.881Z" fill="white"/>
<path fill-rule="evenodd" clip-rule="evenodd" d="M59.7533 63.6525L58.6921 64.2064L58.8949 63.0339L58.0361 62.2033L59.2227 62.0322L59.7533 60.9653L60.2834 62.0322L61.4699 62.2033L60.6116 63.0339L60.8139 64.2064L59.7533 63.6525Z" fill="white"/>
<path fill-rule="evenodd" clip-rule="evenodd" d="M81.6043 47.6243L80.5437 48.1781L80.746 47.0054L79.8877 46.175L81.0742 46.0039L81.6043 44.9371L82.1349 46.0039L83.3215 46.175L82.4627 47.0054L82.6655 48.1781L81.6043 47.6243Z" fill="white"/>
<path d="M47.1406 52.4664L47.855 43.0648C70.6451 44.7703 88.6328 52.2076 101.592 65.4367L94.7803 72.0088C83.5484 60.5428 67.7442 54.0084 47.1406 52.4664Z" fill="white"/>
<path d="M58.375 50.6077L58.6196 48.2633C73.3114 49.7738 85.9126 55.3582 96.3859 65.0059L94.7704 66.7332C84.6781 57.4372 72.559 52.0658 58.375 50.6077Z" fill="white"/>
</g>
<defs>
<linearGradient id="paint0_linear_8_226" x1="151.998" y1="113.765" x2="151.998" y2="0.622713" gradientUnits="userSpaceOnUse">
<stop stop-color="#FFC600"/>
<stop offset="1" stop-color="#FFDE42"/>
</linearGradient>
</defs>
</svg>
