<svg width="153" height="115" viewBox="0 0 153 115" fill="none" xmlns="http://www.w3.org/2000/svg">
<mask id="mask0_8_198" style="mask-type:luminance" maskUnits="userSpaceOnUse" x="0" y="0" width="153" height="115">
<path d="M0 0.171631H153V114.828H0V0.171631Z" fill="white"/>
</mask>
<g mask="url(#mask0_8_198)">
<path fill-rule="evenodd" clip-rule="evenodd" d="M0 0.171631H153V114.828H0V0.171631Z" fill="#E31D1C"/>
<path fill-rule="evenodd" clip-rule="evenodd" d="M71.7949 21.8999L66.9653 24.8133L68.0669 19.128L64.0449 14.8732L69.4908 14.6432L71.7949 9.33459L74.0994 14.6432H79.5362L75.5233 19.128L76.7315 24.8133L71.7949 21.8999Z" fill="#FECA00"/>
<path fill-rule="evenodd" clip-rule="evenodd" d="M33.5547 46.0684L19.7807 53.4778L22.9225 39.0191L11.4521 28.1982L26.9837 27.6131L33.5547 14.1123L40.1258 27.6131H55.631L44.1869 39.0191L47.6322 53.4778L33.5547 46.0684Z" fill="#FECA00"/>
<path fill-rule="evenodd" clip-rule="evenodd" d="M81.3583 41.0091L76.5288 43.9225L77.6304 38.2373L73.6084 33.9825L79.0542 33.7524L81.3583 28.4438L83.6629 33.7524H89.0996L85.0867 38.2373L86.295 43.9225L81.3583 41.0091Z" fill="#FECA00"/>
<path fill-rule="evenodd" clip-rule="evenodd" d="M76.5771 60.1187L71.7475 63.0319L72.8491 57.3469L68.8271 53.0917L74.273 52.8619L76.5771 47.5532L78.8816 52.8619H84.3184L80.3055 57.3469L81.5137 63.0319L76.5771 60.1187Z" fill="#FECA00"/>
<path fill-rule="evenodd" clip-rule="evenodd" d="M62.2343 74.4509L57.4048 77.3642L58.5064 71.6791L54.4844 67.4239L59.9302 67.1941L62.2343 61.8855L64.5389 67.1941H69.9756L65.9627 71.6791L67.1709 77.3642L62.2343 74.4509Z" fill="#FECA00"/>
</g>
</svg>
