<svg width="416" height="330" viewBox="0 0 416 330" fill="none" xmlns="http://www.w3.org/2000/svg">
<path fill-rule="evenodd" clip-rule="evenodd" d="M254.847 87.1769C259.903 84.3392 262.854 79.252 265.775 74.2163C266.215 73.459 266.653 72.7029 267.099 71.9557C267.396 71.4554 267.722 70.9399 268.055 70.4143C268.932 69.0254 269.852 67.5668 270.427 66.1382C270.679 65.5135 270.896 64.5967 271.115 63.6707C271.374 62.5779 271.635 61.4718 271.961 60.8162C272.671 59.3853 278.061 58.7337 281.732 58.2902C282.946 58.1435 283.971 58.0197 284.579 57.8979C291.031 56.603 298.743 55.8268 304.017 60.8774C305.27 62.0776 306.674 63.1847 308.084 64.2957C309.772 65.6272 311.468 66.9643 312.919 68.4739C315.249 70.8982 318.389 74.9757 319.496 78.2143C313.815 79.3089 304.377 82.6616 302.113 88.6218C293.786 80.9799 290.273 93.7075 288.427 100.386C288.314 100.794 288.21 101.179 288.109 101.536C283.573 99.5738 283.809 93.6037 283.982 89.232C284.005 88.6195 284.028 88.0384 284.037 87.504C284.049 86.7117 284.169 85.8858 284.287 85.0802C284.679 82.3798 285.04 79.9079 281.182 79.6901C277.438 79.4798 273.803 81.0039 270.427 82.4311C266.213 84.212 261.795 86.8761 258.392 89.9361L254.847 87.1769ZM246.664 75.2725C246.664 75.4173 246.663 75.5621 246.661 75.7069C246.647 76.9946 246.634 78.2777 247.026 79.5189C247.253 80.2363 247.255 81.2851 247.259 82.2926C247.261 83.023 247.265 83.7315 247.35 84.2762C243.694 83.1632 236.901 81.5126 233.167 83.0135C229.596 84.4484 229.149 91.0834 229.023 94.3105C228.991 95.1261 229.105 96.1051 229.223 97.1215C229.425 98.8464 229.638 100.679 229.173 102.004C228.813 103.026 228.825 103.328 228.85 103.401C228.787 103.365 228.507 103.355 227.482 104.095C227.024 104.424 226.525 104.686 226.026 104.95C225.43 105.263 224.832 105.579 224.293 106.013C222.862 107.167 222.372 108.444 221.785 109.977C221.635 110.372 221.477 110.785 221.294 111.216C220.431 113.261 218.131 115.078 215.563 115.004C215.891 114.413 216.238 113.827 216.582 113.243C218.421 110.137 220.233 107.078 218.848 103.381C217.632 100.13 219.699 96.326 221.393 93.2103L221.492 93.0278C221.597 92.8365 221.892 92.4119 222.29 91.842C224.056 89.3046 227.827 83.8921 225.556 83.432C223.94 83.1049 220.457 89.8458 219.17 92.3385C219.015 92.6346 218.893 92.8706 218.81 93.0278C216.598 91.5323 215.603 89.689 217.306 87.4368C217.908 86.6403 218.573 85.8969 219.24 85.1518C220.023 84.2787 220.806 83.4033 221.492 82.437C222.098 81.585 222.7 80.6846 223.309 79.7724C224.778 77.5726 226.295 75.3038 228.028 73.4787C232.342 68.945 239.867 65.8587 246.076 65.8309C245.937 67.5969 246.139 69.2938 246.343 71.0136C246.506 72.4021 246.674 73.8056 246.664 75.2725ZM228.863 103.421C228.867 103.419 228.863 103.409 228.85 103.401C228.855 103.42 228.861 103.424 228.863 103.421ZM264.175 147.708C265.398 145.138 266.468 142.892 267.099 141.758C270.915 134.892 274.693 128.087 278.271 121.095C275.434 122.177 273.03 123.835 270.595 125.515C270.229 125.768 269.861 126.022 269.49 126.275C268.208 127.148 266.809 127.938 265.401 128.731C263.291 129.924 261.163 131.124 259.387 132.635C258.985 132.976 258.661 133.355 258.351 133.717C257.642 134.542 257.013 135.273 255.735 135.26C254.862 135.252 253.624 134.349 252.519 133.543C251.875 133.073 251.275 132.636 250.816 132.427C249.915 132.013 249.172 131.474 248.436 130.941C247.608 130.339 246.788 129.744 245.765 129.348C245.129 129.101 244.609 129.019 244.131 128.942C243.319 128.815 242.628 128.704 241.688 127.851C241.082 131.427 232.673 129.743 227.217 128.649C225.405 128.287 223.919 127.988 223.153 127.971C222.862 127.963 222.559 127.956 222.248 127.946C219.522 127.866 216.135 127.769 213.759 128.788C211.94 129.569 209.791 131.331 207.924 132.863C207.204 133.454 206.525 134.01 205.925 134.462C202.965 136.687 200.854 139.523 198.676 142.604C195.879 146.555 200.055 146.174 203.067 145.9C203.275 145.881 203.479 145.862 203.671 145.845C210.539 145.262 217.213 146.418 223.833 147.986C229.747 149.388 235.125 151.539 240.785 153.81C241.833 154.231 243.74 155.22 245.889 156.336C250.271 158.609 255.666 161.41 256.882 160.994C258.038 160.6 261.481 153.368 264.175 147.708Z" fill="#FDC144"/>
<path fill-rule="evenodd" clip-rule="evenodd" d="M302.547 103.184C304.932 103.062 307.304 103.594 309.689 103.362C307.618 101.56 305.549 99.758 303.48 97.9563C302.566 99.5614 302.499 101.387 302.547 103.184ZM245.995 66.1383C239.826 66.1654 232.299 69.2635 228.014 73.7884C225.743 76.1864 223.867 79.4064 221.946 82.1007C220.658 83.9083 219.401 85.6528 217.837 87.2413C215.556 89.5564 216.21 90.0857 218.778 91.829C219.592 90.3059 223.901 82.1626 225.709 82.5288C228.454 83.0856 223.152 91.6877 222.573 92.7593C220.858 95.9298 218.088 100.359 219.332 103.702C220.975 108.116 218.593 110.632 216.526 114.393C218.698 114.456 218.911 113.61 219.66 111.758C220.62 109.379 221.668 107.391 223.701 105.747C225.275 104.473 227.848 103.937 228.588 102.399C229.502 100.498 228.929 96.7435 229.003 94.6286C229.115 91.4151 229.123 83.8182 232.666 82.3904C236.376 80.8943 243.049 82.3043 246.677 83.4126C246.225 80.5804 244.796 78.7305 244.815 75.5836C244.836 72.2892 245.743 69.3502 245.995 66.1383ZM198.597 118.695C201.824 117.673 204.884 116.597 208.205 115.901C211.68 115.172 211.912 114.338 213.87 111.359C215.355 109.101 217.157 107.34 216.736 104.575C216.467 102.801 215.496 101.937 215.787 99.9419C215.968 98.7054 216.545 97.3553 216.962 96.1794C217.475 94.737 218.534 93.1007 216.069 93.0295C214.709 92.99 214.642 93.7079 213.722 94.9131C212.021 97.1392 210.066 99.1606 208.256 101.295C205.114 105.002 201.784 108.947 198.277 112.378C194.417 116.153 191.085 120.706 188.591 125.54C188.13 126.433 185.328 131.69 186.522 132.72C187.622 133.667 193.726 131.459 194.84 131.202C199.645 130.085 205.099 129.687 209.639 127.662C211.952 126.63 217.058 125.399 218.885 123.802C220.582 122.318 220.506 118.721 219.521 116.629C216.762 118.345 196.819 124.818 198.597 118.695ZM258.637 89.1902C261.857 86.2823 265.663 83.9494 269.639 82.2209C273.196 80.6747 277.614 78.9513 281.571 79.2197C286.502 79.5537 284.442 83.5238 284.423 86.9045C284.4 91.3905 282.434 97.8529 287.791 100.18C289.54 93.9687 293.227 79.2805 302.059 87.4198C304.317 81.4472 312.366 79.4259 318.034 78.3291C317.007 75.3116 313.886 72.5802 311.724 70.3151C309.017 67.482 306.881 64.1612 304.17 61.3816C298.815 55.8925 289.114 57.6554 282.333 59.0236C280.07 59.4799 273.509 60.0534 272.413 61.715C271.725 62.7571 272.108 65.3029 271.6 66.5771C270.897 68.3327 269.698 69.9602 268.734 71.5817C265.223 77.4983 261.651 83.4531 255.64 86.841L258.637 89.1902ZM278.291 121.065C275.111 122.284 272.771 124.324 269.952 126.041C266.532 128.125 262.522 130.074 259.453 132.648C258.331 133.587 257.698 135.212 256.149 135.319C254.8 135.41 252.747 133.844 251.55 133.297C249.546 132.377 247.631 130.983 245.616 130.162C243.96 129.489 243.227 129.626 241.794 128.316C240.99 133.097 226.37 128.628 223.303 128.554C220.466 128.487 216.572 128.824 213.931 129.964C211.415 131.049 209.449 133.44 207.294 135.069C204.341 137.304 201.525 139.563 199.35 142.655C196.368 146.894 200.868 145.694 203.868 145.439C210.717 144.854 217.38 146.485 223.983 148.058C229.883 149.464 235.713 151.152 241.361 153.433C244.539 154.717 247.883 155.896 250.872 157.563C252.447 158.443 255.002 160.596 256.81 159.975C258.468 159.405 260.119 154.656 261.123 152.757C263.076 149.074 265.13 145.452 267.146 141.806C270.952 134.915 274.722 128.083 278.291 121.065ZM239.163 212.252C241.121 211.128 244.316 211.431 246.482 210.958C248.932 210.427 251.394 209.558 253.73 208.653C256.094 207.737 258.327 206.799 260.487 205.654C261.476 205.13 262.792 204.614 263.705 203.886C264.442 203.3 264.709 202.21 265.389 201.678C267.159 200.291 267.679 201.162 267.915 198.485C268.172 195.576 266.542 193.93 264.509 191.755C262.691 189.806 260.329 188.123 258.043 186.754C257.031 186.148 255.953 185.466 254.92 184.887C253.36 184.01 251.268 182.555 250.449 184.435C252.156 184.869 252.531 187.047 250.992 187.83C250.146 188.261 248.866 187.628 247.913 188.085C246.441 188.792 245.025 190.76 243.766 191.819C239.632 195.3 235.677 196.605 230.264 196.883C218.957 197.466 207.115 196.178 196.023 194.502C193.169 194.069 190.319 194.538 187.439 194.435C184.634 194.334 181.712 193.721 178.957 193.248C173.649 192.338 168.054 191.587 162.828 190.246C156.509 188.623 150.169 186.525 144.236 183.808C138.545 181.2 132.112 176.893 125.72 176.561C128.448 179.23 132.535 180.259 135.815 182.019C138.498 183.456 142.691 184.378 144.386 186.746C145.49 188.285 146.042 191.116 146.875 192.922C147.797 194.923 148.646 196.954 149.5 198.983C150.357 201.025 151.249 203.069 151.944 205.172C152.375 206.476 152.561 209.181 153.579 210.074C155.202 211.497 160.635 212.13 162.822 212.602C166.905 213.488 171.565 213.37 175.73 213.431C177.452 213.456 179.187 213.69 180.832 213.723C183.143 213.766 182.922 213.366 182.889 211.362C182.87 210.158 182.895 207.969 184.505 208.96C185.602 209.636 184.848 212.629 184.644 213.692C193.838 214.609 203.432 215.068 212.584 214.763C221.584 214.46 230.272 213.3 239.163 212.252ZM280.687 191.151C282.31 179.503 284.288 167.66 286.5 156.165C288.736 144.545 291.426 133.035 294.45 121.459C292.453 120.981 290.455 120.505 288.456 120.028C288.384 122.467 287.559 124.585 287.207 127.012C286.721 130.364 285.793 133.616 285.237 136.955C284.183 143.303 282.227 149.516 280.504 155.706C278.748 162.017 278.161 168.52 276.549 174.862C275.219 180.088 274.539 185.843 273.796 191.215C271.996 204.248 269.43 217.306 267.477 230.345C265.644 242.57 265.461 255.043 265.566 267.381C265.631 274.915 266.782 282.427 266.721 289.97C266.705 291.835 266.864 293.694 266.961 295.556C267.027 296.868 266.323 300.509 266.921 301.61C267.3 302.307 268.929 302.949 269.504 303.917C270.415 305.447 270.607 307.276 272.072 308.434C273.257 303.649 272.697 297.333 272.438 292.45C272.186 287.747 272.674 282.883 272.769 278.105C272.958 268.733 273.453 259.499 273.935 250.124C274.461 239.84 275.961 229.309 277.424 219.103C278.753 209.825 279.641 200.379 280.687 191.151ZM237.262 45.079C236.618 45.019 235.974 44.9596 235.332 44.8994C235.427 46.2549 235.141 48.4498 236.096 49.157C236.82 49.6927 238.287 49.5166 239.165 49.6879C242.042 50.2503 245.377 50.7207 248.233 49.6963C249.342 49.2981 248.63 48.6748 250.157 48.9337C252 49.2463 251.327 49.5378 251.859 50.686C252.268 51.5721 252.48 53.08 252.945 54.1438C253.566 55.5675 254.827 58.1151 254.288 59.759C253.764 61.3568 251.809 61.8398 250.979 63.6497C250.361 64.9951 250.506 66.9509 250.186 68.4329C249.757 70.4095 249.216 72.3782 248.976 74.3912C248.675 76.9271 248.778 79.9027 251.922 80.2961C254.838 80.6617 256.924 79.7244 258.881 77.6008C262.615 73.5464 266.881 67.8229 269.075 62.7228C269.333 62.1271 269.963 61.1326 269.876 60.495C269.702 59.2332 269.626 60.5102 269.226 59.6342C268.845 58.7963 268.245 58.0362 267.892 57.1065C266.625 53.7664 265.726 50.2655 265.219 46.73C264.989 45.1286 264.911 43.5465 264.951 41.9291C264.964 41.3768 265.296 39.7187 265.098 39.3408C264.896 38.9574 263.846 38.7808 263.518 38.4006C262.91 37.6957 261.866 35.7058 261.194 35.1782C260.365 34.5299 258.515 35.0434 258.178 33.754C257.641 31.6903 270.369 28.3289 264.423 25.5752C259.982 23.5192 253.173 33.9123 251.621 25.7341C251.35 24.3176 251.863 22.3946 251.241 21.0965C250.556 19.6615 248.685 19.1252 247.378 18.4268C245.713 17.5367 244.029 16.6217 242.409 15.6466C241.297 14.9785 239.696 13.2039 238.513 13.0414C238.98 15.45 238.087 17.8375 238.073 20.2414C240.634 19.5485 242.396 19.5339 244.924 20.7661C246.128 21.3525 250.666 24.681 248.367 26.2818C246.505 25.1812 244.513 24.227 242.438 23.5798C241.619 23.3243 240.596 22.977 239.725 22.9593C237.704 22.9187 237.989 23.13 237.229 24.6537C236.498 26.1216 236.656 29.9498 235.05 30.8871C233.388 31.8563 234.669 30.4998 233.251 30.813C232.442 30.9919 231.561 31.5932 230.82 31.9328C231.834 33.0338 233.882 34.039 234.556 35.2617C235.537 37.0445 235.196 40.7321 235.351 42.6827C236.635 42.2228 237.987 42.204 239.291 41.8626C240.516 41.541 242.213 40.1499 242.341 42.1952C242.484 44.4743 238.879 45.079 237.262 45.079ZM253.985 105.086C254.086 103.117 254.194 101.148 254.414 99.1865C254.562 97.8693 255.814 94.0493 255.107 92.8923C254.337 91.6342 251.76 91.5541 250.519 91.252C248.144 90.6726 245.863 90.1981 243.448 89.8155C241.224 89.464 239.131 89.3897 236.892 89.288C234.453 89.1779 233.848 88.5307 233.308 91.2173C232.886 93.3299 232.318 95.5302 232.238 97.6932C232.163 99.7233 232.777 101.486 230.765 102.854C235.183 102.854 240.939 98.9203 244.972 102.438C250.74 107.468 240.702 108.917 238.054 110.027C240.255 111.096 243.522 111.936 244.558 114.378C245.72 117.115 244.034 118.279 241.453 118.498C241.695 119.554 242.625 120.238 242.901 121.507C243.307 123.368 241.992 122.751 243.669 124.191C245.879 126.085 250.426 127.352 253.137 128.558C253.771 128.841 254.414 129.108 255.063 129.356C256.077 130.259 256.827 130.087 257.311 128.839C258.702 127.961 259.938 125.999 261.171 124.856C263.914 122.316 266.942 120.087 270.201 118.253C268.851 117.694 267.235 118.958 265.938 118.343C264.89 117.845 265.284 116.94 264.657 116.263C264.909 115.379 264.642 115.056 263.859 115.293C263.469 115.335 263.105 115.268 262.768 115.095C262.112 114.282 261.817 114.016 261.773 112.761C261.727 111.43 262.499 110.96 262.794 109.894C263.756 109.239 263.735 108.595 262.729 107.964C262.316 107.288 262.089 106.555 262.053 105.764C261.861 102.828 264.541 101.644 266.587 100.091C262.926 99.6892 263.065 95.397 265.599 93.5206C268.224 91.5753 273.783 92.3718 276.957 92.8106C277.618 92.9013 279.401 93.7527 280.068 93.2097C280.478 92.8771 280.188 90.0645 280.207 89.5682C280.251 88.4412 280.523 87.0977 280.344 85.9767C279.969 83.6292 280.765 84.8115 279.075 84.7461C275.052 84.5901 269.929 88.1009 266.391 89.7559C262.428 91.6088 259.883 91.8938 259.841 96.4875C259.803 100.837 258.582 105.171 258.05 109.452C257.816 111.321 257.65 121.032 254.229 117.449C252.901 116.059 253.752 113.921 253.85 112.207C253.985 109.847 253.905 107.452 253.985 105.086ZM32.6847 250.692C34.6432 251.038 37.8324 249.914 39.9681 249.796C43.704 249.592 47.5524 249.236 51.2121 248.459C54.0756 247.851 57.3371 247.316 58.8822 244.544C60.2615 242.069 60.7492 238.968 61.4941 236.264C61.8885 234.83 62.9078 232.749 62.9078 231.265C62.9058 229.335 62.6467 229.714 60.633 228.659C58.0859 227.323 55.6054 225.46 52.8582 224.702C52.0256 224.54 51.195 224.38 50.3625 224.224C49.2842 223.599 48.6764 223.907 48.5354 225.144C47.4857 226.253 46.8684 228.295 45.9864 229.59C43.9764 232.545 41.5874 234.559 38.4687 236.262C32.8543 239.328 27.6247 241.694 21.6121 243.698C18.2991 244.803 15.2432 246.352 12.0045 247.569C9.40973 248.545 5.82998 248.842 3.83531 251.014C1.58726 253.464 5.04318 254.353 6.96545 256.011C8.53909 257.367 8.56957 257.68 10.7243 257.021C12.3284 256.529 13.7496 255.59 15.2909 254.953C20.5681 252.776 26.9541 251.324 32.6847 250.692ZM153.289 289.551C151.321 289.126 149.355 288.699 147.387 288.276C149.323 291.884 153.39 297.167 150.47 301.345C149.38 302.906 147.564 303.351 145.943 304.142C143.981 305.102 142.169 306.329 140.313 307.472C132.662 312.18 124.887 316.956 116.827 320.997C119.351 321.81 123.232 322.374 125.83 321.666C128.856 320.839 131.658 318.941 134.766 318.112C140.34 316.625 146.208 315.358 151.87 314.596C156.499 313.971 168.086 315.38 167.524 308.421C166.989 301.812 163.042 295.508 161.866 288.975C158.984 289.615 156.233 289.505 153.289 289.551ZM270.518 183.789C272.76 172.789 274.097 161.604 276.742 150.682C278.062 145.235 278.992 139.712 280.279 134.263C280.88 131.728 281.333 129.167 281.916 126.637C282.509 124.075 283.781 121.71 284.071 119.062C281.929 119.592 281.434 124.498 280.784 126.342C279.594 129.727 278.294 132.981 276.765 136.222C274.33 141.373 271.748 146.344 269.003 151.339C266.109 156.607 263.053 161.674 259.437 166.485C258.249 168.066 256.637 169.304 255.871 171.038C254.667 173.766 254.16 177.016 253.011 179.855C253.821 180.267 255.913 180.369 256.907 180.566C258.753 180.93 260.049 181.253 261.823 182.132C264.949 183.679 267.576 185.513 269.664 188.297C270.19 186.868 270.325 185.302 270.518 183.789ZM183.384 267.712C183.346 257.12 183.196 246.436 183.369 235.921C183.417 233.001 183.655 229.851 184.08 226.954C184.345 225.132 185.911 221.261 184.882 220.389C184.002 219.642 179.363 220.133 178.223 220.107C176.014 220.055 173.813 219.956 171.599 219.79C171.599 223.717 173.135 228.175 173.847 232.058C174.512 235.681 175.057 239.324 175.606 242.963C176.793 250.844 177.132 258.834 178.42 266.735C179.588 273.9 181.129 281.035 181.978 288.198C182.443 292.132 183.386 295.841 184.12 299.772C184.503 301.822 185.899 310.261 187.658 311.092C188.029 308.063 186.511 304.407 186.238 301.345C185.958 298.185 185.741 295.003 185.229 291.825C184.625 288.093 184.322 284.272 184.091 280.496C183.95 278.185 183.906 275.879 183.706 273.57C183.564 271.896 182.929 269.356 183.384 267.712ZM238.605 126.056C238.677 124.903 235.692 124.949 235.135 123.623C234.006 120.931 236.578 121.415 238.159 121.137C237.595 119.64 227.039 120.184 229.498 116.143C231.205 113.339 237.675 117.631 239.403 114.966C240.54 113.216 237.446 112.975 236.221 112.8C234.375 112.535 230.026 113.389 230.169 110.995C230.35 107.986 238.803 105.91 241.175 105.026C240.912 102.966 230.737 105.894 229.266 106.729C225.932 108.62 223.379 112.011 222.889 115.781C222.32 120.165 224.545 123.619 228.927 124.696C230.754 125.145 232.104 125.195 233.794 125.869C234.907 126.313 238.506 127.42 239.268 126.3C239.047 126.218 238.826 126.138 238.605 126.056ZM298.334 98.7778C298.502 96.9049 300.08 93.3792 298.264 92.1487C295.721 90.4265 294.667 93.2646 294.09 94.9689C293.387 97.0502 290.424 102.145 293.013 103.442C293.617 103.744 296.471 103.393 296.976 103.194C298.378 103.559 298.83 103.034 298.334 101.617V98.7778ZM236.282 250.023C236.122 244.904 238.414 238.75 239.714 233.738C241.186 228.057 241.962 222.263 243.522 216.645C241.786 216.855 240.035 217.024 238.321 217.373C235.981 217.847 235.939 217.773 236.107 220.067C236.359 223.513 236.029 226.891 235.852 230.335C235.496 237.232 236.362 244.243 235.785 251.096C236.301 251.225 236.465 250.869 236.282 250.023ZM301.061 115.87C306.681 116.73 312.069 118.512 317.184 120.907C320.003 122.225 323.109 123.642 326.26 124.17C329.76 124.755 333.473 124.481 337.047 124.707C338.308 124.787 341.621 125.399 342.85 124.658C344.067 123.922 343.972 122.678 344.029 121.196C344.176 117.381 342.45 113.646 340.895 110.224C339.563 107.287 338.556 105.045 336.489 102.52C333.835 99.2753 331.522 95.7744 329.036 92.3884C327.161 89.8361 325.267 87.3202 323.356 84.7707C321.99 82.9456 322.055 82.3173 319.994 82.5217C317.965 82.7231 315.923 83.9218 314.012 84.5572C311.177 85.5002 307.742 86.0178 305.155 87.5257C303.484 88.5008 303.41 88.6802 303.429 90.3819C303.446 91.9668 303.958 93.8997 304.905 95.1398C306.875 97.7138 310.142 99.0764 312.945 100.36C314.566 101.103 315.966 102.156 317.411 103.181C318.965 104.285 322.103 104.936 323.292 106.195C326.757 109.861 320.451 109.136 318.689 109.026C314.886 108.786 311.105 108.823 307.273 108.82C303.092 108.817 298.944 108.623 294.821 108.759C292.408 108.838 289.638 107.614 288.073 105.573C287.315 104.585 287.02 103.651 286.031 102.625C284.732 101.282 283.604 99.867 282.025 98.8277C279.441 97.1274 274.747 96.1653 271.672 96.8001C272.773 96.9537 277.951 98.7165 275.671 100.932C275.395 101.202 272.063 101.378 271.339 101.711C270.032 102.311 268.384 103.183 267.618 104.45C269.849 104.076 278.127 103.643 273.905 107.924C272.869 108.975 269.893 110.024 272.425 111.142C273.006 111.398 274.17 111.035 274.918 111.266C276.031 111.611 276.942 112.532 277.984 113.023C280.943 114.418 285.018 115.278 288.106 114.973C292.373 114.549 296.82 115.311 301.061 115.87ZM187.877 244.864C188.024 251.014 187.801 257.2 187.932 263.378C188.073 269.975 188.919 276.441 189.323 282.972C189.685 288.827 190.475 294.569 191.117 300.395C191.487 303.75 191.914 306.96 192.482 310.29C193.013 313.405 193.104 316.152 189.378 316.99C182.253 318.592 181.146 308.345 179.769 304.028C177.713 297.585 176.396 290.82 175.377 284.14C173.482 271.7 170.959 259.432 169.976 246.887C169.37 239.162 168.492 231.515 167.993 223.797C167.896 222.284 168.283 219.954 166.953 219.28C166.154 218.876 163.954 218.872 162.944 218.579C160.134 217.762 157.541 216.557 154.8 215.31C156.745 225.483 157.389 235.605 158.848 245.866C159.624 251.311 161.106 256.954 162.39 262.313C163.72 267.866 164.017 273.847 165.552 279.278C166.229 281.673 166.8 282.648 165.819 285.106C164.615 288.124 165.413 288.846 166.924 291.808C169.702 297.259 171.822 303.692 171.35 309.837C170.967 314.857 167.174 317.484 162.476 318.836C156.598 320.53 150.443 320.33 144.531 322.252C139.378 323.929 134.144 325.165 129.142 327.377C127.124 328.269 125.207 329.326 122.969 329.49C119.896 329.713 117.825 327.931 114.924 327.56C113.11 327.328 110.454 328.192 109.41 326.293C108.581 324.786 109.519 321.498 110.559 320.286C113.479 316.878 119.328 313.908 123.266 311.896C127.806 309.577 132.197 306.676 136.404 303.685C138.953 301.871 141.554 300.13 144.101 298.314C145.787 297.11 146.427 297.103 146.253 295.192C146.116 293.67 145.43 292.191 145.31 290.631C145.217 289.434 145.636 287.806 145.072 287.026C144.657 286.451 143.097 286.045 142.483 285.609C140.241 284.02 139.73 282.054 138.711 279.634C136.398 274.144 133.741 268.806 131.506 263.269C126.709 251.381 123.782 238.884 119.805 226.754C115.743 214.361 112.11 201.353 109.871 188.497C106.878 189.407 104.053 193.439 101.668 195.431C98.4461 198.127 95.1464 200.733 91.9858 203.503C86.8095 208.042 81.5666 212.458 77.2858 217.893C75.2244 220.511 73.5365 223.33 71.6714 226.079C70.5931 227.67 69.5871 229.469 68.4193 230.979C68.2326 231.223 68.2269 231.72 68.0249 231.928C67.581 232.381 66.7313 231.776 66.4456 232.075C64.6871 233.915 64.71 239.137 64.1613 241.564C63.4069 244.91 62.5572 248.754 59.9453 251.059C55.9102 254.62 48.4688 255.173 43.3611 255.357C36.8074 255.594 30.45 257.421 24.2317 259.381C21.3321 260.295 18.5067 261.366 15.5957 262.254C13.9211 262.765 12.0121 263.784 10.2232 263.588C8.06662 263.351 6.36532 261.538 4.78597 260.189C2.25786 258.032 -0.0816394 255.906 0.00218643 252.368C0.0917276 248.623 2.1207 245.796 5.31751 243.934C11.4997 240.337 18.4134 238.032 25.0756 235.546C27.6304 234.593 29.8156 233.538 32.258 232.256C35.7063 230.442 39.6785 228.962 42.7381 226.567C43.6412 225.86 46.958 223.696 47.2399 222.58C47.2781 222.435 46.4474 220.73 46.4455 220.461C46.436 219.766 46.8475 219.011 47.1009 218.417C48.6954 214.669 51.3703 211.061 53.4145 207.529C57.1581 201.057 60.9169 194.551 65.2587 188.464C73.9137 176.329 83.6375 164.446 94.131 153.854C99.2482 148.689 103.67 142.831 108.858 137.738C110.913 135.721 113.083 134.079 115.615 132.77C118.439 131.309 121.609 131.023 124.844 130.577C132.687 129.499 139.235 131.817 146.598 133.837C153.558 135.744 160.527 137.354 167.526 139.341C175.213 141.522 182.821 143.616 190.483 145.993C194.577 147.264 198.789 148.043 202.903 149.262C204.884 149.849 212.371 153.526 214.023 152.318C208.82 149.878 203.491 147.653 197.924 146.18C196.286 145.748 195.24 146.228 195.299 144.345C195.333 143.318 196.488 141.933 196.903 141.088C197.898 139.066 199.024 137.089 199.995 135.062C196.467 136.062 186.983 139.529 184.324 135.946C181.542 132.194 183.865 124.841 185.61 121.168C190.161 111.58 197.904 103.579 205.448 96.3514C207.081 94.7889 210.597 92.7481 211.468 90.758C211.733 90.1527 211.158 89.2638 211.754 88.4777C212.108 88.0102 213.533 87.6905 214.103 87.1866C216.178 85.3508 217.833 81.4878 219.266 79.0808C220.767 76.5604 222.12 73.8307 224.006 71.5693C227.092 67.8711 230.277 63.9511 235.275 63.0861C237.725 62.6622 240.327 62.8884 242.676 62.0423C245.517 61.0189 248.214 59.4069 251.083 58.3471C250.371 56.8845 249.794 54.5589 248.414 54.3993C247.084 54.2452 245.136 55.3873 243.613 55.3791C241.392 55.3667 239.496 55.0116 237.351 54.5883C234.979 54.1191 234.196 54.2044 233.331 51.631C232.424 48.935 232.653 45.8037 232.661 43.0036C232.665 41.6353 232.935 39.9367 232.819 38.5936C232.644 36.5699 232.251 36.4924 230.664 35.2053C228.681 33.5974 226.239 31.4695 228.666 28.6756C229.978 27.166 232.676 28.3402 233.838 26.7181C235.021 25.066 234.964 20.9157 235.324 18.9751C231.676 20.7684 233.013 14.064 233.013 12.4508C233.011 10.1033 231.438 5.88188 233.703 3.92893C234.756 3.02208 235.538 3.77214 236.742 3.25108C238.115 2.65649 238.98 1.09676 240.441 0.492068C243.345 -0.71007 246.311 0.737644 249.293 0.49855C252.712 0.224783 256.071 -0.303891 259.51 0.244787C261.141 0.503885 261.826 1.12267 263.204 1.81633C264.53 2.48332 265.875 2.66583 267.315 3.09505C268.597 3.47722 269.719 3.6704 270.586 4.78662C271.27 5.66984 270.992 7.15527 271.684 7.91656C272.364 8.6668 273.712 8.55783 274.526 9.44866C275.305 10.3035 275.772 11.7165 276.178 12.7806C276.725 14.2136 276.789 14.7518 277.753 15.8987C278.595 16.8996 279.805 17.7044 280.506 18.8461C282.16 21.5373 282.202 25.4291 281.674 28.4567C281.495 29.4876 280.001 32.1525 280.236 33.0296C280.457 33.8646 281.859 33.645 282.493 34.1731C283.042 34.6294 283.524 36.6625 283.956 36.7867C284.892 37.0546 286.044 35.2099 286.753 34.9332C287.982 34.4522 288.496 33.9588 289.178 35.7717C289.683 37.1171 288.98 38.9428 288.611 40.2268C288.138 41.8614 287.618 43.8296 286.368 45.0655C284.901 46.5185 283.726 45.7243 282.105 46.5067C279.677 47.6797 280.394 51.3465 277.407 52.3945C274.558 53.3932 271.423 50.2515 269.27 48.8072C269.716 52.3134 271.394 55.6917 270.588 59.285C277.136 56.7203 283.612 53.0806 290.748 52.2785C294.387 51.8693 298.062 51.3848 301.497 52.895C305.517 54.6626 307.98 58.5614 310.703 61.8009C315.816 67.8894 321.065 73.8073 325.972 80.0917C330.476 85.8565 334.271 92.5362 339.228 97.934C344.252 103.408 348.045 112.289 347.494 119.868C347.445 120.554 346.915 122.107 346.997 122.846C347.062 123.41 347.576 124.126 347.569 124.583C347.54 126.117 347.033 126.999 345.57 127.851C343.036 129.327 339.259 130.074 336.393 130.44C332.587 130.928 327.925 130.979 324.117 130.459C320.188 129.922 316.736 127.725 313.124 126.395C309.956 125.231 306.772 124.503 303.444 123.758C301.607 123.349 299.575 122.213 298.439 123.313C297.397 124.322 297.182 129.506 296.938 130.884C294.303 145.824 291.173 160.257 288.401 175.121C285.26 191.968 283.111 208.809 280.925 225.799C278.94 241.244 278.291 256.862 277.847 272.292C277.633 279.654 277.603 286.935 277.649 294.3C277.673 298.427 279.737 312.195 273.619 312.723C270.024 313.033 267.149 307.882 266.185 305.072C264.739 300.85 263.985 296.304 263.754 291.869C263.288 282.892 262.676 273.908 262.314 264.927C261.922 255.195 262.421 245.287 263.219 235.588C264.025 225.826 266.054 216.205 266.677 206.426C264.81 209.091 264.212 209.59 261.102 210.751C257.848 211.966 254.718 213.403 251.436 214.534C250.317 214.919 248.574 215.161 247.66 215.792C245.97 216.954 247.079 215.635 246.54 217.899C245.964 220.318 245.856 223.224 245.701 225.708C244.983 237.375 241.75 248.958 240.258 260.564C239.898 263.365 240.413 275.26 235.589 271.511C231.874 268.625 231.948 259.556 231.419 255.31C230.716 249.648 231.108 243.826 231.219 238.131C231.346 231.644 231.455 224.839 233.004 218.506C230.234 218.032 226.38 219.322 223.592 219.541C221.177 219.728 218.77 219.848 216.37 219.979C210.645 220.293 204.747 220.545 198.925 220.432C197.865 220.412 190.94 219.442 190.056 220.223C189.769 220.478 189.681 223.968 189.628 224.393C189.424 225.997 189.148 227.6 188.94 229.194C188.283 234.292 187.69 239.768 187.877 244.864Z" fill="black"/>
<path fill-rule="evenodd" clip-rule="evenodd" d="M290.707 293.315C295.078 295.022 299.715 295.641 304.121 297.196C308.061 298.587 311.719 300.456 315.598 301.869C315.827 300.071 315.947 297.025 315.282 295.329C314.341 292.929 311.866 292.869 309.427 292.014C303.495 289.934 297.252 289.494 291.361 287.063C292.371 289.004 291.919 291.574 290.707 293.315ZM366.137 287.036C356.699 287.314 347.68 289.509 338.38 290.867C333.855 291.526 329.324 292.117 324.794 292.732C323.051 292.97 319.873 292.69 318.606 294.199C317.556 295.449 318.707 299.715 318.24 301.547C320.149 301.688 323.535 299.907 325.606 299.612C328.829 299.153 332.011 298.511 335.268 298.307C340.426 297.981 345.495 297.705 350.645 297.131C355.882 296.548 360.95 295.462 366.229 295.066C368.795 294.874 369.828 295.356 369.978 292.647C370.037 291.587 370.182 289.816 369.887 288.772C370.361 287.487 369.94 286.865 368.622 286.901C367.785 286.807 366.958 286.851 366.137 287.036ZM347.884 278.392C350.437 278.154 352.999 277.811 355.558 277.667C356.076 277.638 358.707 277.796 359.138 277.314C359.746 276.632 359.067 274.136 358.957 273.365C358.578 270.739 358.159 269.213 355.293 269.208C352.876 269.202 350.374 269.713 347.966 269.947C337.034 271.02 326.158 271.471 315.348 273.506C316.008 276.306 316.754 279.196 315.968 282.062C321.153 282.328 326.846 281.332 331.913 280.309C337.094 279.263 342.59 278.743 347.884 278.392ZM330.584 252.018C326.678 252.035 322.55 253.753 318.698 253.37C318.639 254.087 319.873 253.492 320.214 254.163C320.94 254.165 321.195 254.403 320.972 254.877C320.986 255.199 320.82 255.39 320.475 255.445C320.306 255.46 320.136 255.474 319.966 255.489C319.221 255.512 319.1 256.015 319.601 256.998C319.385 258.213 319.707 259.758 319.755 260.979C326.68 260.038 333.409 259.059 340.384 258.638C343.676 258.44 346.966 258.44 350.254 258.169C353.872 257.87 357.821 258.51 361.359 257.832C363.249 257.47 363.051 257.495 362.914 255.037C362.83 253.544 362.86 251.77 361.645 250.68C359.614 248.861 354.988 249.913 352.558 249.977C345.242 250.17 337.802 250.85 330.584 252.018ZM334.581 287.124C345.044 286.175 355.427 284.094 365.949 284.094C365.204 283.351 363.584 283.159 362.659 282.753C361.603 282.292 360.607 281.307 359.574 280.903C357.505 280.094 355.398 281.22 353.272 281.705C348.141 282.881 342.879 282.921 337.741 284.072C332.43 285.262 327.05 286.36 321.641 286.965C319.065 287.253 316.301 287.838 313.756 287.158C313.55 287.009 313.342 286.863 313.137 286.714C312.914 285.767 312.296 285.516 311.283 285.956C309.997 285.712 308.358 286.028 307.065 286.061C307.012 286.577 311.795 288.198 312.708 288.6C314.906 289.568 316.396 290.277 318.743 289.861C324.03 288.928 329.229 287.813 334.581 287.124ZM297.777 256.544C298.187 258.139 299.903 257.413 301.382 257.588C303.365 257.825 305.339 258.509 307.261 259.025C310.751 259.962 314.241 260.886 317.716 261.877C317.579 260.475 317.89 257.28 317.149 256.036C316.369 254.731 312.679 254.159 310.963 253.761C306.632 252.759 302.005 253.328 297.606 253.54C297.684 254.54 297.741 255.542 297.777 256.544ZM339.376 266.514C343.485 266.165 347.598 265.895 351.719 265.75C356.431 265.586 353.007 264.834 352.908 261.961C346.714 262.947 340.468 263.142 334.295 263.986C329.182 264.687 323.089 266.514 317.873 265.533C315.413 265.07 312.9 264.891 310.283 264.63C307.814 264.382 305.485 263.233 303.045 262.947C300.307 262.626 297.511 264.165 294.786 264.571C293.632 264.744 293.363 265.527 292.818 264.138C292.254 262.696 293.872 261.519 294.51 260.658C295.255 259.65 294.946 261.284 295.36 259.713C295.474 259.272 295.162 258.166 295.103 257.691C294.958 256.491 294.581 255.19 294.521 253.993C294.468 252.894 294.459 251.216 295.651 250.574C296.381 250.181 296.897 250.753 297.532 250.642C302.491 249.781 308.324 249.709 313.352 250.541C318.804 251.442 323.497 249.055 328.869 248.087C335.173 246.952 341.542 246.782 347.901 246.302C353.337 245.893 363.27 243.765 365.341 250.707C365.928 252.673 366.781 258.089 365.204 259.762C363.133 261.961 358.34 261.26 355.663 261.829C356.063 262.968 357.256 263.744 356.842 265.1C360.595 265.277 361.258 268.819 361.845 272.126C362.453 275.55 361.268 276.91 364.539 278.692C369.098 281.176 373.927 283.683 373.838 289.598C373.794 292.572 373.461 297.057 370.407 298.6C367.419 300.109 362.554 299.854 359.26 300.402C352.883 301.464 346.484 302.709 340.069 303.346C333.238 304.024 326.293 304.582 319.45 304.885C315.722 305.051 312.5 305.615 308.9 304.359C305.36 303.127 301.896 302.226 298.244 301.311C294.638 300.408 283.599 299.191 286.817 293.026C287.331 292.041 289.09 291.256 289.374 290.322C289.833 288.817 288.284 287.644 288.349 286.283C288.467 283.797 291.275 283.485 293.213 283.485C289.89 281.406 294.34 278.947 294.314 277.183C294.268 274.075 290.401 272.06 290.183 269.454C289.65 263.115 309.766 269.715 312.862 271.086C310.479 274.62 299.423 271.562 296.131 271.027C296.579 272.206 297.01 273.268 297.139 274.475C297.244 275.458 296.869 276.583 297.213 277.573C297.756 279.141 297.737 278.84 299.662 279.267C301.085 279.583 302.493 279.949 303.91 280.282C306.089 280.797 309.517 282.176 311.677 282.1C313.571 282.035 313.197 282.622 313.544 280.519C313.731 279.389 313.413 278.187 313.22 277.08C312.824 274.759 312.241 272.565 314.268 270.9C316.202 269.313 320.275 268.556 322.645 267.996C327.907 266.754 333.979 266.449 339.376 266.514Z" fill="black"/>
<path fill-rule="evenodd" clip-rule="evenodd" d="M364.412 226.912C358.699 225.956 352.894 225.719 347.112 226.009C347.426 227.44 347.738 228.868 348.053 230.299C353.469 228.905 358.963 228.087 364.412 226.912ZM317.952 238.005C315.66 237.838 317.254 238.863 317.82 240.362C318.516 242.204 318.367 244.534 318.527 246.472C325.231 243.917 333.031 242.422 340.16 241.56C343.539 241.153 346.969 241.037 350.367 240.861C351.373 240.81 355.003 241.231 355.738 240.555C356.283 240.052 355.9 237.28 355.376 236.668C352.522 233.344 341.493 236.213 337.504 236.512C330.962 237 324.54 238.169 317.952 238.005ZM327.474 229.095C333.41 229.667 339.142 229.611 345.079 230.501C344.629 226.729 345.166 225.765 340.886 225.565C337.072 225.388 333.269 225.243 329.472 225.245C320.933 225.251 312.413 225.087 303.867 225.087V228.92C311.771 228.112 319.552 229.573 327.474 229.095ZM298.927 243.195C302.674 243.178 306.214 244.592 309.962 244.959C312.204 245.178 311.499 245.456 313.055 246.58C315.479 248.335 316.176 247.402 315.873 245.018C314.842 236.958 304.635 238.766 298.754 238.318C299.14 240.24 298.251 241.869 296.942 243.195H298.927ZM339.423 232.846C334.035 232.934 328.639 233.241 323.288 233.128C320.893 233.079 317.79 232.604 315.443 233.012C313.722 233.311 312.284 234.186 310.398 234.511C313.168 236.003 314.572 234.995 317.485 234.656C320.396 234.317 323.349 234.325 326.271 234.148C331.07 233.856 336.186 232.707 340.912 233.02C341 232.355 340.503 232.296 339.423 232.846ZM296.681 250.303C294.21 250.297 297.611 247.485 298.058 247.207C295.321 247.207 294.658 245.567 295.45 242.93C296.197 240.446 296.751 241.206 294.871 239.137C293.455 237.581 293.24 236.434 294.909 234.692C296.607 232.921 300.045 233.422 301.55 231.959C304.111 229.47 300.805 224.513 304.355 222.606C306.753 221.318 310.621 221.478 313.269 221.206C315.827 220.943 318.477 220.894 321.055 220.857C326.671 220.781 332.507 221.722 338.098 222.241C340.139 222.429 342.431 223.252 344.439 223.254C346.487 223.258 348.632 222.801 350.749 222.852C353.206 222.915 355.576 222.734 358.112 223.138C360.053 223.446 364.589 223.608 366.075 225.052C371.023 229.865 359.289 232.075 357.27 232.616C359.325 234.866 359.24 237.84 358.929 240.673C359.908 240.673 361.594 240.248 362.101 241.345C362.73 242.705 360.402 243.06 359.851 243.22C356.687 244.132 352.981 243.883 349.718 244.214C343.197 244.877 336.751 245.26 330.297 246.497C327.152 247.099 324.025 247.844 320.882 248.428C320.339 248.531 319.792 248.611 319.245 248.674C318.403 248.602 318.131 249.13 318.428 250.259C317.555 250.684 314.303 249.623 313.297 249.461C307.538 248.528 302.387 248.914 296.681 250.303Z" fill="black"/>
<path fill-rule="evenodd" clip-rule="evenodd" d="M412.962 306.207C409.249 309.13 405.795 311.887 401.773 314.426C404.616 314.337 414.073 309.804 412.962 306.207ZM411.512 301.444C409.485 299.703 407.471 299.88 404.962 299.353C402.651 298.867 400.405 298.03 398.1 297.472C396.29 297.036 394.499 296.445 392.695 296.032C390.15 295.447 389.898 296.091 387.557 297.425C379.253 302.155 369.959 305.411 361.213 309.25C363.781 311.511 369.559 311.608 372.767 312.328C375.111 312.854 377.342 313.574 379.586 314.405C381.676 315.182 385.044 316.966 387.248 317.025C389.108 317.076 390.62 315.245 392.223 314.258C394.33 312.961 396.427 311.686 398.551 310.421C403.046 307.745 407.247 304.464 411.512 301.444ZM373.983 320.608C373.025 319.688 370.138 319.728 368.936 319.446C366.568 318.894 364.236 318.318 361.836 317.903C357.942 317.23 351.792 316.927 351.369 311.879C351.017 307.682 356.09 306.686 359.056 305.264C363.516 303.125 368.069 301.151 372.644 299.265C376.932 297.497 381.283 296.002 385.65 294.474C386.502 294.176 387.193 294.216 387.888 293.536C388.437 292.997 388.268 291.953 388.87 291.391C390.245 290.105 392.032 290.781 393.686 291.111C397.443 291.862 401.344 292.845 404.924 294.234C408.647 295.678 411.975 295.979 412.87 300.199C414.774 299.305 416.204 299.175 415.976 301.799C415.911 302.569 415.351 303.407 415.216 304.201C415.018 305.375 415.364 306.609 415.168 307.785C414.456 312.056 408.694 315.22 405.124 316.897C400.723 318.966 395.042 322.022 390.127 322.426C384.89 322.856 379.182 320.799 373.983 320.608Z" fill="black"/>
<path fill-rule="evenodd" clip-rule="evenodd" d="M307.318 249.739C305.757 249.749 304.195 249.76 302.633 249.77C304.191 249.476 305.753 249.472 307.318 249.739Z" fill="black"/>
<path fill-rule="evenodd" clip-rule="evenodd" d="M215.965 84.565C215.496 85.3452 215.029 86.1253 214.561 86.9068C214.719 85.9007 215.077 85.0384 215.965 84.565Z" fill="black"/>
<path fill-rule="evenodd" clip-rule="evenodd" d="M307.314 272.125C308.254 272.134 309.193 272.142 310.126 272.149C309.185 272.142 308.25 272.134 307.314 272.125Z" fill="black"/>
<path fill-rule="evenodd" clip-rule="evenodd" d="M310.126 249.762C309.189 249.754 308.252 249.745 307.314 249.737C308.256 249.48 309.193 249.49 310.126 249.762Z" fill="black"/>
<path fill-rule="evenodd" clip-rule="evenodd" d="M347.41 116.881C347.383 115.944 347.357 115.007 347.33 114.071C347.357 115.008 347.383 115.944 347.41 116.881Z" fill="black"/>
<path fill-rule="evenodd" clip-rule="evenodd" d="M188.12 258.322C188.101 257.541 188.082 256.76 188.062 255.978C188.083 256.761 188.101 257.541 188.12 258.322Z" fill="black"/>
<path fill-rule="evenodd" clip-rule="evenodd" d="M213.623 220.151C214.25 220.151 214.875 220.151 215.496 220.153C214.869 220.153 214.246 220.151 213.623 220.151Z" fill="black"/>
<path fill-rule="evenodd" clip-rule="evenodd" d="M277.602 280.802C277.579 280.176 277.554 279.551 277.533 278.928C277.556 279.555 277.579 280.179 277.602 280.802Z" fill="black"/>
<path fill-rule="evenodd" clip-rule="evenodd" d="M278.532 256.916C278.515 256.291 278.498 255.666 278.48 255.043C278.5 255.668 278.515 256.291 278.532 256.916Z" fill="black"/>
<path fill-rule="evenodd" clip-rule="evenodd" d="M262.541 267.687C262.564 268.314 262.587 268.939 262.61 269.562C262.587 268.935 262.564 268.312 262.541 267.687Z" fill="black"/>
<path fill-rule="evenodd" clip-rule="evenodd" d="M217.371 219.691C217.842 219.686 218.31 219.68 218.777 219.672C218.305 219.68 217.838 219.686 217.371 219.691Z" fill="black"/>
<path fill-rule="evenodd" clip-rule="evenodd" d="M353.227 244.068C353.695 244.047 354.166 244.026 354.631 244.007C354.16 244.028 353.691 244.047 353.227 244.068Z" fill="black"/>
<path fill-rule="evenodd" clip-rule="evenodd" d="M263.473 282.675C263.499 283.3 263.526 283.925 263.553 284.548C263.526 283.921 263.499 283.298 263.473 282.675Z" fill="black"/>
<path fill-rule="evenodd" clip-rule="evenodd" d="M313.685 279.396C313.653 280.021 313.622 280.648 313.59 281.269C313.622 280.644 313.653 280.019 313.685 279.396Z" fill="black"/>
<path fill-rule="evenodd" clip-rule="evenodd" d="M259.694 0.331688C259.031 0.24729 258.37 0.163654 257.707 0.0794472C258.362 0.231096 259.083 -0.331489 259.694 0.331688Z" fill="black"/>
<path fill-rule="evenodd" clip-rule="evenodd" d="M231.217 240.524C231.2 241.149 231.181 241.774 231.164 242.397C231.181 241.77 231.2 241.147 231.217 240.524Z" fill="black"/>
<path fill-rule="evenodd" clip-rule="evenodd" d="M342.451 244.988C342.922 244.978 343.39 244.967 343.857 244.959C343.385 244.969 342.918 244.978 342.451 244.988Z" fill="black"/>
<path fill-rule="evenodd" clip-rule="evenodd" d="M183.402 131.4C183.406 132.025 183.408 132.65 183.412 133.273C183.408 132.646 183.404 132.023 183.402 131.4Z" fill="black"/>
<path fill-rule="evenodd" clip-rule="evenodd" d="M173.57 271.904C173.568 272.528 173.566 273.155 173.562 273.776C173.564 273.151 173.568 272.526 173.57 271.904Z" fill="black"/>
<path fill-rule="evenodd" clip-rule="evenodd" d="M290.331 268.156C290.314 268.781 290.297 269.408 290.28 270.029C290.023 269.387 290.053 268.764 290.331 268.156Z" fill="black"/>
<path fill-rule="evenodd" clip-rule="evenodd" d="M278.045 265.346C278.039 264.721 278.035 264.096 278.029 263.473C278.035 264.1 278.039 264.723 278.045 265.346Z" fill="black"/>
<path fill-rule="evenodd" clip-rule="evenodd" d="M373.838 320.825C374.308 320.839 374.779 320.852 375.244 320.865C374.771 320.852 374.305 320.839 373.838 320.825Z" fill="black"/>
<path fill-rule="evenodd" clip-rule="evenodd" d="M356.975 261.374C357.287 261.368 357.601 261.362 357.912 261.357C357.596 261.362 357.285 261.368 356.975 261.374Z" fill="black"/>
<path fill-rule="evenodd" clip-rule="evenodd" d="M345.262 262.77C345.576 262.77 345.89 262.77 346.199 262.768C345.885 262.77 345.574 262.77 345.262 262.77Z" fill="black"/>
<path fill-rule="evenodd" clip-rule="evenodd" d="M162.823 265.815C162.804 265.346 162.785 264.877 162.766 264.409C162.785 264.879 162.804 265.348 162.823 265.815Z" fill="black"/>
<path fill-rule="evenodd" clip-rule="evenodd" d="M354.631 265.458C354.225 265.87 353.701 265.628 353.227 265.655C353.695 265.588 354.162 265.523 354.631 265.458Z" fill="black"/>
<path fill-rule="evenodd" clip-rule="evenodd" d="M298.883 250.475C298.265 250.766 297.64 250.808 297.01 250.496C297.635 250.488 298.26 250.482 298.883 250.475Z" fill="black"/>
<path fill-rule="evenodd" clip-rule="evenodd" d="M339.64 266.525C339.015 266.52 338.392 266.514 337.768 266.51C338.392 266.514 339.017 266.52 339.64 266.525Z" fill="black"/>
<path fill-rule="evenodd" clip-rule="evenodd" d="M170.306 248.017C170.294 248.488 170.281 248.956 170.268 249.423C170.281 248.952 170.292 248.484 170.306 248.017Z" fill="black"/>
<path fill-rule="evenodd" clip-rule="evenodd" d="M278 273.308C278.025 272.839 278.048 272.37 278.072 271.904C278.048 272.372 278.025 272.841 278 273.308Z" fill="black"/>
<path fill-rule="evenodd" clip-rule="evenodd" d="M188.108 244.738C188.095 244.27 188.082 243.801 188.068 243.334C188.082 243.805 188.095 244.271 188.108 244.738Z" fill="black"/>
<path fill-rule="evenodd" clip-rule="evenodd" d="M266.38 208.676C266.344 209.147 266.308 209.615 266.27 210.082C266.308 209.611 266.344 209.145 266.38 208.676Z" fill="black"/>
<path fill-rule="evenodd" clip-rule="evenodd" d="M351.822 222.848C351.195 223.172 350.572 223.132 349.947 222.846C350.572 222.846 351.197 222.848 351.822 222.848Z" fill="black"/>
<path fill-rule="evenodd" clip-rule="evenodd" d="M277.613 287.827C277.585 287.358 277.558 286.889 277.529 286.421C277.558 286.891 277.585 287.358 277.613 287.827Z" fill="black"/>
<path fill-rule="evenodd" clip-rule="evenodd" d="M277.598 291.574C277.579 291.105 277.56 290.637 277.539 290.168C277.56 290.639 277.579 291.105 277.598 291.574Z" fill="black"/>
<path fill-rule="evenodd" clip-rule="evenodd" d="M189.018 229.752C189.025 229.284 189.031 228.813 189.037 228.346C189.031 228.817 189.023 229.284 189.018 229.752Z" fill="black"/>
<path fill-rule="evenodd" clip-rule="evenodd" d="M322.309 304.466C322.623 304.456 322.935 304.449 323.246 304.439C322.932 304.449 322.619 304.458 322.309 304.466Z" fill="black"/>
<path fill-rule="evenodd" clip-rule="evenodd" d="M171.264 308.434C171.239 307.966 171.212 307.497 171.188 307.028C171.214 307.497 171.239 307.966 171.264 308.434Z" fill="black"/>
<path fill-rule="evenodd" clip-rule="evenodd" d="M272.648 312.405C272.963 312.412 273.277 312.418 273.586 312.424C273.269 312.418 272.959 312.412 272.648 312.405Z" fill="black"/>
<path fill-rule="evenodd" clip-rule="evenodd" d="M272.844 272.37C272.87 270.966 272.897 269.56 272.924 268.156C272.897 269.562 272.87 270.966 272.844 272.37Z" fill="black"/>
<path fill-rule="evenodd" clip-rule="evenodd" d="M236.318 220.854C236.334 221.947 236.351 223.041 236.368 224.132C236.351 223.037 236.336 221.945 236.318 220.854Z" fill="black"/>
<path fill-rule="evenodd" clip-rule="evenodd" d="M155.533 289.452C154.752 289.461 153.969 289.471 153.191 289.48C153.976 289.471 154.754 289.461 155.533 289.452Z" fill="black"/>
<path fill-rule="evenodd" clip-rule="evenodd" d="M219.713 196.283C218.931 196.272 218.148 196.258 217.371 196.247C218.156 196.26 218.935 196.272 219.713 196.283Z" fill="black"/>
<path fill-rule="evenodd" clip-rule="evenodd" d="M199.568 214.532C200.349 214.532 201.131 214.53 201.91 214.53C201.129 214.53 200.349 214.53 199.568 214.532Z" fill="black"/>
<path fill-rule="evenodd" clip-rule="evenodd" d="M209.877 195.782C209.25 195.792 208.623 195.803 208.002 195.813C208.631 195.803 209.254 195.792 209.877 195.782Z" fill="black"/>
<path fill-rule="evenodd" clip-rule="evenodd" d="M159.283 289.471C158.656 289.467 158.029 289.465 157.408 289.461C158.037 289.465 158.66 289.467 159.283 289.471Z" fill="black"/>
<path fill-rule="evenodd" clip-rule="evenodd" d="M254.1 105.172C254.128 104.391 254.159 103.611 254.187 102.83C254.157 103.612 254.128 104.392 254.1 105.172Z" fill="black"/>
<path fill-rule="evenodd" clip-rule="evenodd" d="M235.172 112.431C234.701 112.431 234.232 112.431 233.766 112.432C234.238 112.432 234.705 112.431 235.172 112.431Z" fill="black"/>
<path fill-rule="evenodd" clip-rule="evenodd" d="M195.353 194.384C194.883 194.389 194.412 194.395 193.947 194.399C194.42 194.395 194.887 194.389 195.353 194.384Z" fill="black"/>
<path fill-rule="evenodd" clip-rule="evenodd" d="M183.393 237.245C183.402 236.62 183.412 235.996 183.421 235.373C183.412 235.998 183.402 236.622 183.393 237.245Z" fill="black"/>
<path fill-rule="evenodd" clip-rule="evenodd" d="M237.047 212.28C237.67 212.22 238.297 212.159 238.92 212.098C238.295 212.159 237.67 212.22 237.047 212.28Z" fill="black"/>
<path fill-rule="evenodd" clip-rule="evenodd" d="M279.855 201.183C279.894 200.558 279.93 199.931 279.968 199.31C279.93 199.935 279.894 200.558 279.855 201.183Z" fill="black"/>
<path fill-rule="evenodd" clip-rule="evenodd" d="M224.396 196.74C223.928 196.737 223.457 196.731 222.992 196.727C223.463 196.731 223.931 196.737 224.396 196.74Z" fill="black"/>
<path fill-rule="evenodd" clip-rule="evenodd" d="M183.44 272.37C183.417 271.902 183.394 271.433 183.371 270.966C183.394 271.435 183.417 271.904 183.44 272.37Z" fill="black"/>
<path fill-rule="evenodd" clip-rule="evenodd" d="M235.963 248.486C236.988 251.023 236.413 249.227 236.439 249.812C235.567 249.93 235.407 249.488 235.963 248.486Z" fill="black"/>
<path fill-rule="evenodd" clip-rule="evenodd" d="M193.008 194.418C192.539 194.401 192.068 194.384 191.604 194.367C192.076 194.384 192.541 194.401 193.008 194.418Z" fill="black"/>
<path fill-rule="evenodd" clip-rule="evenodd" d="M288.766 146.854C288.796 146.23 288.825 145.605 288.855 144.982C288.825 145.607 288.794 146.231 288.766 146.854Z" fill="black"/>
<path fill-rule="evenodd" clip-rule="evenodd" d="M183.408 267.687C183.406 267.063 183.404 266.44 183.402 265.815C183.404 266.441 183.406 267.064 183.408 267.687Z" fill="black"/>
<path fill-rule="evenodd" clip-rule="evenodd" d="M183.357 253.637C183.39 253.168 183.422 252.7 183.455 252.233C183.422 252.702 183.39 253.17 183.357 253.637Z" fill="black"/>
<path fill-rule="evenodd" clip-rule="evenodd" d="M280.783 192.284C280.827 191.816 280.871 191.347 280.915 190.878C280.871 191.349 280.827 191.817 280.783 192.284Z" fill="black"/>
<path fill-rule="evenodd" clip-rule="evenodd" d="M177.254 255.043C177.296 255.512 177.338 255.98 177.38 256.447C177.336 255.978 177.296 255.512 177.254 255.043Z" fill="black"/>
<path fill-rule="evenodd" clip-rule="evenodd" d="M176.309 251.296C176.356 251.764 176.402 252.233 176.448 252.7C176.402 252.231 176.356 251.762 176.309 251.296Z" fill="black"/>
<path fill-rule="evenodd" clip-rule="evenodd" d="M270.02 187.133C270.054 186.664 270.09 186.195 270.124 185.727C270.088 186.197 270.054 186.664 270.02 187.133Z" fill="black"/>
<path fill-rule="evenodd" clip-rule="evenodd" d="M30.918 250.667C31.5429 250.617 32.1677 250.568 32.7926 250.52C32.1658 250.568 31.5429 250.617 30.918 250.667Z" fill="black"/>
<path fill-rule="evenodd" clip-rule="evenodd" d="M265.883 262.067C265.864 262.538 265.845 263.007 265.828 263.473C265.847 263.003 265.864 262.536 265.883 262.067Z" fill="black"/>
<path fill-rule="evenodd" clip-rule="evenodd" d="M273.301 263.473C273.337 263.005 273.371 262.536 273.406 262.067C273.371 262.538 273.337 263.005 273.301 263.473Z" fill="black"/>
<path fill-rule="evenodd" clip-rule="evenodd" d="M270.467 185.258C270.514 184.789 270.566 184.323 270.613 183.854C270.564 184.323 270.514 184.791 270.467 185.258Z" fill="black"/>
<path fill-rule="evenodd" clip-rule="evenodd" d="M34.668 250.217C35.2929 250.156 35.9177 250.094 36.5407 250.033C35.9177 250.094 35.2909 250.156 34.668 250.217Z" fill="black"/>
<path fill-rule="evenodd" clip-rule="evenodd" d="M233.299 196.26C232.984 196.264 232.67 196.268 232.361 196.27C232.676 196.268 232.986 196.264 233.299 196.26Z" fill="black"/>
<path fill-rule="evenodd" clip-rule="evenodd" d="M183.408 249.423C183.406 248.952 183.404 248.484 183.402 248.017C183.404 248.488 183.406 248.954 183.408 249.423Z" fill="black"/>
<path fill-rule="evenodd" clip-rule="evenodd" d="M274.326 248.486C274.16 248.002 274.078 247.524 274.398 247.08C274.373 247.55 274.35 248.017 274.326 248.486Z" fill="black"/>
<path fill-rule="evenodd" clip-rule="evenodd" d="M266.345 239.587C266.331 240.055 266.318 240.526 266.305 240.993C266.318 240.522 266.331 240.055 266.345 239.587Z" fill="black"/>
<path fill-rule="evenodd" clip-rule="evenodd" d="M266.75 285.954C266.78 286.423 266.809 286.891 266.838 287.358C266.809 286.889 266.78 286.421 266.75 285.954Z" fill="black"/>
<path fill-rule="evenodd" clip-rule="evenodd" d="M301.225 115.61C301.693 115.677 302.162 115.744 302.629 115.81C302.16 115.743 301.693 115.676 301.225 115.61Z" fill="black"/>
<path fill-rule="evenodd" clip-rule="evenodd" d="M299.352 115.654C299.98 115.691 300.672 115.389 301.226 115.832L299.352 115.654Z" fill="black"/>
<path fill-rule="evenodd" clip-rule="evenodd" d="M219.246 214.536C219.869 214.532 220.496 214.529 221.119 214.527C220.494 214.529 219.869 214.532 219.246 214.536Z" fill="black"/>
<path fill-rule="evenodd" clip-rule="evenodd" d="M233.299 115.16L235.172 115.323C234.547 115.268 233.922 115.215 233.299 115.16Z" fill="black"/>
<path fill-rule="evenodd" clip-rule="evenodd" d="M202.379 214.409C203.004 214.41 203.629 214.414 204.254 214.416C203.627 214.719 203.002 214.748 202.379 214.409Z" fill="black"/>
<path fill-rule="evenodd" clip-rule="evenodd" d="M185.331 292.978C185.295 292.509 185.261 292.041 185.225 291.574C185.261 292.043 185.295 292.511 185.331 292.978Z" fill="black"/>
<path fill-rule="evenodd" clip-rule="evenodd" d="M253.668 115.944C253.674 115.475 253.681 115.007 253.689 114.539C253.681 115.009 253.674 115.477 253.668 115.944Z" fill="black"/>
<path fill-rule="evenodd" clip-rule="evenodd" d="M214.092 214.607C214.717 214.557 215.342 214.506 215.965 214.456C215.34 214.506 214.717 214.557 214.092 214.607Z" fill="black"/>
<path fill-rule="evenodd" clip-rule="evenodd" d="M267.246 297.194C267.256 297.663 267.267 298.131 267.277 298.598C267.267 298.13 267.256 297.661 267.246 297.194Z" fill="black"/>
<path fill-rule="evenodd" clip-rule="evenodd" d="M277.035 223.664C277.079 223.195 277.123 222.726 277.165 222.258C277.121 222.728 277.079 223.195 277.035 223.664Z" fill="black"/>
<path fill-rule="evenodd" clip-rule="evenodd" d="M298.598 98.6154C298.634 98.1463 298.67 97.6777 298.706 97.2103C298.67 97.6794 298.634 98.1475 298.598 98.6154Z" fill="black"/>
<path fill-rule="evenodd" clip-rule="evenodd" d="M254.133 58.3378C254.142 58.8065 254.15 59.2759 254.16 59.7429C254.15 59.2731 254.142 58.8053 254.133 58.3378Z" fill="black"/>
<path fill-rule="evenodd" clip-rule="evenodd" d="M237.516 49.5954C238.139 49.6474 238.765 49.6998 239.388 49.7512C238.764 49.6994 238.139 49.6474 237.516 49.5954Z" fill="black"/>
<path fill-rule="evenodd" clip-rule="evenodd" d="M238.451 44.9902C238.139 44.9897 237.824 44.9893 237.516 44.9893C237.83 44.9902 238.141 44.9902 238.451 44.9902Z" fill="black"/>
<path fill-rule="evenodd" clip-rule="evenodd" d="M123.207 321.885C123.834 321.563 124.457 321.654 125.082 321.887C124.457 321.887 123.832 321.885 123.207 321.885Z" fill="black"/>
<path fill-rule="evenodd" clip-rule="evenodd" d="M366.343 286.634C365.717 286.647 365.09 286.663 364.469 286.678C365.097 286.663 365.72 286.647 366.343 286.634Z" fill="black"/>
<path fill-rule="evenodd" clip-rule="evenodd" d="M356.975 277.346C357.756 277.286 358.535 277.226 359.316 277.167C358.588 277.625 357.756 277.286 356.975 277.346Z" fill="black"/>
<path fill-rule="evenodd" clip-rule="evenodd" d="M348.074 278.31C348.855 278.253 349.635 278.198 350.416 278.141C349.636 278.198 348.855 278.253 348.074 278.31Z" fill="black"/>
<path fill-rule="evenodd" clip-rule="evenodd" d="M338.236 286.729C338.861 286.682 339.484 286.63 340.109 286.581C339.484 286.63 338.861 286.68 338.236 286.729Z" fill="black"/>
<path fill-rule="evenodd" clip-rule="evenodd" d="M343.857 270.259C343.387 270.263 342.916 270.267 342.451 270.269C342.924 270.265 343.39 270.261 343.857 270.259Z" fill="black"/>
<path fill-rule="evenodd" clip-rule="evenodd" d="M355.568 296.061C356.193 296.009 356.818 295.956 357.443 295.902C356.86 296.312 356.201 296.078 355.568 296.061Z" fill="black"/>
<path fill-rule="evenodd" clip-rule="evenodd" d="M335.424 251.063C334.953 251.061 334.484 251.061 334.02 251.061C334.492 251.061 334.957 251.061 335.424 251.063Z" fill="black"/>
<path fill-rule="evenodd" clip-rule="evenodd" d="M330.738 251.997C330.426 251.999 330.111 251.999 329.803 252.001C330.117 251.999 330.428 251.997 330.738 251.997Z" fill="black"/>
<path fill-rule="evenodd" clip-rule="evenodd" d="M319.498 253.302C319.34 253.687 318.513 253.637 318.563 253.241C318.875 253.262 319.186 253.281 319.498 253.302Z" fill="black"/>
<path fill-rule="evenodd" clip-rule="evenodd" d="M297.686 255.043C297.705 255.512 297.724 255.98 297.743 256.447C297.722 255.978 297.705 255.51 297.686 255.043Z" fill="black"/>
<path fill-rule="evenodd" clip-rule="evenodd" d="M361.656 257.525C362.123 257.518 362.594 257.51 363.06 257.503C362.599 257.832 362.129 257.786 361.656 257.525Z" fill="black"/>
<path fill-rule="evenodd" clip-rule="evenodd" d="M343.857 250.587C343.543 250.591 343.229 250.596 342.92 250.6C343.234 250.596 343.545 250.591 343.857 250.587Z" fill="black"/>
<path fill-rule="evenodd" clip-rule="evenodd" d="M338.236 297.994C338.861 297.766 339.488 297.688 340.109 298C339.484 297.998 338.861 297.996 338.236 297.994Z" fill="black"/>
<path fill-rule="evenodd" clip-rule="evenodd" d="M337.241 233.437L336.361 233.132C337.455 233.119 338.548 233.105 339.64 233.092C339.644 233.092 337.369 233.446 337.241 233.437Z" fill="black"/>
<path fill-rule="evenodd" clip-rule="evenodd" d="M328.867 225.304C328.084 225.302 327.301 225.302 326.523 225.302C327.308 225.302 328.088 225.304 328.867 225.304Z" fill="black"/>
<path fill-rule="evenodd" clip-rule="evenodd" d="M299.352 243.206C300.131 242.894 300.912 242.955 301.695 243.197C300.914 243.201 300.133 243.203 299.352 243.206Z" fill="black"/>
<path fill-rule="evenodd" clip-rule="evenodd" d="M346.668 235.597C346.197 235.603 345.727 235.609 345.262 235.615C345.734 235.609 346.201 235.603 346.668 235.597Z" fill="black"/>
<path fill-rule="evenodd" clip-rule="evenodd" d="M319.027 237.958C318.713 237.952 318.4 237.945 318.09 237.939C318.404 237.945 318.717 237.952 319.027 237.958Z" fill="black"/>
<path fill-rule="evenodd" clip-rule="evenodd" d="M328.865 233.294C328.551 233.273 328.238 233.254 327.928 233.235C328.242 233.254 328.553 233.273 328.865 233.294Z" fill="black"/>
<path fill-rule="evenodd" clip-rule="evenodd" d="M322.775 233.277C322.461 233.269 322.148 233.26 321.838 233.252C322.154 233.26 322.465 233.269 322.775 233.277Z" fill="black"/>
<path fill-rule="evenodd" clip-rule="evenodd" d="M339.639 232.843C339.639 232.963 341.05 232.347 341.045 232.921L339.639 232.843Z" fill="black"/>
<path fill-rule="evenodd" clip-rule="evenodd" d="M334.488 225.302C334.174 225.302 333.859 225.302 333.551 225.304C333.865 225.302 334.176 225.302 334.488 225.302Z" fill="black"/>
<path fill-rule="evenodd" clip-rule="evenodd" d="M168.184 203.092C168.69 201.023 168.551 199.404 170.359 200.726C171.35 201.452 172.985 205.134 172.861 206.38C172.708 207.92 172.007 208.533 170.557 208.043C168.892 207.48 168.233 204.641 168.184 203.092Z" fill="black"/>
<path fill-rule="evenodd" clip-rule="evenodd" d="M259.453 190.528C263.648 190.528 261.817 194.991 258.321 195.09C256.713 195.136 254.402 194.82 254.922 192.669C255.2 191.522 259.277 189.973 259.453 190.528Z" fill="black"/>
<path fill-rule="evenodd" clip-rule="evenodd" d="M214.455 199.31C217.484 200.774 213.222 207.207 210.471 205.614C206.947 203.576 213.209 200.227 214.455 199.31Z" fill="black"/>
<path fill-rule="evenodd" clip-rule="evenodd" d="M207.084 205.397C208.075 206.479 212.542 210.145 210.081 211.618C207.052 213.429 204.748 207.447 207.084 205.397Z" fill="black"/>
<path fill-rule="evenodd" clip-rule="evenodd" d="M156.318 202.587C155.333 200.682 156.687 195.698 159.697 196.609C162.725 197.527 157.983 202.082 156.318 202.587Z" fill="black"/>
<path fill-rule="evenodd" clip-rule="evenodd" d="M223.151 203.685C225.115 202.896 224.742 205.233 225.039 205.988C225.374 206.845 227.104 208.933 226.672 209.846C226.028 211.2 224.488 210.337 223.652 209.457C222.187 207.916 222.292 205.445 223.151 203.685Z" fill="black"/>
<path fill-rule="evenodd" clip-rule="evenodd" d="M193.217 205.854C191.578 205.854 187.671 201.135 189.966 200.343C192.817 199.36 195.2 206.201 193.217 205.854Z" fill="black"/>
<path fill-rule="evenodd" clip-rule="evenodd" d="M249.794 198.373C251.293 198.743 253.278 202.987 251.019 203.479C248.517 204.024 248.07 199.547 249.794 198.373Z" fill="black"/>
<path fill-rule="evenodd" clip-rule="evenodd" d="M240.701 206.335C239.524 204.071 239.234 199.225 242.105 203.115C242.728 203.957 243.37 203.616 243.05 205.007C242.77 206.22 241.656 206.335 240.701 206.335Z" fill="black"/>
<path fill-rule="evenodd" clip-rule="evenodd" d="M178.761 194.626C179.959 196.43 179.607 202.086 177.101 198.741C176.036 197.318 176.77 194.694 178.761 194.626Z" fill="black"/>
<path fill-rule="evenodd" clip-rule="evenodd" d="M239.007 24.6629C241.331 24.0626 241.889 29.5437 240.533 30.1478C238.634 30.9933 238.872 25.5797 239.007 24.6629Z" fill="black"/>
<path fill-rule="evenodd" clip-rule="evenodd" d="M386.091 303.117C383.933 302.991 380.909 302.403 384.178 300.871C386.253 299.901 389.335 299.835 391.526 300.233C393.035 300.507 395.3 301.757 392.997 303.38C391.648 304.329 387.729 303.165 386.091 303.117Z" fill="black"/>
<path fill-rule="evenodd" clip-rule="evenodd" d="M383.676 307.028C383.051 306.958 382.428 306.887 381.805 306.819C382.306 305.91 383.759 305.72 383.676 307.028Z" fill="black"/>
<path fill-rule="evenodd" clip-rule="evenodd" d="M386.486 303.028C387.113 303.041 387.74 303.056 388.361 303.068C387.732 303.054 387.109 303.041 386.486 303.028Z" fill="black"/>
</svg>
