<svg width="328" height="380" viewBox="0 0 328 380" fill="none" xmlns="http://www.w3.org/2000/svg">
<path fill-rule="evenodd" clip-rule="evenodd" d="M86.7014 85.449C86.3118 91.8126 85.9222 98.1752 85.5332 104.539C88.0379 103.818 103.97 99.1299 102.986 103.883C102.28 107.292 97.8008 110.98 95.5185 113.353C93.4182 115.538 91.2551 117.667 89.0373 119.733C93.1136 118.172 97.2242 116.694 101.364 115.312C104.497 114.266 107.653 113.245 110.863 112.461C112.054 112.17 115.271 110.981 116.397 111.791C119.355 113.92 103.306 129.599 101.107 131.81C104.216 130.364 107.399 129.05 110.636 127.924C112.974 127.11 120.195 124.001 122.263 126.656C124.477 129.497 118.993 136.02 117.471 138.088C115.292 141.052 112.93 143.895 110.452 146.614C120.752 155.865 132.856 164.099 145.737 169.217C155.181 172.97 164.459 173.925 174.425 171.865C184.664 169.75 194.483 165.692 203.817 161.053C209.299 158.328 214.708 155.38 219.862 152.068C217.737 149.483 215.675 146.845 213.67 144.167C210.81 140.342 207.295 136.164 205.664 131.611C204.068 127.156 210.056 128.026 212.928 128.268C217.088 128.618 221.237 129.362 225.313 130.251C222.431 128.246 219.6 126.162 216.827 124.009C213.213 121.203 208.392 118.032 206.026 113.995C203.946 110.447 208.511 111.343 210.623 111.808C215.656 112.917 220.554 114.806 225.355 116.649C228.871 117.999 232.366 119.413 235.826 120.902C233.678 119.034 231.602 117.077 229.607 115.049C226.925 112.322 223.309 108.992 222.106 105.237C219.658 97.5903 236.129 103.358 238.941 104.539C238.421 96.6174 237.902 88.6959 237.383 80.7745C215.574 86.5775 193.764 92.3816 171.955 98.1851C169.598 98.8126 166.648 100.178 164.19 100.251C161.964 100.318 159.275 99.3153 157.104 98.9009L117.637 91.3601C107.325 89.3896 97.0134 87.4196 86.7014 85.449Z" fill="#FDC144"/>
<path fill-rule="evenodd" clip-rule="evenodd" d="M321.105 357.91C318.75 359.257 315.992 360.297 313.377 360.995C311.84 361.405 309.302 362.672 307.952 361.511C307.304 360.954 307.156 359.688 306.774 358.955C306.169 357.793 305.309 356.791 304.503 355.764C302.55 353.277 300.518 350.877 298.392 348.537C297.384 347.428 295.544 344.839 293.769 345.01C291.556 345.222 291.609 348.285 292.163 349.85C293.929 354.832 299.274 359.174 302.765 362.927C301.877 364.294 297.002 364.131 295.649 363.811C293.582 363.324 293.373 361.852 292.43 360.168C290.223 356.234 285.747 354.033 282.068 351.72C280.727 350.876 277.876 348.539 276.128 349.127C274.471 349.685 274.543 351.801 275.071 353.183C275.868 355.271 278.135 356.72 279.812 358.04C282.048 359.8 284.092 361.714 285.955 363.868C283.27 364.087 280.594 364.466 277.915 364.687C274.676 364.954 271.976 363.176 268.993 362.168C266.222 361.232 263.46 360.44 260.735 359.362C257.676 358.15 254.471 357.728 251.385 356.665C239.273 352.493 227.405 347.247 215.733 341.958C210.172 339.438 204.725 336.917 198.93 334.944C194.707 333.506 188.07 330.642 187.061 325.611C186.527 322.953 188.469 320.095 188.756 317.439C189.091 314.315 188.827 310.878 187.876 307.88C187.036 305.24 185.646 302.794 184.551 300.259C183.274 297.304 184.417 297.352 186.897 297.016C189.864 296.613 193.328 294.942 196.117 293.855C199.33 292.601 202.516 290.848 205.459 289.047C208.121 287.418 210.437 285.318 212.556 283.037C214.712 280.717 216.108 277.968 218.192 275.591C225.884 285.051 233.195 294.655 241.368 303.706C245.226 307.978 249.421 311.51 254.175 314.759C256.16 316.116 258.129 317.665 260.292 318.738C262.996 320.08 266.02 320.913 268.799 322.138C279.457 326.834 289.629 331.967 299.572 338.027C304.382 340.958 308.419 344.318 312.654 347.995C313.973 349.14 324.773 355.811 321.105 357.91ZM196.08 280.411C194.357 281.192 192.716 282.205 190.878 282.706C191.399 279.536 194.357 274.755 198.149 275.281C199.598 275.482 200.691 276.606 200.054 278.158C199.476 279.568 197.307 279.856 196.08 280.411ZM76.1938 194.441C74.2414 195.518 72.422 196.146 71.277 193.833C72.1251 193.662 75.9774 193.149 76.1938 194.441ZM72.943 187.899C71.4337 187.441 72.6406 186.96 73.1598 186.408C73.5643 185.978 74.9036 184.471 75.3721 184.222C77.442 183.125 79.0417 187.205 80.0317 188.529C77.6887 188.321 75.2237 188.591 72.943 187.899ZM89.0767 202.024C86.2166 202.509 86.5339 198.931 86.6194 197.118C87.2226 197.854 91.3066 201.646 89.0767 202.024ZM98.5548 195.844C95.0679 196.432 92.764 190.408 93.3892 187.773C93.9388 185.451 96.6411 184.155 98.7927 183.813C100.877 183.481 103.781 183.934 104.4 186.339C104.947 188.464 100.879 195.452 98.5548 195.844ZM181.093 286.786C178.587 287.556 176.132 287.653 173.614 288.409C170.756 289.267 168.111 289.191 165.248 289.775C164.083 290.011 160.941 291.709 159.805 291.33C158.679 290.954 157.05 287.461 156.403 286.553C161.469 284.447 165.791 281.728 169.13 277.291C171.785 273.763 174.632 268.477 172.962 263.923C171.078 258.789 164.584 257.674 160.254 259.818C158.206 260.832 156.176 262.093 154.487 263.639C152.556 265.406 151.797 267.335 150.546 269.514C149.281 271.718 148.393 270.492 147.129 268.62C146.049 267.021 146.19 265.405 144.84 263.827C144.151 263.021 143.084 262.244 142.725 261.204C142.497 260.544 142.977 259.375 142.545 258.856C141.938 258.126 141.198 258.983 140.689 258.332C140.319 257.859 140.44 256.78 140.058 256.188C139.727 255.852 139.359 255.565 138.951 255.326C138.456 255.082 138.366 254.776 138.68 254.409C138.287 253.681 138.665 253.436 137.824 252.55C136.512 251.171 135.315 249.848 134.381 248.219C133.954 247.474 133.996 246.369 133.466 245.723C132.738 244.837 131.526 244.97 130.9 243.874C130.343 242.896 130.716 241.187 129.796 240.301C129.312 240.162 128.827 240.026 128.342 239.892C127.977 239.538 127.764 239.108 127.703 238.602C127.193 237.815 127.091 236.892 126.447 236.062C125.213 234.473 123.554 233.006 122.464 231.331C121.318 229.572 121.926 229.275 123.916 228.646C125.71 228.077 127.349 227.549 129.013 226.581C136.704 222.105 143.995 210.233 131.787 206.606C127.258 205.259 123.536 201.64 118.513 203.062C116.335 203.679 114.27 204.993 112.645 206.551C111.523 207.628 110.483 210.51 109.105 211.062C106.628 212.054 107.675 209.575 106.972 208.436C106.636 207.893 105.284 207.266 104.783 206.771C104.196 206.191 103.627 205.459 103.219 204.742C102.461 203.41 101.998 202.668 100.905 201.583C100.493 201.174 98.4368 199.059 100.291 199.335C99.5404 197.046 100.636 196.702 102.152 195.029C103.931 193.066 105.768 190.336 105.778 187.584C105.799 182.3 99.5377 179.933 95.6053 183.069C94.8052 183.708 90.0727 189.868 91.0412 185.939C91.5632 183.82 96.3972 178.289 98.6382 179.72C96.1268 176.06 90.3575 184.947 89.011 186.766C87.8643 184.655 87.7832 183.004 85.886 181.369C84.3415 183.846 85.1571 181.139 84.8166 180.588C84.081 179.4 84.4849 180.759 84.086 180.337C83.5893 179.811 82.8074 179.397 82.2787 178.7C81.3732 179.929 81.7352 178.607 81.4576 178.149C80.8092 177.075 81.0598 176.454 79.9484 175.521C79.1394 174.842 77.5457 173.789 76.457 173.693C75.2016 173.581 74.8539 174.062 73.5748 173.706C71.9475 173.254 69.8996 172.559 70.6871 175.28C71.2593 177.258 73.5847 178.383 74.0941 180.403C74.6067 182.437 72.5953 184.487 71.6197 186.155C70.3665 188.294 69.3418 188.119 67.0715 188.602C65.6208 188.91 63.6844 189.57 64.9288 191.33C65.8172 192.588 67.8998 192.323 69.0724 193.068C70.7169 194.112 70.6943 196.687 72.794 197.135C75.1061 197.628 76.4305 195.054 78.3801 194.432C79.7663 193.99 84.0606 194.039 85.1516 195.08C86.6382 196.498 85.3535 199.208 85.7277 200.969C86.2845 203.582 88.0519 203.742 90.2874 203.825C93.0394 203.928 94.0067 206.57 95.4867 208.666C98.9533 213.576 101.966 218.809 105.517 223.653C107.089 225.798 109.389 227.706 110.676 230.034C112.265 232.908 110.059 234.567 108.154 236.63C105.666 239.326 103.809 242.394 101.651 245.341C99.733 247.961 97.3497 247.308 94.2854 247.308C94.968 245.901 95.7896 245.023 97.47 245.193C95.7129 243.048 94.308 245.502 93.1685 246.861C91.5196 248.827 89.3703 249.301 87.2524 250.594C86.503 251.051 82.4222 254.015 83.6622 255.027C83.8029 255.142 90.5583 250.698 91.3276 250.29C91.3276 251.931 90.9689 253.636 91.199 255.267C91.3673 256.463 92.2083 257.711 92.029 258.955C91.6896 261.303 88.6551 263.152 87.3528 264.981C86.3722 266.358 86.6089 267.444 86.1101 268.922C85.6548 270.27 85.8938 269.863 84.7598 270.279C82.4509 271.127 78.5644 270.669 76.4735 269.464C75.1757 268.715 74.1807 267.532 73.1262 266.49C72.3321 265.703 70.3345 264.361 70.1138 263.261C69.7352 261.367 73.4948 257.849 74.2386 255.895C76.34 250.383 72.7366 246.098 67.1289 245.785C68.8572 244.452 70.9994 245.456 72.821 245.965C69.707 241.649 64.388 245.2 61.7464 248.133C59.9414 243.57 59.0712 238.757 57.9686 233.999C57.2176 230.759 54.3586 224.976 55.6338 221.641C56.2502 220.028 57.9907 219.129 59.1942 218.01C60.5622 216.74 61.7337 215.221 62.7336 213.647C65.0894 209.943 66.4502 205.265 63.206 201.614C64.1916 201.452 65.1777 201.29 66.1632 201.128C64.5602 199.621 62.0306 200.355 59.9502 199.909C58.6303 199.625 54.8315 199.809 53.9502 199.062C52.8902 198.163 53.5695 194.03 53.6075 192.807C53.6947 189.948 53.9337 187.199 54.2493 184.358C54.5484 181.674 54.4883 178.773 55.0428 176.136C55.4931 173.996 56.9323 173.344 58.5927 172.083C62.5615 169.067 65.7957 165.399 64.4404 160.202C64.9205 160.126 65.4006 160.05 65.8807 159.974C64.3279 158.851 62.3187 159.259 60.5914 158.665C62.1774 154.201 65.6854 146.353 71.3813 145.93C71.5772 147.926 71.4431 150.3 72.7896 151.952C74.3225 153.832 77.0132 154.022 79.0898 153.027C80.9742 152.123 82.7428 150.209 83.6114 148.317C84.1991 147.036 84.0932 144.871 85.1245 143.855C86.5074 142.494 96.0435 143.316 95.7516 145.613C95.5794 146.964 93.0294 149.235 92.317 150.433C91.0125 152.624 89.9685 154.994 89.4895 157.511C88.7627 161.333 89.1837 166.378 93.0647 168.387C97.4788 170.673 102.858 167.767 106.478 165.256C108.466 163.878 110.391 162.356 112.206 160.758C113.174 159.908 114.146 159.032 114.998 158.065C115.628 157.351 116.131 156.201 116.905 155.666C118.736 154.403 120.53 156.546 122.079 157.628C124.602 159.391 127.112 161.065 129.82 162.532C135.315 165.508 140.34 169.452 145.198 173.367C150.085 177.305 155.125 181.357 159.084 186.263C156.686 187.738 157.113 188.122 156.047 190.752C155.29 192.62 154.247 194.209 154.126 196.284C153.918 199.864 156.217 202.915 159.705 203.707C161.657 204.151 163.515 203.796 165.322 202.998C166.727 202.378 168.127 200.852 169.595 200.473C172.323 199.77 174.507 204.924 176.036 206.739C182.827 214.802 190.007 222.546 196.402 230.938C197.11 231.868 199.215 233.683 199.386 234.914C199.631 236.681 196.851 238.365 195.698 239.379C195.092 239.91 188.671 245.95 190.827 246.91C191.442 247.184 193.241 243.478 193.691 243.161C195.375 241.974 194.101 244.3 194.001 245.476C193.75 248.398 195.757 249.991 198.579 249.62C201.59 249.225 204.27 246.848 206.134 244.603C208.469 247.308 212.119 251.396 212.794 255.009C213.225 257.317 211.228 262.966 214.956 263.437C215.525 263.508 217.585 261.98 217.969 262.848C218.289 263.572 216.063 264.809 215.742 265.049C214.37 266.073 213.541 267.17 212.434 268.411C211.133 269.867 209.356 271.093 207.894 272.489C206.352 273.958 203.304 277.95 201.27 276.021C200.248 275.052 200.517 273.785 198.88 273.217C197.389 272.698 195.5 273.355 194.115 273.93C192.555 274.576 187.418 276.936 186.848 278.879C186.061 281.558 190.307 278.337 191.062 277.866C190.201 280.051 189.725 283.215 187.533 284.49C185.711 285.549 183.091 286.172 181.093 286.786ZM151.974 270.257C153.432 265.572 162.029 257.217 167.463 259.83C161.13 261.157 156.105 265.491 151.974 270.257ZM155.189 283.676C153.07 282.495 153.184 279.065 152.445 277.058C152.02 275.907 151.17 275.065 151.42 273.788C151.712 272.289 153.623 270.624 154.64 269.544C157.841 266.143 163.474 261.496 168.626 262.275C175.183 263.268 170.738 272.072 168.505 275.104C166.602 277.688 159.268 285.949 155.189 283.676ZM139.891 277.945C132.8 277.472 125.732 276.838 118.737 275.536C116.257 275.075 114.18 275.142 115.599 272.291C116.067 271.35 118.892 265.452 119.53 265.621C119.908 265.722 119.822 269.775 119.933 270.24C120.434 272.327 121.84 274.272 124.21 274.139C128.089 273.923 130.589 268.908 132.631 266.216C134.267 268.416 135.452 270.859 137.096 273.022C137.882 274.056 140.619 276.462 139.891 277.945ZM98.3154 250.108C97.1256 252.838 94.7329 255.435 93.0686 257.908C92.1277 255.917 91.4661 251.344 93.6977 249.872C94.5425 249.315 99.0675 248.382 98.3154 250.108ZM122.911 258.238C123.238 257.187 123.601 256.144 124.005 255.121C124.699 257.305 125.054 257.369 122.911 258.238ZM128.981 260.474C129.842 261.933 131.276 263.368 131.051 265.2C130.881 266.589 129.626 268.012 128.73 268.979C127.246 270.579 123.961 273.651 121.812 271.526C120.017 269.751 120.642 264.87 121.477 262.872C122.669 260.018 126.929 256.999 128.981 260.474ZM124.769 257.485C125.263 257.288 124.226 254.104 125.188 253.787C126.027 255.7 126.818 256.218 124.769 257.485ZM111.219 214.628C110.899 213.453 110.166 213.502 110.43 212.05C110.603 211.098 111.359 210.081 111.933 209.326C113.076 207.822 114.583 206.582 116.213 205.643C119.655 203.662 124.381 202.839 127.462 205.941C124.582 206.395 115.751 209.239 115.695 213.179C118.898 212.562 121.417 209.344 124.63 208.33C127.267 207.498 130.126 207.556 132.75 208.436C139.931 210.84 136.945 217.047 132.892 221.078C130.486 223.472 127.601 225.259 124.447 226.492C122.988 227.062 122.092 227.126 120.657 226.839C120.388 226.785 120.074 226.287 119.752 226.18C118.951 225.915 119.184 226.813 118.524 226.41C117.949 226.058 116.722 223.787 116.33 223.137C115.707 222.102 115.417 221.095 114.652 220.151C113.887 219.206 113.514 217.94 112.806 217.084C112.466 216.673 111.534 216.689 111.284 216.288C110.909 215.684 111.387 215.245 111.219 214.628ZM100.19 260.916C101.823 258.081 104.615 255.673 106.775 253.194C106.908 257.268 103.987 260.058 100.19 260.916ZM102.396 262.226C105.767 261.04 107.624 258.202 107.967 254.762C108.404 250.405 111.14 248.117 112.787 244.203C113.419 242.702 114.155 237.765 116.603 239.178C117.443 239.663 117.942 241.486 118.379 242.309C119.438 244.301 120.642 246.233 121.765 248.189C122.68 249.782 124.05 251.384 123.647 253.301C123.295 254.973 122.163 256.754 121.5 258.33C119.934 262.054 117.878 265.483 116.159 269.125C115.466 270.594 114.646 274.072 112.529 274.054C110.853 274.04 111.04 272.208 109.937 271.58C108.545 270.788 106.962 272.296 105.818 272.921C107.135 270.697 109.438 269.438 112.026 269.856C108.927 266.77 106.833 270.935 104.173 271.862C101.653 272.741 97.1819 268.596 95.0602 267.421C95.8719 266.047 96.6053 264.365 98.0014 263.461C99.3252 262.603 100.95 262.735 102.396 262.226ZM74.9935 290.431C75.3627 288.654 76.4057 287.604 77.0667 285.99C77.8332 287.946 76.0382 289.101 74.9935 290.431ZM128.544 301.336C128.363 307.321 127.874 313.29 127.697 319.276C127.616 322.037 127.127 324.67 126.803 327.399C126.529 329.706 126.668 331.973 125.216 333.944C122.926 337.052 118.473 337.946 115.016 339.097C112.478 339.943 109.91 340.71 107.403 341.649C105.148 342.494 103.33 343.775 101.185 344.78C99.2662 345.679 97.1952 346.212 95.2853 347.169C93.3098 348.161 91.7486 349.367 89.7196 350.249C87.2904 351.305 85.289 353.184 83.1286 354.675C81.227 355.988 79.215 357.001 77.5788 358.652C76.0448 360.201 74.1029 360.88 72.3646 362.255C70.5265 363.71 68.6023 364.656 66.5716 365.797C62.4114 368.135 56.7987 372.127 51.792 369.856C53.224 368.027 56.1548 366.27 56.3777 363.75C56.6674 360.467 53.8106 361.676 52.1562 362.724C49.6504 364.311 48.2642 366.228 46.3565 368.344C44.1266 370.817 41.3095 369.153 38.5808 368.458C40.4465 366.778 42.2973 365.083 44.1597 363.4C45.7319 361.98 48.1378 360.445 49.0952 358.481C49.7795 357.076 49.7459 355.152 48.0948 354.423C46.2473 353.608 44.1581 355.327 42.7895 356.351C39.1574 359.068 36.7653 362.515 34.3803 366.297C33.1116 368.308 32.5272 368.154 30.193 367.751C27.7197 367.325 25.2464 366.871 22.7527 366.573C26.056 363.18 29.7477 359.504 32.3567 355.535C33.2021 354.249 34.3047 350.859 31.7293 350.547C30.6681 350.419 28.5552 352.588 27.7368 353.173C24.1594 355.73 20.7198 358.956 18.3492 362.689C17.5661 363.921 17.3206 365.292 15.8047 365.394C13.8231 365.528 10.1413 363.637 8.22979 363.053C11.8829 358.447 15.5106 353.808 19.779 349.747C23.7008 346.015 27.6127 343.303 32.1995 340.442C37.1151 337.373 41.6942 333.841 46.207 330.216C50.5272 326.746 55.0401 323.473 59.0165 319.599C66.9601 311.86 74.035 302.96 79.8938 293.549C81.2645 291.346 82.5552 289.087 83.6705 286.744C84.7184 284.543 85.2012 281.912 86.6156 279.91C87.1039 279.219 87.7926 278.705 88.228 277.984C88.6385 277.304 88.4995 276.483 89.1258 275.881C90.5743 274.491 93.2121 275.329 94.5657 276.304C96.7432 277.871 98.5046 279.774 100.898 281.086C103.305 282.406 105.908 283.365 108.574 284.014C114.803 285.528 120.978 286.771 127.324 287.691C126.671 290.113 128.275 290.494 128.807 292.673C129.452 295.318 128.625 298.643 128.544 301.336ZM68.5637 260.952C67.1515 258.854 65.8912 256.66 64.5028 254.548C63.6574 253.261 62.6095 251.88 63.3324 250.307C64.5491 247.655 68.8429 247.183 71.1727 248.339C76.4697 250.967 71.549 258.483 68.5637 260.952ZM54.5434 212.961C54.0556 208.86 55.6239 205.95 59.3344 203.8C61.9787 202.267 64.1082 204.361 63.7468 207.155C63.1977 211.412 58.649 216.147 55.1775 218.368C54.9507 216.568 54.7581 214.763 54.5434 212.961ZM53.9778 201.226C55.0721 200.357 58.0034 201.466 59.2715 201.542C57.5277 203.065 55.7834 204.589 54.0391 206.113C53.9248 205.067 52.968 202.028 53.9778 201.226ZM59.8625 161.618C68.6873 160.47 58.5287 169.941 55.971 171.425C56.3871 169.41 57.4096 161.937 59.8625 161.618ZM83.3559 145.037C82.1711 149.891 72.959 155.186 72.8624 147.235C72.8271 144.273 74.4908 144.512 76.92 144.228C78.3056 144.066 84.0336 142.262 83.3559 145.037ZM51.536 152.554C50.5019 155.268 49.6725 158.053 48.6588 160.77C48.2096 161.973 47.6815 162.801 46.8449 163.754C46.1446 164.552 45.3114 164.752 45.339 166.013C46.2164 165.843 46.9028 165.32 47.6114 164.816C47.4398 167.315 46.5569 170.003 46.1292 172.493C45.6171 175.479 45.1905 178.466 45.0322 181.494C44.6889 188.078 44.6862 194.638 44.8307 201.226C44.9047 204.583 44.9378 207.942 45.1188 211.295C45.2093 212.963 45.3114 214.639 45.5178 216.296C45.6016 216.966 46.0872 218.39 45.7871 219.018C44.6084 221.481 39.387 214.716 37.1195 215.709C37.4457 213.835 36.6935 214.245 35.437 213.324C34.8283 212.877 34.4321 212.117 33.7975 211.719C33.6055 211.512 33.3941 211.328 33.1635 211.166C32.9014 210.808 32.6244 210.847 32.3335 211.28C29.7786 209.753 29.1186 206.499 27.7473 204.31C27.0421 203.184 26.3606 203.008 26.2403 201.452C26.136 200.095 26.3402 198.713 26.285 197.352C26.2226 195.815 26.1327 194.121 25.7017 192.633C25.2017 190.906 24.5136 191.047 23.1732 190.127C23.586 189.946 23.8586 189.643 23.9905 189.217C23.5623 189.293 22.2616 189.824 21.9382 189.442C21.3025 188.693 22.8024 188.594 23.1964 188.294C21.515 187.548 21.877 186.934 22.484 185.566C22.6556 185.179 22.8195 184.6 22.9658 184.274C23.2847 183.561 23.4685 184.013 23.5739 183.127C23.6737 182.282 22.9249 180.621 22.7042 179.721C22.3345 178.211 22.1297 176.906 22.4619 175.333C22.7312 174.06 23.4558 172.906 23.506 171.597C23.5203 171.229 22.9602 171.107 22.9525 170.752C22.9415 170.233 23.426 170.005 23.5518 169.525C23.8735 168.298 23.7284 167 24.2785 165.836C24.7735 164.789 25.7734 163.436 26.4809 162.523C26.9715 161.891 28.175 161.178 28.3069 160.343C28.3941 159.789 27.5327 159.853 27.5707 159.436C27.6232 158.872 28.0966 158.689 28.2263 158.27C28.5844 157.118 28.6744 156.013 29.5998 155.13C30.7658 154.021 31.2718 154.485 31.3204 152.654C31.3436 151.761 30.629 151.623 31.0119 150.593C31.22 150.034 31.8336 149.704 32.2259 149.307C33.3914 148.132 34.1772 147.088 35.0071 145.635C35.7411 144.351 36.9115 143.605 37.6636 142.497C38.6426 141.052 37.1786 140.336 39.1657 139.928C38.8832 139.031 38.583 138.306 39.3263 137.547C39.7953 137.068 40.9845 137.361 41.3995 136.807C41.8752 136.171 41.1721 134.664 41.889 134.251C42.4717 133.916 43.3441 134.949 44.2602 134.438C44.9577 134.048 46.0117 131.895 45.7871 131.103C47.5915 132.119 47.1418 131.419 48.0054 130.117C48.1991 129.825 48.7857 129.761 48.9523 129.465C49.2856 128.877 49.2095 128.276 49.6901 127.797C50.4903 127 51.7998 127.205 52.6805 126.636C53.4083 126.165 53.3697 125.658 53.9502 125.215C54.4463 124.836 55.2614 124.763 55.7436 124.37C56.6884 123.6 56.6978 122.788 57.8798 122.124C59.2798 121.34 60.5197 120.673 61.7933 119.632C62.6233 118.955 63.4113 117.752 64.3825 117.305C65.7256 116.687 66.7719 116.643 68.0858 115.76C69.0355 115.122 69.9333 114.069 70.8653 113.531C71.5689 113.126 72.0622 113.214 72.9485 112.962C74.5438 112.51 74.9323 111.007 76.2335 110.395C77.1269 109.975 78.4276 110.359 79.4087 110.139C82.4614 109.453 85.4771 107.975 88.5409 107.156C92.28 106.157 96.0463 105.282 99.8141 104.399C96.3514 109.092 91.9412 113.327 87.4681 117.054C85.9997 118.278 77.9541 123.856 82.2909 126.238C84.0319 127.194 87.8136 124.106 89.2191 123.351C92.0494 121.831 94.9807 120.614 97.9451 119.385C102.738 117.396 108.981 113.86 114.307 114.145C111.065 118.123 107.017 121.317 103.308 124.831C99.9002 128.06 94.7649 131.089 96.3718 136.376C91.5847 135.158 87.2849 133.718 82.3074 134.037C80.0781 134.18 77.847 133.911 75.6276 134.224C73.2145 134.565 70.942 135.373 68.6227 136.082C66.7879 136.642 64.7605 136.686 63.0725 137.618C62.2569 138.069 61.2481 138.712 60.5153 139.271C59.538 140.017 59.3162 140.511 58.5486 141.493C55.8115 144.998 53.1628 148.284 51.536 152.554ZM36.5633 218.894C36.4137 218.287 36.278 217.734 36.1064 217.041C37.63 217.979 37.63 217.979 36.5633 218.894ZM25.0483 199.573C24.8607 199.832 24.0716 199.915 23.8426 199.691C23.5573 199.413 24.3072 198.327 24.4275 198.097C24.725 198.325 25.4092 199.072 25.0483 199.573ZM21.7865 192.541C21.9879 191.8 22.1904 191.059 22.3919 190.319C22.6396 191.005 23.7565 191.764 23.7814 192.418C23.7968 192.852 22.0072 192.636 21.7865 192.541ZM22.4338 193.557C24.182 194.708 24.3652 196.066 24.417 198.052C22.3251 197.359 22.6253 195.334 22.4338 193.557ZM52.8366 115.164C52.6606 115.642 51.9112 117.13 51.3627 116.09C51.1872 115.756 52.4719 115.302 52.8366 115.164ZM52.335 113.542C52.7671 113.153 53.6379 113.637 54.1268 113.323C54.4695 113.102 54.3558 112.878 54.5169 112.747C54.549 112.721 55.0147 111.778 55.2056 111.564C55.5428 111.188 56.2778 110.954 56.6873 110.614C57.8323 109.665 58.4785 108.417 59.1992 107.148C60.0584 105.633 60.3326 105.457 61.7188 104.763C62.6746 104.284 63.4151 103.699 64.1927 102.886C65.0888 101.95 65.0231 101.279 65.7587 100.256C66.1224 99.7501 66.6455 99.6877 67.0688 99.2805C67.5765 98.7932 67.8342 98.1112 68.3038 97.6195C68.5063 97.4065 69.1574 97.4071 69.2799 97.2249C69.4367 96.9943 69.5586 96.0722 69.7054 95.9022C69.9852 96.2808 70.2661 96.6593 70.5458 97.0379C71.6506 95.0949 72.4568 93.4896 74.3043 92.1967C76.2445 90.8387 77.9193 88.8521 79.9247 87.6364C80.3755 87.3633 81.2937 87.2479 81.6381 86.8456C82.2203 86.1641 81.7159 85.5582 82.1408 84.9794C82.6225 84.3233 83.5562 84.8547 84.1688 84.5716C84.9441 84.214 85.1659 83.1683 86.1636 83.2836C82.8819 87.1668 82.9227 93.2082 82.7489 98.0582C82.6733 100.148 83.9894 101.201 82.0464 102.734C80.3937 104.039 78.0634 103.652 76.1093 104.511C73.6554 105.589 71.0309 106.162 68.5278 107.102C65.9381 108.074 63.856 109.775 61.364 110.901C59.1661 111.893 57.6657 113.303 55.6554 114.529C54.9082 114.984 53.751 115.645 52.8598 115.101C52.3019 114.76 51.6066 114.199 52.335 113.542ZM89.4039 80.9847C89.5463 80.4329 92.3479 78.9832 93.0371 78.5103C94.0713 77.799 95.6026 76.063 96.757 76.7528C97.1571 75.1503 98.7182 73.3673 100.097 73.0279C101.627 72.6505 104.252 71.3388 105.757 70.1932C106.197 69.8588 106.342 69.3699 106.859 69.0559C107.76 68.5096 108.654 68.8076 109.522 68.0631C109.654 67.9495 110.855 65.9668 110.903 65.9855C110.964 66.1985 111.02 66.4137 111.069 66.6301C111.98 66.1246 112.791 65.7223 113.359 65.0778C113.488 64.9315 112.653 64.5513 112.917 64.2622C113.239 63.9073 113.96 64.3036 114.286 63.967C113.271 69.0024 114.026 75.483 119.135 78.0352C113.06 78.6919 107.127 76.8653 100.977 77.9872C98.0339 78.5247 95.0414 79.4059 92.3639 80.7601C90.7233 81.5901 88.6253 84.5616 86.9924 83.1186C87.6403 82.2545 88.6292 81.7175 89.4039 80.9847ZM118.878 66.4998C121.15 63.7214 124.596 62.6216 128.065 63.6165C132.128 64.782 130.415 67.6206 129.801 70.7726C128.629 69.0537 126.089 67.3491 123.927 67.2972C120.861 67.2244 122.02 69.7788 123.86 70.6937C125.534 71.5253 128.405 71.7571 129.603 73.2696C130.769 74.7408 130.322 77.1473 130.51 78.8823C129.603 78.7476 128.697 78.613 127.79 78.4783C128.551 74.4285 125.202 74.232 122.08 73.0903C118.924 71.937 116.293 69.6618 118.878 66.4998ZM129.053 56.5272V60.2857C127.791 59.565 126.527 58.8455 125.263 58.1253C126.527 57.5928 127.791 57.0597 129.053 56.5272ZM139.207 86.5587C143.425 87.7015 147.614 88.9111 151.669 90.4883C153.141 91.0611 154.754 91.2636 156.197 91.9103C157.571 92.5256 157.777 92.4616 157.288 93.6657C155.919 97.0395 152.676 96.4568 149.835 95.9408C145.387 95.133 141.032 94.0128 136.64 92.9588C132.346 91.9296 127.963 91.2542 123.735 89.964C119.396 88.6407 115.168 87.387 110.704 86.5129C109.402 86.258 99.0984 85.3127 99.1768 84.2355C105.666 83.3929 112.347 84.2234 118.865 84.3111C125.638 84.4022 132.637 84.778 139.207 86.5587ZM133.482 73.5086C133.562 71.1887 133.595 68.8616 133.883 66.5556C135.813 68.9383 137.556 69.6519 139.989 67.4181C142.319 65.2803 142.839 64.1656 145.793 66.1754C148.353 67.9191 150.776 67.8386 153.496 66.3128C155.155 65.3818 157.82 61.5786 159.564 62.3617C160.395 62.7347 161.004 64.239 161.843 64.7925C162.896 65.4856 164.514 65.9668 165.741 66.2361C168.639 66.8707 170.365 65.0071 172.184 63.0134C174.822 60.1229 174.744 61.8016 177.19 63.8058C179.917 66.0418 182.198 64.9498 184.668 63.0415C186.172 67.4501 186.735 72.2642 187.16 76.8857C187.303 78.4463 187.839 80.6619 186.438 81.7655C185.45 82.5436 183.353 82.574 182.163 83.0038C177.911 84.5412 173.826 86.7226 170.27 89.5143C168.884 90.6025 167.676 91.9346 165.783 91.6868C163.978 91.4506 162.225 89.9403 160.774 88.9426C159.199 87.861 157.605 86.6327 155.765 86.0301C154.687 85.6769 152.96 85.8049 152.017 85.1571C150.264 83.9535 152.328 80.796 151.89 78.6764C151.56 77.0673 150.634 73.7122 148.418 74.6553C145.12 76.0586 147.039 81.5371 148.853 83.2472C145.142 82.5883 141.034 81.6259 137.456 80.4031C134.692 79.4589 133.382 76.3378 133.482 73.5086ZM195.709 84.8072C203.326 82.6683 210.452 81.2264 218.379 80.8368C221.888 80.6641 225.284 80.7734 228.754 80.8048C230.751 80.823 232.273 79.2122 230.678 77.3592C228.47 74.7938 221.733 75.7705 218.748 75.6552C210.748 75.3462 203.412 76.2556 195.835 78.8927C196.636 77.4166 198.561 77.2251 199.881 76.4619C201.499 75.5249 202.599 73.9815 203.29 72.2686C205.089 67.8137 203.279 63.616 201.397 59.5468C205.093 60.5412 208.917 62.7187 212.633 63.2716C213.412 63.3875 213.912 63.313 214.601 63.5967C215.024 63.7705 215.158 64.372 215.682 64.5033C215.935 64.5668 216.543 63.9945 216.83 64.0757C217.962 64.3957 217.067 64.4807 217.783 64.9437C218.351 65.3112 218.304 65.7847 219.346 65.6108C219.808 65.5347 220.309 64.8201 220.552 64.8002C220.863 64.7754 220.791 64.3979 221.265 64.5077C222.129 64.7086 222.052 65.8205 222.34 66.3679C222.647 66.9501 222.211 67.7249 223.142 68.0438C223.838 68.2828 224.013 67.5472 224.605 67.6002C224.964 67.6322 225.71 68.1498 226.028 68.4654C227.05 69.4819 228.451 70.6038 229.826 71.2648C229.691 71.1291 230.474 70.8019 230.287 70.7252C230.161 70.6738 230.984 70.8725 230.971 70.8692C231.765 71.0502 232.185 72.2692 232.586 72.714C233.324 73.5284 234.471 74.3887 235.505 74.7485C237.293 75.3704 237.239 74.6266 237.891 76.7522C239.163 74.7529 239.651 78.1009 241.227 78.4695C242.044 78.6604 241.949 78.3106 242.691 78.7382C243.201 79.0312 243.54 79.9285 243.924 80.3617C244.089 79.737 244.253 79.1118 244.418 78.4877C245.554 80.6398 248.005 84.0518 250.694 83.4348C250.694 84.022 250.452 84.7239 250.906 85.2249C251.224 85.5753 251.738 85.1775 251.986 85.3811C252.203 85.5588 252.722 86.2662 252.888 86.3827C253.215 86.6122 253.809 86.7794 254.093 87.0084C254.344 87.2099 254.468 88.1717 254.745 88.5188C255.267 89.1721 256.17 89.3018 256.597 90.0849C256.694 89.3129 256.791 88.5398 256.889 87.7672C257.736 88.4217 257.808 88.9293 258.016 89.8868C258.312 91.2498 257.919 90.9303 258.86 91.5058C259.783 92.0714 260.265 92.008 261.112 92.9897C261.942 93.9521 261.95 94.5447 263.148 93.5426C263.371 94.2843 263.443 95.2433 264.037 95.8117C264.487 96.241 266.347 96.2598 266.525 97.2741C263.029 94.3245 265.329 98.8043 266.527 97.2818C266.78 98.9113 267.972 99.4378 269.334 100.598C270.605 101.68 270.813 101.601 271.247 103.419C271.237 103.379 271.885 103.781 271.932 103.861C270.694 104.038 272.613 105.421 272.937 105.673C273.174 105.858 273.483 105.417 273.875 105.716C274.325 106.058 274.692 106.835 275.057 107.303C276.05 108.574 276.784 109.665 277.828 110.698C278.954 111.812 279.502 113.222 280.583 114.525C281.784 115.972 282.433 117.635 283.436 119.206C284.39 120.7 285.657 121.899 286.762 123.267C288.523 125.443 289.122 130.237 292.404 130.364C292.212 130.562 292.48 132.048 292.511 132.323C292.666 133.672 292.563 134.97 293.362 136.192C293.544 134.798 294.274 135.336 294.907 136.068C295.961 137.286 295.036 136.98 295.091 138.215C295.159 139.711 295.329 138.553 295.899 139.86C296.346 140.884 296.59 141.548 296.83 142.684C294.976 142.831 294.126 141.316 293.441 139.847C293.155 139.233 293.055 138.224 292.548 137.744C292.008 137.233 291.267 137.193 290.712 136.623C289.648 135.528 289.186 133.82 287.932 132.754C286.514 131.55 286.2 130.981 285.028 129.541C283.732 127.948 281.941 126.83 280.582 125.29C279.22 123.746 279.33 124.589 277.62 124.03C275.8 123.436 272.858 117.715 270.566 119.919C270.657 118.477 268.498 117.122 267.407 116.6C266.936 116.374 266.387 116.578 265.915 116.24C265.403 115.873 265.366 115.165 264.85 114.724C264.85 114.724 264.058 114.917 263.898 114.836C263.571 114.67 263.568 114.084 263.28 113.891C262.481 113.358 261.529 112.798 260.681 112.343C258.621 111.238 256.8 109.877 254.812 108.547C253.108 107.407 251.046 105.348 249.077 104.747C247.358 104.222 246.277 104.489 244.869 103.438C244.102 102.866 244.327 102.674 243.095 102.318C241.921 101.979 241.263 102.153 240.641 100.909C239.553 98.7314 240.239 94.4813 240.029 92.0394C239.806 89.4481 239.54 86.7921 238.865 84.2725C238.066 81.2943 237.01 79.7376 233.816 80.439C227.486 81.8301 221.233 83.1534 214.875 84.3751C202.205 86.8087 189.753 90.7807 177.362 94.3069C176.418 94.5762 171.153 95.7814 172.228 93.0587C172.724 91.8027 176.057 91.3348 177.172 90.9402C183.297 88.7726 189.449 86.5642 195.709 84.8072ZM193.58 79.2652C192.655 79.6178 191.73 79.9705 190.805 80.3236V77.7505C191.73 78.2548 192.655 78.7598 193.58 79.2652ZM189.735 65.6594C190.539 66.3166 192.174 64.7351 192.857 64.4145C194.025 63.8676 195.512 63.3975 196.817 63.51C199.223 63.7181 200.983 66.0871 200.542 68.4892C199.796 72.5528 194.006 74.4743 190.814 76.063C190.711 74.6227 190.245 72.8916 191.255 71.6462C192.132 70.5646 193.832 70.6429 194.641 69.4924C196.677 66.6014 191.159 66.3392 189.926 68.6382C189.439 67.1686 188.953 65.6997 188.467 64.2302C189.641 64.0359 189.125 65.1617 189.735 65.6594ZM195.43 57.7054C194.281 58.4481 193.132 59.1909 191.983 59.9337C191.414 57.3627 193.355 57.0244 195.43 57.7054ZM300.104 147.184C298.6 147.902 298.224 146.188 297.142 146.114C298.42 145.328 298.42 145.328 300.104 147.184ZM306.222 184.623C306.41 187.087 306.263 189.58 306.592 192.034C306.841 193.902 307.598 195.639 307.679 197.528C307.855 201.663 306.459 205.875 303.638 208.907C300.97 211.775 297.153 214.243 293.551 215.449C291.929 215.991 290.235 217.195 288.659 217.64C286.915 218.133 285.258 217.061 283.82 218.983C282.861 210.738 283.562 202.122 283.486 193.825C283.41 185.509 283.5 177.191 282.093 168.966C280.841 161.64 278.371 153.399 273.819 147.406C271.969 144.972 269.693 142.979 267.292 141.113C266.046 140.145 264.8 139.11 263.413 138.345C261.277 137.168 259.458 137.331 257.136 136.996C253.812 136.516 250.722 136.11 247.386 137.046C244.28 137.918 240.86 138.91 238.078 140.425C235.307 141.933 232.089 142.555 229.212 143.906C227.256 144.825 223.191 147.896 221.019 147.343C218.918 146.808 215.807 143.241 214.465 141.643C212.75 139.601 211.331 137.235 209.81 135.037C209.275 134.266 208.186 133.074 208.048 132.083C207.806 130.364 208.495 130.926 210.137 131.118C214.36 131.614 218.332 132.397 222.379 133.727C224.393 134.388 228.332 137.063 230.346 135.46C233.421 133.012 228.748 128.804 227.037 127.391C224.121 124.982 220.73 123.194 217.622 121.053C214.319 118.779 209.952 116.358 207.827 112.856C214.033 114.688 220.234 116.786 226.258 119.148C229.015 120.229 231.74 121.371 234.329 122.808C235.783 123.614 238.722 125.797 240.473 124.752C244.28 122.479 235.536 115.879 234.275 114.53C232.314 112.434 230.393 110.358 228.239 108.457C226.785 107.174 224.502 106.272 223.826 104.379C226.239 105.253 228.189 106.964 230.448 108.126C231.631 108.735 232.71 109.085 234.017 109.272C235.409 109.471 235.575 109.693 236.672 110.246C237.527 110.678 238.405 111.255 239.364 111.549C240.047 111.758 241.242 111.794 241.839 112.182C242.145 112.618 242.46 113.046 242.786 113.467C243.15 113.574 243.509 113.698 243.863 113.838C244.392 114.311 244.707 114.962 245.222 115.45C248.964 118.988 253.969 121.52 258.164 124.485C262.133 127.289 266.344 129.826 270.156 132.886C274.543 136.409 279.095 140.195 282.826 144.419C284.935 146.806 286.668 149.513 288.439 152.153C289.722 154.065 291.587 155.65 292.695 157.621C295.112 161.918 297.118 166.563 299.72 170.79C302.371 175.099 305.824 179.379 306.222 184.623ZM270.566 209.555C271.289 206.573 275.367 203.091 277.973 201.776C276.66 205.025 273.16 207.241 270.566 209.555ZM277.291 219.958C275.068 224.569 265.294 225.097 266.62 218.272C267.27 214.928 270.028 212.876 272.395 210.688C273.489 209.677 276.169 206.059 277.863 206.642C277.784 209.243 277.631 211.855 277.637 214.456C277.64 216.193 278.078 218.325 277.291 219.958ZM274.466 166.803C275.368 168.828 276.266 170.515 274.593 172.327C273.838 173.145 271.378 174.934 270.265 174.537C266.692 173.262 273.504 167.714 274.466 166.803ZM252.857 148.781C253.717 148.734 254.553 148.862 255.403 148.81C256.25 148.757 256.34 148.607 257.125 148.714C257.208 148.834 257.29 148.955 257.373 149.075C257.48 149.883 257.905 149.971 258.646 149.339C259.677 149.568 260.347 149.722 261.333 150.279C258.673 152.197 255.435 154.427 252.173 155.071C247.018 156.088 248.442 149.024 252.857 148.781ZM173.829 191.918C173.295 192.994 171.758 190.307 171.377 189.806C172.087 189.804 174.37 190.833 173.829 191.918ZM215.249 163.613C219.255 161.276 224.011 159.223 228.313 157.483C229.069 161.128 225.38 165.832 223.108 168.326C221.271 170.343 219.056 172.434 216.565 173.595C213.872 174.85 210.928 174.298 211.059 170.777C211.107 169.49 211.4 167.421 211.924 166.244C212.599 164.728 213.876 164.413 215.249 163.613ZM161.109 97.3221C161.705 97.2873 168.181 96.4502 168.147 97.2559C168.045 99.6773 161.759 97.7757 161.109 97.3221ZM115.318 144.083C118.738 139.862 124.259 135.308 124.34 129.41C124.459 120.731 114.828 125.061 109.985 125.422C112.546 122.906 125.413 112.351 117.802 108.602C115.615 107.525 112.505 108.578 110.31 109.142C106.415 110.144 102.794 111.879 98.9676 113.086C101.702 110.175 106.426 106.868 106.271 102.46C106.082 97.0947 101.678 98.3921 97.8695 99.179C96.406 99.4819 89.8686 102.083 88.6402 100.317C88.1905 99.6701 88.9183 98.8484 89.0723 98.2723C89.3449 97.2536 89.2605 96.8977 89.2698 95.857C89.2886 93.7573 90.6836 91.0605 89.5457 89.1076C89.2858 89.5513 89.0629 90.0131 88.8775 90.4927C88.5022 89.3565 88.7544 88.1507 88.3792 87.014C97.8866 89.4459 107.558 90.7769 117.125 92.8523C121.969 93.9029 126.527 95.7118 131.436 96.5263C136.388 97.3469 141.253 98.6034 146.214 99.3864C150.74 100.1 155.076 101.289 159.558 102.201C163.927 103.09 168.408 101.142 172.673 100.155C182.224 97.9462 191.773 95.6831 201.337 93.5398C212.373 91.0649 223.854 88.9498 234.418 84.8232C234.623 90.3233 235.063 95.8128 235.735 101.275C231.07 99.0697 224.146 96.1936 219.43 100.14C217.542 101.719 216.96 104.445 217.706 106.764C218.518 109.288 221.006 110.46 222.647 112.36C217.652 111.079 204.766 102.051 202.473 111.177C200.853 117.622 208.755 121.785 212.618 125.413C208.782 124.662 203.643 121.594 201.39 126.524C199.444 130.786 201.789 135.424 204.191 138.939C205.493 140.844 206.957 142.636 208.341 144.482C209.072 145.458 209.787 146.448 210.556 147.395C211.327 148.345 212.782 149.34 213.322 150.362C214.411 152.425 212.214 152.551 210.507 153.296C208.375 154.226 206.544 155.788 204.594 157.033C200.129 159.884 196.227 162.532 190.951 163.443C185.519 164.38 180.288 165.36 174.928 166.668C169.584 167.972 165.221 169.225 159.759 167.54C157.269 166.772 155.24 166.088 152.598 166.233C149.824 166.385 148.202 166.241 145.92 164.522C136.104 157.129 125.449 151.062 115.318 144.083ZM97.6206 136.66C101.414 134.757 105.234 132.844 109.153 131.209C112.396 129.854 117.322 128.276 120.873 128.87C119.872 131.441 118.045 133.551 116.086 135.444C114.353 137.119 112.188 139.647 110.092 140.815C108.188 141.876 105.972 140.196 104.095 139.491C102.031 138.718 99.1917 138.358 97.6206 136.66ZM98.5742 146.264C100.465 145.478 104.528 148.114 106.247 148.8C109.627 150.147 113.024 151.554 116.002 153.68C112.366 157.883 108.248 161.725 103.354 164.424C100.135 166.2 94.7081 168.237 91.6708 165.012C87.8555 160.96 92.4423 152.704 95.1435 149.231C95.2329 149.826 95.3228 150.419 95.4128 151.013C96.2747 149.633 96.9325 146.946 98.5742 146.264ZM167.981 182.232C165.622 182.728 164.82 182.28 163.263 180.471C162.211 179.248 161.177 177.979 159.99 176.879C158.778 175.757 155.787 173.052 159.598 174.61C163.072 176.03 166.048 176.739 169.869 176.183C174.239 175.548 178.314 173.7 182.622 172.764C180.26 174.832 177.915 176.919 175.549 178.98C173.049 181.157 171.157 181.562 167.981 182.232ZM168.52 198.854C163.351 202.743 152.945 202.323 156.447 193.764C156.979 192.465 157.724 191.241 158.585 190.134C158.872 189.764 159.383 188.997 159.793 188.749C160.936 188.056 160.619 187.972 161.718 189.128C162.666 190.126 170.077 198.274 168.52 198.854ZM166.987 183.983C167.461 183.829 169.456 182.672 169.91 183.313C170.371 183.96 166.459 186.202 166.987 183.983ZM204.616 243.306C203.454 246.087 194.153 250.113 195.885 244.507C196.653 242.024 197.376 240.144 200.272 239.955C201.943 239.847 205.639 240.857 204.616 243.306ZM221.3 205.622C222.832 203.392 227.888 200.378 230.047 203.702C231.087 205.304 228.563 206.125 227.036 205.713C226.217 205.491 225.547 205.001 224.655 204.965C223.51 204.918 222.39 205.817 221.3 205.622ZM225.359 207.835C224.318 208.889 218.039 214.173 217.022 213.358C219.073 210.426 221.427 207.153 225.359 207.835ZM215.104 261.305C212.924 261.429 214.012 258.143 214.223 256.829C214.751 257.744 217.526 261.169 215.104 261.305ZM220.644 255.416C219.939 254.161 218.038 252.292 218.468 250.677C218.797 249.443 221.763 247.782 223.005 248.491C224.655 249.432 222.264 255.624 220.644 255.416ZM272.384 242.254C271.452 245.467 270.485 244.638 267.56 245.261C264.626 245.886 262.597 248.377 260.014 249.713C260.911 247.817 261.468 245.505 262.97 243.965C263.318 243.61 265.447 242.908 264.234 242.085C263.173 241.365 261.649 243.701 261.193 244.337C258.956 247.47 257.391 251.296 256.099 254.9C255.463 256.671 254.954 258.475 254.654 260.334C254.385 261.99 254.675 263.723 254.402 265.338C253.962 267.937 250.432 267.949 248.309 268.62C246.387 269.226 244.474 269.884 242.479 270.211C240.749 270.494 238.955 269.978 237.279 270.318C235.464 270.688 234.649 271.764 232.586 271.521C230.904 271.323 229.33 270.549 227.626 270.472C226.03 270.4 224.44 270.952 222.854 270.503C221.253 270.049 221.331 269.874 221.695 268.301C221.922 268.726 222.15 269.15 222.378 269.574C223.016 269.073 223.457 267.549 223.848 266.832C224.454 265.723 224.948 265.34 224.724 263.959C224.392 261.918 222.553 260.467 222.136 258.526C221.7 256.501 223.197 254.845 224.083 253.155C225.292 250.841 225.276 249.125 224.262 246.732C225.027 246.934 225.791 247.136 226.556 247.338C225.508 245.063 221.954 245.985 220.172 246.659C219.277 246.998 217.857 248.329 216.893 248.294C215.569 248.248 214.879 246.507 214.31 245.549C212.662 242.775 210.782 240.035 208.834 237.459C208.299 236.751 207.597 236.296 207.782 235.489C207.939 234.804 209.475 233.832 209.973 233.411C211.842 231.83 214.22 230.955 215.975 229.292C218.628 226.779 221.686 224.978 224.398 222.514C227.224 219.948 230.134 217.591 233.078 215.166C236.06 212.71 238.644 209.816 241.604 207.334C242.371 208.724 243.857 213.702 245.556 214.087C247.538 214.535 247.479 212.191 247.381 210.78C247.24 208.77 246.124 206.816 245.999 204.898C245.866 202.845 247.841 201.928 249.331 200.74C251.633 198.907 256.727 194.729 253.989 191.291C251.63 188.33 243.958 194.008 241.844 195.715C240.047 197.166 238.658 198.478 236.635 199.623C235.212 200.427 232.826 203.52 231.139 203.235C229.133 202.895 228.35 200.704 225.896 200.777C223.498 200.847 221.461 202.574 219.974 204.308C216.612 208.227 215.457 213.473 212.393 217.559C210.883 219.573 208.924 221.236 207.286 223.142C205.487 225.234 205.104 227.645 203.33 229.692C198.253 222.929 192.722 216.525 187.368 209.983C184.694 206.717 182.076 203.411 179.46 200.099C178.48 198.857 177.374 197.693 176.476 196.389C175.246 194.603 175.467 193.169 174.984 191.177C174.771 190.294 173.768 189.237 174.036 188.393C174.398 187.26 176.932 186.37 177.846 185.906C181.578 184.011 184.963 181.644 188.443 179.329C194.888 175.043 201.407 171.024 208.261 167.364C208.143 168.941 207.117 170.576 207.806 172.158C208.127 171.248 208.635 167.193 209.85 167.018C209.618 167.052 209.809 172.219 209.997 172.956C210.558 175.158 212.185 176.663 214.514 176.648C218.949 176.619 222.924 171.795 225.385 168.6C227.052 166.436 228.653 163.92 229.239 161.211C229.767 158.78 229.187 157.089 231.714 155.854C236.9 153.321 242.128 151.258 247.675 149.914C247.426 152.304 246.733 155.247 248.906 156.966C251.304 158.864 254.442 157.173 256.699 155.917C258.936 154.674 262.384 151.259 265.011 152.251C267.595 153.226 269.393 156.467 270.839 158.618C272.113 160.515 273.501 161.882 272.025 163.996C270.37 166.365 269.294 168.678 267.968 171.251C267.459 172.24 266.973 172.885 267.333 173.898C267.449 174.227 268.778 176.186 269.139 176.467C271.44 178.257 274.547 174.851 276.19 173.558C276.769 179.126 276.899 184.669 277.132 190.255C277.304 194.346 278.888 198.374 275.53 201.364C272.174 204.354 269.373 207.423 267.327 211.471C266.234 213.634 265.254 215.853 264.072 217.971C263.283 219.385 261.617 221.46 262.636 223.126C263.712 222.105 264.032 220.553 264.928 219.402C265.465 221.791 266.006 224.441 268.532 225.453C271.439 226.618 274.328 224.602 276.903 223.481C275.98 229.866 274.179 236.071 272.384 242.254ZM269.413 249.593C267.418 253.857 265.616 258.998 261.932 262.138C261.123 262.827 257.686 265.519 256.378 265.068C255.268 264.685 255.879 262.442 256.072 261.48C257.054 256.601 258.752 253.53 262.709 250.418C264.346 249.129 266.448 247.482 268.56 247.164C270.833 246.822 270.179 247.955 269.413 249.593ZM325.685 350.802C320.512 343.768 313.202 338.302 306.293 333.018C303.164 330.624 299.715 328.83 296.553 326.435C292.979 323.728 289.349 321.117 285.345 319.078C277.754 315.209 269.472 312.513 262.309 307.939C258.815 305.709 254.993 303.553 251.709 301.048C250.266 299.948 248.991 298.541 247.687 297.281C246.476 296.11 243.875 294.41 243.394 292.697C245.41 292.367 246.556 290.411 248.355 290.212C248.948 290.145 252.662 291.128 252.154 289.327C253.501 289.293 253.658 289.273 254.787 288.978C255.254 288.856 255.808 289.047 256.281 288.88C257.004 288.624 257.496 287.887 258.227 287.604C258.746 287.403 260.674 287.627 260.967 287.377C261.764 286.695 260.917 286.756 260.441 285.904C261.992 285.865 263.057 286.649 264.612 285.815C265.085 285.561 265.486 284.977 265.945 284.674C266.759 284.136 267.053 284.969 267.61 283.853C268.131 285.393 268.117 284.967 269.374 284.514C270.626 284.063 271.531 283.737 272.957 283.624C276.364 283.355 279.783 283.768 283.174 283.526C284.414 283.437 285.474 283.155 286.707 283.318C287.792 283.461 287.465 284.216 288.367 283.198C288.577 282.962 287.9 282.316 288.224 281.976C288.367 281.826 288.834 281.932 289.011 281.854C290.597 281.162 290.604 282.129 290.885 283.389C291.815 283.171 292.764 282.974 293.572 282.429C293.163 282.065 292.481 281.662 292.875 280.997C294.216 281.505 295.093 281.27 294.422 282.743C295.771 283.189 296.024 282.608 297.235 282.48C297.952 282.405 298.953 282.85 299.55 282.278C300.202 281.653 299.173 280.974 300.371 280.436C300.617 280.561 300.798 280.75 300.918 281.002C301.564 281.197 301.448 281.452 300.569 281.765C302.924 282.987 302.371 281.621 303.36 280.178C303.589 279.845 304.612 278.811 305.078 279.31C305.785 280.067 304.341 280.309 304.651 281.061C305.187 282.366 307.058 280.694 307.633 280.033C308.068 279.533 308.245 278.575 308.713 278.202C309.364 277.684 310.3 278.485 311.115 278.341C314.837 277.689 318.352 272.685 315.548 269.335C314.794 268.435 314.157 268.614 313.259 268.045C312.371 267.484 311.873 266.512 311.161 265.71C309.534 263.879 307.543 262.507 305.27 261.63C299.996 259.596 294.313 258.112 288.775 257.02C286.21 256.514 283.479 255.741 280.854 255.746C279.306 255.749 276.977 256.952 275.53 256.376C272.718 255.255 276.846 249.519 277.528 247.666C279.529 242.224 281.039 236.42 282.029 230.707C282.222 229.588 282.148 228.14 282.551 227.074C283.013 225.849 283.112 226.022 284.102 225.923C285.89 225.742 287.845 226.679 289.707 226.355C291.77 225.997 294 226.163 296.083 225.525C297.041 225.232 297.928 224.914 298.559 224.105C298.757 223.852 298.536 223.631 298.662 223.454C298.7 223.398 299.413 222.63 299.436 222.585C299.429 222.188 299.463 221.794 299.54 221.403C300.262 222.002 299.906 223.259 301.122 223.288C301.339 221.949 301.341 221.678 302.221 220.924C302.154 220.982 302.884 220.362 302.79 220.428C302.834 220.189 302.922 219.966 303.053 219.76C303.464 219.562 303.899 219.456 304.356 219.444C305.306 218.467 304.912 217.945 304.912 216.629C305.679 217.027 306.446 217.426 307.213 217.825C307.399 213.926 309.773 211.791 311.35 208.631C312.023 207.284 312.707 206.232 312.868 204.608C312.961 203.671 312.719 202.844 313.107 201.961C313.458 201.16 314.246 200.729 314.575 199.856C315.222 198.138 314.739 195.946 314.775 194.163C314.824 191.689 315.071 189.224 315.152 186.752C315.31 181.898 314.823 176.911 314.096 172.114C313.749 169.819 313.168 167.593 312.712 165.322C312.337 163.457 311.439 161.706 311.118 159.97C310.984 159.249 311.19 158.602 310.973 157.804C310.686 156.755 310.207 155.724 309.851 154.694C309.019 152.288 308.196 149.886 307.26 147.518C305.447 142.928 303.324 138.476 301.307 133.974C299.366 129.645 297.76 125.181 295.247 121.139C292.771 117.157 290.106 113.243 287.378 109.431C284.536 105.463 280.944 102.052 278.188 98.0466C273.013 90.5258 265.797 84.3282 258.246 79.2106C242.665 68.6497 225.828 58.1055 207.145 54.4844C204.329 53.9392 201.477 53.5606 198.607 53.49C196.827 53.4458 193.877 54.3067 192.191 53.7041C190.303 53.0287 190.475 50.908 190.003 49.2448C189.395 47.1059 188.024 45.7054 186.467 44.1934C184.828 42.6019 183.341 40.7434 181.297 39.6612C179.225 38.5653 176.782 38.1553 174.487 37.8242C172.438 37.5273 169.376 37.8043 167.504 36.9115C165.799 36.0981 166.641 35.251 168.238 35.9474C168.355 35.2433 168.449 34.7886 168.9 34.2445C169.127 33.9708 170.197 33.5873 170.223 33.3318C170.254 33.0333 169.356 32.1823 169.227 31.7969C168.951 30.9671 169.108 29.8179 169.436 29.0391C171.045 30.4699 171.512 31.1036 173.309 29.7359C174.068 29.1584 174.301 28.9038 175.18 28.6124C175.418 28.5333 175.953 28.7776 176.161 28.6405C176.955 28.1175 176.224 28.2408 176.602 27.6226C176.507 27.7786 177.174 26.1356 177.142 26.4792C177.223 25.604 177.482 25.873 176.954 24.7977C175.919 22.6942 173.284 22.6082 174.627 20.2077C175.155 19.2632 175.62 19.3572 175.769 17.9878C175.849 17.2515 175.75 16.4073 175.746 15.6584C175.74 14.1266 176.028 13.0543 174.593 12.2744C173.214 11.5243 171.941 12.3472 171.381 10.4869C170.794 8.53483 171.385 6.03219 169.271 4.69545C167.725 3.71883 165.494 4.55379 163.787 4.07613C162.076 3.59781 160.502 1.84703 158.765 3.19123C157.531 4.14666 156.877 6.49556 154.552 5.22531C153.502 4.65246 152.925 2.72902 152.263 1.65036C151.209 -0.0689057 150.364 -0.689986 148.741 0.98453C147.741 2.01738 145.633 4.53145 145.504 5.96112C145.362 7.53928 146.739 8.19877 145.01 9.13235C143.291 10.0613 142.326 9.38012 140.93 11.2657C139.546 13.1363 140.617 14.1697 139.014 15.9595C137.008 18.1966 135.942 19.1623 135.97 22.1764C135.989 24.2438 134.163 26.0295 135.228 27.9908C136.422 30.1889 139.908 31.103 142.021 31.9976C141.315 33.3011 140.347 34.1369 141.171 35.4784C141.917 36.6935 144.025 36.9462 145.333 36.7255C146.212 36.5771 146.243 36.7106 146.935 36.092C147.389 35.6875 146.767 35.1821 147.7 34.958C148.694 34.718 150.281 36.6654 150.926 37.1526C149.484 39.0239 145.524 39.3737 143.429 40.3218C142.152 40.9006 140.979 41.7565 139.679 42.2736C138.499 42.7426 137.064 42.6339 135.995 43.3596C134.148 44.6133 133.379 47.719 132.248 49.545C130.966 51.6121 129.724 52.5717 127.266 53.0011C124.199 53.5358 121.73 53.751 118.87 55.0864C115.377 56.7176 111.934 58.4393 108.504 60.198C102.972 63.0338 97.832 65.9447 92.6945 69.3743C87.3197 72.9634 82.0917 76.7092 76.9056 80.4588C71.7758 84.1676 67.4694 88.7301 63.0134 93.2148C59.4116 96.8403 56.2508 100.754 52.6628 104.378C48.427 108.658 45.3114 114.059 41.384 118.599C39.2352 121.083 37.1791 123.526 35.831 126.451C34.7384 128.824 32.8379 131.151 31.5693 133.639C29.9486 136.82 28.4145 139.951 26.5946 143.027C25.8479 144.289 24.9606 145.372 24.1726 146.577C23.1627 148.12 23.2223 149.611 22.9509 151.39C22.6672 150.956 22.3841 150.521 22.1005 150.088C21.5862 151.211 20.9648 152.315 20.5195 153.465C20.2353 154.199 20.28 155.24 19.9947 155.882C19.6366 156.687 19.2006 156.58 18.7542 157.251C18.2769 157.969 18.1229 158.932 17.6202 159.702C15.4455 163.029 14.6089 167.249 13.4915 171.044C11.9927 176.136 12.2289 181.988 12.3105 187.238C12.3972 192.784 12.7001 198.329 13.5339 203.816C14.2894 208.785 15.904 213.551 18.4319 217.908C20.6348 221.705 23.6721 223.917 27.563 225.862C29.3498 226.754 31.0081 226.479 32.8832 226.621C34.9376 226.778 36.3387 227.336 38.5123 226.845C39.5547 226.609 40.0486 225.85 40.8769 225.597C41.3895 225.441 41.666 225.696 42.1583 225.636C42.8624 225.551 44.3269 225.205 45.0907 225.289C47.4674 225.548 47.0684 229.141 47.3024 230.975C47.6622 233.801 47.9254 236.657 48.411 239.465C49.4313 245.37 51.6348 250.887 52.9365 256.69C46.9017 257.427 41.7251 258.553 36.0689 260.837C30.3944 263.128 24.6571 263.906 18.6852 265.045C13.0985 266.11 7.72487 268.101 3.25288 271.708C1.15704 273.398 -1.02046 275.376 0.51858 278.159C1.50304 279.939 3.27716 280.391 4.80848 281.426C5.11805 281.034 4.22299 280.205 4.05909 279.975C5.3465 280.239 5.30733 280.84 6.24764 281.363C7.06931 281.82 7.74198 281.804 8.64146 282.127C10.8377 282.916 11.9171 284.885 14.088 285.437C14.7711 285.611 15.6645 286.027 16.3626 286.145C17.2019 286.287 17.8299 285.92 18.6803 286.075C19.1388 286.378 19.6355 286.593 20.1685 286.723C20.5184 286.561 20.8638 286.389 21.2043 286.209C22.4261 286.336 23.1804 287.104 24.1731 287.735C24.2394 286.94 24.1439 286.114 24.8966 285.595C25.1907 286.368 24.7156 286.858 25.5179 287.39C26.5344 288.065 27.8693 287.222 28.7792 286.796C29.0369 289.367 34.9895 289.216 36.8762 289.179C39.4891 289.128 42.0992 288.092 44.7353 288.67C46.0801 288.965 47.5154 289.273 48.8541 289.656C50.466 290.116 52.4145 290.528 54.001 291.109C54.6323 291.34 55.4048 292.081 56.0764 292.03C56.6111 291.99 56.7546 291.202 57.377 291.224C58.0812 291.25 58.3179 292.035 58.9271 292.271C59.8399 292.624 60.6786 291.953 61.5456 292.292C61.8573 292.413 62.2795 292.935 62.6785 293.106C63.2838 293.364 64.4824 293.368 65.1561 293.492C66.1114 293.669 66.9667 293.55 67.785 293.608C68.445 293.656 68.4307 294.1 68.7463 294.129C69.1089 294.161 69.7396 292.916 70.2263 292.733C70.9349 292.467 72.2212 293.1 72.9441 293.212C67.7078 300.31 61.3944 306.583 54.5506 312.076C47.1688 318.001 39.6094 323.919 31.6934 329.116C24.5059 333.835 17.5485 337.916 11.9761 344.578C7.27734 350.195 -0.202102 356.205 0.950662 364.346C2.10287 372.481 10.9359 375.792 18.0137 377.344C26.9157 379.298 36.0793 378.512 45.0051 379.61C48.8116 380.078 53.0408 379.828 56.8727 379.429C61.3982 378.958 65.277 376.005 69.1679 373.869C76.1662 370.027 82.1491 364.887 89.0425 360.926C97.6736 355.965 106.214 350.709 115.676 347.387C120.078 345.842 124.609 344.078 128.16 340.899C128.689 340.426 129.082 339.712 129.679 339.322C130.694 338.66 130.966 339.331 131.556 339.13C132.009 338.977 132.448 338.486 132.84 338.34C133.833 337.968 134.276 338.121 135.388 338.121C134.433 337.571 133.56 336.153 134.55 334.997C136.246 333.018 136.538 336.181 137.175 336.914C137.715 336.22 137.508 335.603 137.37 334.814C137.826 335.115 138.283 335.416 138.739 335.718C138.425 334.192 138.724 332.786 139.532 331.456C140.278 330.231 140.462 330.403 140.667 328.705C142.983 330.819 143.436 325.688 143.645 323.817C143.846 322.003 143.647 320.701 144.84 319.115C146.121 317.412 148.068 316.335 149.694 315.012C152.262 312.922 155.088 310.281 158.639 312.286C161.443 313.87 162.968 317.75 165.599 319.744C167.194 320.954 168.878 321.076 169.895 322.952C170.718 324.468 170.985 326.283 171.761 327.84C173.642 331.614 176.349 335.933 179.438 338.828C182.313 341.523 186.003 341.509 189.368 343.18C192.698 344.835 196.159 346.628 199.684 347.827C203.534 349.136 207.686 349.693 211.435 351.28C213.363 352.097 215.087 353.326 217.032 354.107C219.13 354.95 221.341 355.543 223.466 356.315C231.889 359.375 240.132 363.127 248.98 364.822C252.905 365.574 256.538 367.617 260.491 368.048C262.187 368.232 263.57 368.466 265.23 368.89C267.833 369.555 267.282 369.909 268.241 372.079C269.818 375.653 273.671 373.537 276.641 373.626C281.395 373.77 286.077 373.001 290.823 372.965C299.124 372.901 307.116 371.965 315.145 369.24C323.206 366.504 332.384 359.911 325.685 350.802Z" fill="black"/>
<path fill-rule="evenodd" clip-rule="evenodd" d="M229.736 71.6131C229.85 71.7267 230.117 71.7957 229.736 71.6131V71.6131Z" fill="black"/>
<path fill-rule="evenodd" clip-rule="evenodd" d="M83.5262 223.806C85.329 221.978 92.9994 222.348 93.5794 225.616C94.2256 229.264 87.3719 234.774 84.8633 236.318C81.6357 238.306 77.6956 238.679 78.2679 233.688C78.7005 229.918 80.9591 226.407 83.5262 223.806ZM89.8606 220.044C90.0946 221.055 88.3707 220.711 87.8961 220.471C87.6721 220.012 89.6267 219.03 89.8606 220.044ZM76.6334 226.734C78.163 226.871 79.9162 224.417 81.0706 223.581C81.5805 224.37 78.2165 228.704 77.8463 229.693C76.922 232.164 76.4077 235.286 77.668 237.751C81.3509 244.954 90.7761 234.668 93.1335 231.075C94.7829 228.563 95.9246 225.447 93.5948 222.984C92.7654 222.107 91.3952 221.864 90.6249 221.03C89.6106 219.934 90.4086 218.519 88.3696 218.757C86.9624 218.923 85.2733 220.192 83.9053 220.652C82.2565 221.205 80.7743 221.779 79.3351 222.804C79.0106 223.035 74.7434 226.564 76.6334 226.734Z" fill="black"/>
<path fill-rule="evenodd" clip-rule="evenodd" d="M184.763 229.152C183.802 234.1 178.898 239.177 173.738 239.374C168.599 239.57 166.936 234.186 167.843 229.895C168.616 226.236 171.78 219.878 176.292 220.578C179.84 221.129 185.587 224.91 184.763 229.152ZM181.491 220.88C178.233 218.36 173.732 217.193 169.956 219.193C168.717 219.849 163.775 222.742 165.279 224.7C167.307 223.128 169.057 220.948 171.692 220.425C171.249 222.468 168.719 224.305 167.827 226.295C166.784 228.619 166.214 231.278 166.385 233.832C166.689 238.377 169.733 241.909 174.447 241.284C178.762 240.712 182.534 237.405 184.592 233.687C187.341 228.722 185.793 224.208 181.491 220.88Z" fill="black"/>
<path fill-rule="evenodd" clip-rule="evenodd" d="M151.234 240.401C148.914 243.836 145.377 247.067 141.288 248.128C135.993 249.501 137.481 245.125 139.063 241.985C140.461 239.209 142.861 234.434 146.516 234.46C147.757 234.467 150.067 235.067 151.154 235.73C153.296 237.038 152.455 238.594 151.234 240.401ZM146.293 232.852C147.125 231.925 150.812 227.95 151.305 231.048C152.364 229.821 151.529 228.803 150.174 228.673C148.539 228.517 146.752 230.337 145.572 231.242C143.144 233.103 141.275 235.008 139.666 237.617C137.892 240.493 133.368 246.993 137.327 249.847C141.606 252.932 147.834 247.235 150.514 244.297C152.227 242.417 154.497 239.658 153.845 236.902C153.045 233.517 149.107 233.162 146.293 232.852Z" fill="black"/>
<path fill-rule="evenodd" clip-rule="evenodd" d="M128.036 177.498C125.641 180.23 120.778 184.21 116.77 183.741C113.114 183.314 114.541 179.211 115.835 177.225C117.778 174.241 120.382 171.439 124.144 171.276C125.768 171.206 127.872 171.239 129.13 172.469C130.848 174.148 129.301 176.055 128.036 177.498ZM127.781 169.908C124.976 168.939 123.874 168.569 121.148 170.11C118.959 171.347 117.018 173.096 115.516 175.082C113.268 178.054 111 184.739 116.773 185.575C123.105 186.493 138.167 173.499 127.781 169.908Z" fill="black"/>
<path fill-rule="evenodd" clip-rule="evenodd" d="M136.412 186.965C134.591 188.825 132.317 190.343 129.721 190.862C130.819 188.412 133.271 183.059 136.178 182.313C137.517 181.969 139.044 182.42 138.934 183.946C138.854 185.049 137.131 186.23 136.412 186.965ZM138.757 180.488C137.249 179.732 137.724 179.216 135.97 179.809C134.587 180.276 132.842 181.086 131.691 182.02C131.063 182.53 129.107 184.337 129.346 185.256C129.78 186.927 131.239 184.367 131.622 183.874C132.28 184.41 128.918 189.219 128.719 190.011C127.973 192.958 130.287 193.27 132.554 192.306C135.612 191.006 144.667 183.449 138.757 180.488Z" fill="black"/>
<path fill-rule="evenodd" clip-rule="evenodd" d="M183.589 259.802C183.815 257.848 184.136 255.782 185.929 254.685C187.545 253.696 189.219 253.839 189.458 255.868C189.68 257.752 187.835 261.097 186.341 262.125C184.263 263.556 183.862 261.772 183.589 259.802ZM186.26 264.249C190.529 261.751 193.219 250.297 185.351 253.507C180.88 255.331 182.524 266.435 186.26 264.249Z" fill="black"/>
<path fill-rule="evenodd" clip-rule="evenodd" d="M149.807 216.75C150.48 215.371 151.25 214.913 152.615 214.309C151.705 215.168 150.775 215.962 149.807 216.75ZM150.792 213.351C149.825 214.321 147.61 215.8 147.92 217.466C148.203 218.986 149.365 218.899 150.418 218.425C152.627 217.432 153.857 213.084 156.168 212.677C153.605 211.052 153.006 211.128 150.792 213.351Z" fill="black"/>
<path fill-rule="evenodd" clip-rule="evenodd" d="M151.13 127C151.253 131.631 151.361 136.261 151.464 140.891C151.499 142.518 151.111 144.838 151.599 146.397C151.815 147.084 153.765 150.06 154.457 150.253C156.878 150.926 156.013 144.857 156.03 143.363C156.089 138.321 156.015 133.273 155.995 128.231C155.983 125.632 156.717 103.845 153.345 103.952C152.765 103.97 151.334 106.461 151.119 106.96C150.441 108.529 150.69 110.853 150.706 112.525C150.752 117.348 151.002 122.178 151.13 127Z" fill="black"/>
<path fill-rule="evenodd" clip-rule="evenodd" d="M171.544 140.498C171.734 141.778 171.634 143.913 173.076 144.577C174.33 145.154 174.81 144.467 175.279 143.395C176.357 140.927 175.968 137.154 175.949 134.602C175.909 129.545 175.339 124.51 174.946 119.472C174.773 117.262 175.132 115.042 174.856 112.729C174.735 111.714 174.614 107.63 172.732 107.821C171.031 107.992 171.184 112.272 171.091 113.374C170.32 122.553 170.186 131.336 171.544 140.498Z" fill="black"/>
<path fill-rule="evenodd" clip-rule="evenodd" d="M251.846 245.902C251.125 249.589 239.361 262.426 236.399 255.246C234.641 250.986 238.451 246.349 241.421 243.884C243.26 242.357 245.557 240.86 248.063 241.322C250.19 241.715 252.304 243.561 251.846 245.902ZM245.771 239.29C244.94 239.486 237.995 244.363 237.932 244.299C237.329 243.694 241.709 237.164 242.16 236.593C245.874 231.888 248.339 235.451 250.661 239.149C250.167 236.94 248.806 233.733 246.532 232.799C243.661 231.619 241.421 234.53 240.04 236.623C238.088 239.582 237.012 242.794 235.927 246.132C235.409 247.724 234.82 249.168 233.944 250.603C233.079 252.02 231.566 253.582 231.79 255.373C233.019 254.69 233.672 253.353 234.446 252.251C235.31 252.6 235.014 255.355 235.189 256.056C235.63 257.818 236.834 259.197 238.696 259.5C242.166 260.065 245.913 256.854 248.233 254.674C250.678 252.376 253.31 249.226 253.289 245.689C253.266 241.994 249.633 238.376 245.771 239.29Z" fill="black"/>
<path fill-rule="evenodd" clip-rule="evenodd" d="M255.181 180.055C253.212 183.069 249.757 186.681 246.101 187.381C243.417 187.895 241.647 185.906 242.725 183.222C243.636 180.952 246.738 179.519 248.772 178.521C250.385 177.729 257.905 175.885 255.181 180.055ZM253.732 175.126C249.699 174.974 246.445 177.89 243.438 180.217C244.117 177.544 245.653 174.635 247.817 172.895C250.761 170.527 253.552 171.997 256.652 173.182C255.887 170.768 252.454 169.9 250.268 170.241C247.503 170.673 245.515 173.033 244.117 175.317C242.449 178.04 241.879 181.25 239.916 183.805C239.017 184.975 233.452 189.351 234.712 191.14C236.79 188.933 238.87 186.727 240.948 184.52C241.487 187.128 242.081 190.098 245.411 189.844C248.07 189.641 251.103 187.381 253.048 185.653C255.559 183.421 260.501 175.382 253.732 175.126Z" fill="black"/>
<path fill-rule="evenodd" clip-rule="evenodd" d="M197.23 200.858C195.521 201.643 191.76 202.711 190.805 200.351C189.478 197.072 193.748 191.322 195.78 189.138C197.03 187.794 197.879 187.099 199.622 187.968C201.013 188.663 203.058 190.636 203.592 192.154C204.738 195.411 199.902 199.628 197.23 200.858ZM201.15 185.113C202.541 185.427 202.711 187.194 200.972 186.515C199.668 186.007 199.365 184.71 201.15 185.113ZM202.896 187.601C202.377 186.017 203.434 183.531 200.875 183.416C199.425 183.352 196.769 184.826 195.503 185.425C193.749 186.255 192.098 187.522 191.182 189.308C190.333 190.961 190.939 191.397 192.232 190.025C192.391 190.133 189.306 198.087 189.279 198.883C189.159 202.526 191.737 204.924 195.358 204.279C198.686 203.685 201.686 200.963 203.517 198.217C204.444 196.826 205.205 195.235 205.274 193.532C205.381 190.92 203.639 189.87 202.896 187.601Z" fill="black"/>
<path fill-rule="evenodd" clip-rule="evenodd" d="M223.624 180.342C220.711 179.011 217.457 183.561 218.862 186.265C220.704 189.811 229.69 183.113 223.624 180.342ZM220.15 185.429C219.544 184.351 223.66 182.762 224.31 182.735C223.985 183.33 220.981 186.907 220.15 185.429Z" fill="black"/>
<path fill-rule="evenodd" clip-rule="evenodd" d="M25.3544 177.737C25.1916 176.585 22.6102 178.258 22.6251 178.999C23.0522 178.145 25.6932 180.137 25.3544 177.737Z" fill="black"/>
<path fill-rule="evenodd" clip-rule="evenodd" d="M166.545 90.7046C169.832 90.4629 165.644 73.8816 163.249 75.3478C160.652 76.9371 163.529 90.9259 166.545 90.7046Z" fill="black"/>
<path fill-rule="evenodd" clip-rule="evenodd" d="M172.683 82.9619C175.762 83.4029 175.273 76.3323 173.617 75.067C170.559 72.7311 168.944 82.4267 172.683 82.9619Z" fill="black"/>
</svg>
