<svg width="416" height="391" viewBox="0 0 416 391" fill="none" xmlns="http://www.w3.org/2000/svg">
<path fill-rule="evenodd" clip-rule="evenodd" d="M215.685 24.1298C213.853 28.9789 212.022 33.8287 210.189 38.678C209.015 41.7855 207.841 44.8925 206.668 48C206.251 49.1018 206.019 50.232 205.214 50.9969C203.316 52.7978 199.91 53.9439 197.628 55.2109C196.1 56.0598 194.572 56.9088 193.044 57.7578C192.256 58.1959 190.509 58.7459 189.956 59.4729C189.349 60.2739 189.636 61.7451 189.636 62.8527V72.4163V90.4364C197.53 89.4494 205.424 88.4631 213.317 87.4762C202.8 99.611 192.284 111.745 181.768 123.88C179.176 126.87 176.029 129.749 174.098 133.228C169.988 140.634 165.971 148.094 161.908 155.526C158.126 162.444 154.344 169.362 150.562 176.28L184.586 174.832C193.394 174.457 202.443 175.021 210.931 172.524C217.927 170.466 224.923 168.409 231.92 166.351C232.85 166.077 235.749 165.767 236.408 165.018C237.026 164.317 237.013 161.666 237.188 160.769C240.49 143.796 244.694 125.091 254.332 110.481C261.242 100.007 270.567 90.8372 279.106 81.704C282.439 78.1394 285.83 74.6175 289.045 70.9445C289.868 70.0038 291.058 68.9364 291.602 67.7938C291.954 67.0555 292.445 65.6489 292.227 64.9935C292.132 64.7093 289.935 63.6899 289.62 63.4874C287.394 62.0565 285.187 60.5954 282.975 59.1413C276.76 55.0552 270.551 50.959 264.3 46.9273C259.427 43.7836 254.568 40.4505 249.428 37.7491C244.1 34.9488 238.233 32.978 232.647 30.7656C227.002 28.5295 221.347 26.3191 215.685 24.1298Z" fill="#FDC144"/>
<path fill-rule="evenodd" clip-rule="evenodd" d="M407.26 283.19C404.55 285.744 399.614 289.172 395.713 287.613C393.753 286.831 392.079 285.112 390.294 284.004C388.197 282.701 386.226 281.398 384.448 279.662C380.901 276.198 378.216 271.137 374.027 268.424C372.619 267.513 369.871 267.317 368.894 265.862C368.456 265.209 368.416 264.218 368.496 263.463C368.671 261.838 369.549 261.934 368.082 260.74H370.361C370.405 259.86 369.526 259.787 368.871 259.901C369.176 258.505 369.486 253.045 366.943 255.52C364.738 257.664 365.841 261.223 364.28 263.546C363.084 265.325 359.912 263.885 359.484 261.928C359.292 261.048 360.26 259.676 360.376 258.814C360.629 256.902 359.776 255.249 358.536 253.801C355.816 255.614 357.358 259.364 355.808 261.745C354.405 263.9 351.282 262.894 349.146 262.516C346.586 262.061 343.692 262.521 341.243 261.916C337.544 261.003 338.926 256.662 338.56 253.859C338.167 250.857 335.133 246.69 336.045 243.661C337.024 240.409 342.748 239.707 345.485 238.917C351.738 237.113 360.658 236.767 365.307 231.717C369.005 235.841 371.98 240.563 375.858 244.533C380.047 248.821 384.522 252.78 388.543 257.241C392.729 261.883 397.049 266.436 401.083 271.214C402.843 273.297 404.388 275.543 406.209 277.577C407.827 279.385 409.533 281.049 407.26 283.19ZM221.386 202.987C223.308 201.965 223.552 202.606 223.552 204.71C222.999 203.7 222.45 203.429 221.386 202.987ZM205.094 243.899V240.19C206.946 240.141 205.807 243.314 205.094 243.899ZM204.641 249.424C204.641 247.781 204.596 246.217 205.07 244.619C205.319 246.36 205.793 247.868 204.641 249.424ZM212.606 362.277C214.307 362.436 216.929 361.264 218.36 362.599C219.83 363.971 219.713 367.963 220.061 369.816C220.636 372.879 221.146 375.952 221.631 379.029C221.949 381.047 222.342 383.096 220.061 383.868C216.69 385.008 211.873 383.38 208.359 383.232C201.418 382.94 194.48 382.534 187.534 382.393C180.801 382.257 174.052 382.365 167.35 383.065C164.322 383.382 161.361 383.94 158.365 384.446C156.785 384.713 152.553 385.829 151.126 384.497C148.442 381.991 152.904 376.139 154.824 374.486C158.386 371.419 163.452 369.207 167.919 367.875C170.306 367.162 174.285 365.163 176.166 367.399C177.608 369.114 177.551 371.404 179.618 372.703C184.408 375.714 181.606 367.077 178.612 366.014C180.622 361.31 184.453 367.952 186.042 369.547C186.608 370.115 188.447 371.987 189.245 371.046C189.843 370.341 188.649 367.817 188.428 367.13C188.091 366.087 187.241 364.5 187.485 363.369C187.928 361.322 190.799 360.764 192.519 360.593C195.186 360.329 197.802 361.175 200.439 361.457C204.483 361.89 208.558 361.897 212.606 362.277ZM185.827 169.448C180.563 169.867 175.265 169.062 170.012 169.721C165.043 170.345 160.36 172.17 155.675 173.846C162.64 157.511 171.65 142.641 182.633 128.711C188.102 121.773 193.984 114.883 199.894 108.317C202.644 105.262 205.488 102.309 208.327 99.3398C210.86 96.6911 212.675 92.1929 215.714 90.215C218.308 88.5265 222.842 89.7307 225.717 89.8355C228.967 89.9539 232.921 90.2493 236.09 89.1677C238.387 88.3838 239.018 86.2922 236.144 86.2229C232.753 86.1407 229.418 86.4941 225.983 86.1762C217.083 85.3539 208.504 84.0023 199.532 84.7689C197.477 84.9442 194.771 85.8198 192.754 85.5569C191.304 85.3669 192.257 86.0963 191.249 84.9323C190.863 84.4871 190.398 83.4404 190.284 82.849C189.641 79.5271 191.465 74.7803 191.902 71.4359C192.305 68.3408 191.948 64.9391 192.703 61.9251C193.391 59.1822 195.488 58.8163 198.07 58.5233C205.135 57.7211 212.345 57.2942 219.441 56.6898C235.637 55.3104 252.347 53.2294 268.432 56.6383C274.24 57.8691 281.323 59.7725 286.511 62.8202C288.134 63.7728 289.771 64.8947 289.181 66.8685C288.569 68.9175 285.567 71.0819 284.08 72.4317C273.093 82.4062 262.481 92.5801 254.763 105.378C244.92 121.699 239.271 139.325 235.957 158.027C235.244 162.05 234.582 164.156 230.443 165.314C225.999 166.558 221.71 167.366 217.102 167.744C206.686 168.6 196.238 168.617 185.827 169.448ZM189.355 61.368C188.557 67.3089 187.477 73.2369 187.37 79.2246C187.33 81.4862 187.116 82.6193 184.711 83.1237C181.876 83.7181 178.993 84.1609 176.145 84.7778C162.399 87.7569 148.912 91.4156 135.464 95.5337C122.394 99.537 109.539 104.041 96.1748 107.006C90.4262 108.282 83.6996 109.141 78.4637 111.966C72.8312 115.005 73.5724 119.989 73.0668 125.462C72.3913 132.774 70.2227 139.855 69.4602 147.165C69.0955 150.658 68.7634 154.171 68.8185 157.686C68.8652 160.683 69.2945 163.995 67.2804 166.517C63.2398 161.115 61.3246 154.321 60.5284 147.701C60.1412 144.482 60.2945 141.238 60.1838 138.005C60.0944 135.402 60.1524 131.261 58.4568 129.087C54.7709 124.363 49.9773 143.296 49.5214 145.318C48.7547 148.721 48.1225 152.152 47.3588 155.556C47.0201 157.064 46.5856 162.548 44.5644 163.094C40.3758 164.228 41.2952 152.458 41.2289 150.665C41.0963 147.048 41.0063 143.427 41.091 139.807C41.1526 137.193 41.6581 134.358 41.358 131.743C40.6209 125.324 37.0113 132.087 35.9966 134.477C33.4326 140.509 32.2728 146.965 29.9734 153.094C29.5909 154.113 28.6922 157.545 27.2684 157.609C25.6841 157.68 25.6966 154.135 25.606 153.1C25.0803 147.097 23.3048 141.137 23.8406 135.072C24.3817 128.948 26.5284 122.653 29.566 117.326C35.9883 106.065 47.5861 99.5986 58.6948 93.7085C71.408 86.9689 84.8298 81.6442 98.5381 77.3065C115.025 72.0895 131.953 67.8684 148.983 64.8645C157.648 63.3364 166.446 62.2436 175.199 61.3674C178.275 61.0595 181.352 60.8795 184.389 60.294C185.535 60.0726 189.67 59.0206 189.355 61.368ZM198.211 42.142C193.868 42.1763 189.43 40.0705 185.199 39.2002C180.161 38.163 175.24 36.6622 170.211 35.5794C160.363 33.4593 150.509 31.392 140.67 29.2252C136.398 28.2844 132.106 27.4657 127.851 26.4553C123.299 25.3742 118.381 24.1689 113.722 25.3334C106.66 27.0988 103.676 34.8251 101.083 40.8549C99.2515 45.1139 97.8164 49.8614 94.9599 53.5674C93.9428 54.8888 92.4971 56.4648 90.6529 56.0368C87.2269 55.2423 87.771 50.7086 88.2073 48.2025C88.8396 44.5657 89.7353 40.9715 90.4522 37.3513C90.7411 35.8902 92.9802 26.3274 88.9828 27.8079C86.0174 28.9061 84.4485 36.1394 83.326 38.723C82.4919 40.6429 81.608 42.5505 80.672 44.423C79.4228 46.9208 75.8588 55.2666 71.913 54.1903C66.2662 52.6498 71.6827 37.8048 72.6447 34.6759C73.1728 32.9585 78.9125 19.9335 74.068 20.998C72.0047 21.4521 69.9948 25.2842 68.9428 26.8726C67.0773 29.6899 65.2178 32.5275 63.4618 35.4142C61.6556 38.3832 60.7332 41.7625 58.9417 44.6883C57.9992 46.2281 56.0757 48.2801 54.1978 46.8545C51.2703 44.6338 53.0055 36.9091 53.5182 33.988C54.4719 28.5574 56.8412 22.9901 60.092 18.5505C64.9768 11.8796 74.1941 9.72404 81.9448 8.42809C91.9495 6.75503 102.093 7.21267 112.14 8.20253C123.439 9.31613 134.565 10.5085 145.702 12.7854C156.927 15.0801 168.157 17.3564 179.208 20.3911C184.414 21.8209 189.695 23.0884 194.827 24.7668C200.283 26.5506 205.608 28.7705 211.216 30.0558C209.244 34.9785 207.271 39.9011 205.298 44.8244C203.41 42.9566 200.833 42.1206 198.211 42.142ZM294.903 55.707C296.633 54.761 298.544 54.3146 299.175 52.2236C299.733 50.3758 298.779 48.2824 298.323 46.5087C297.048 41.5428 296.712 36.3987 297.841 31.3742C298.92 33.0206 302.957 39.3535 305.413 35.5196C306.894 33.2071 302.925 29.8805 301.767 28.2548C304.309 26.6861 307.94 22.4757 310.869 25.0149C312.762 26.6565 313.564 28.2371 316.115 29.0351C319.212 30.0043 322.128 29.7823 325.29 29.5147C327.504 29.3276 328.038 29.0322 328.903 30.7372C329.582 32.0775 329.933 33.7364 330.329 35.1756C331.111 38.0132 332.921 43.6043 330.778 46.2625C328.9 48.5909 321.615 46.5946 320.603 49.6003C320.051 51.2396 322.685 51.2982 323.691 52.1093C324.937 53.1134 325.968 54.7112 326.645 56.1386C327.147 57.1942 327.909 58.9383 327.056 60.0176C325.876 61.5106 323.69 60.3781 322.74 59.2929C321.477 57.8513 321.068 55.8805 320.015 54.3104C318.082 51.4296 317.966 53.7214 317.44 55.7899C316.893 57.939 315.6 57.791 313.62 58.0668C310.146 58.5517 306.634 59.2355 303.252 60.1667C301.519 60.6439 299.838 61.2519 298.187 61.9624C297.123 62.4194 295.279 63.8041 294.125 63.8172C291.986 63.8414 290.503 60.2638 289.399 58.7713C291.232 57.7477 293.06 56.7146 294.903 55.707ZM409.773 274.77C404.43 268.357 399.804 261.39 394.533 254.921C389.334 248.541 383.32 242.962 377.485 237.183C374.732 234.456 372.094 231.464 369.054 229.047C366.787 227.244 365.042 227.216 362.315 228.015C354.565 230.285 346.674 233.017 339.34 236.404C332.511 239.558 326.291 243.608 318.884 245.367C311.325 247.163 303.465 247.739 295.717 247.294C287.769 246.838 280.274 245.184 272.716 242.754C265.558 240.452 258.095 238.442 251.974 233.88C245.556 229.097 240.598 222.219 236.004 215.749C233.678 212.474 231.369 209.034 229.802 205.322C228.442 202.101 227.553 198.299 225.113 195.674C224.514 196.522 223.77 197.249 223.465 198.246C223.327 198.699 224.143 198.685 224.059 199.045C223.901 199.722 222.999 200.414 222.474 200.783C220.59 202.109 220.579 201.053 221.073 203.533C221.361 204.979 220.816 208.24 218.459 207.175C219.327 208.214 217.948 209.525 217.497 210.381C217.188 210.025 216.802 209.902 216.342 210.009C217.204 211.726 216.694 211.771 215.859 213.135C215.706 213.384 215.166 214.688 215.243 214.578C214.39 215.794 213.403 216.1 212.905 217.615C212.496 218.858 212.601 220.226 212.145 221.468C211.594 220.706 211.043 219.944 210.492 219.183C210.604 219.782 210.829 220.669 211.091 221.212C211.255 221.552 211.961 222.345 211.952 222.531C211.913 223.223 211.049 223.057 210.803 223.654C210.34 224.775 211.009 224.94 210.756 226.034C210.467 227.289 209.692 226.787 209.323 227.857C209.253 228.06 209.798 228.859 209.711 229.297C209.59 229.916 209.029 230.263 208.831 230.813C208.326 232.214 208.51 233.239 207.809 234.583C207.538 235.104 207.143 235.451 206.952 236.043C206.785 236.564 207.145 237.672 206.822 238.139C205.26 240.388 205.48 236.514 205.598 235.553C206.592 227.485 209.781 219.159 212.7 211.619C214.15 207.872 215.562 204.009 217.381 200.42C218.112 198.975 218.957 197.484 220.167 196.379C221.696 194.98 223.867 194.421 225.252 192.859C225.034 193.105 226.754 191.477 226.479 192.012C226.725 191.534 226.295 190.886 226.448 190.423C226.638 189.849 226.997 189.728 227.398 189.225C228.117 188.321 228.971 187.871 227.842 186.72C229.518 186.35 230.32 185.806 230.655 184.01C230.899 182.696 230.406 182.782 231.268 181.907C232.133 181.027 232.571 181.714 233.116 180.19C233.768 178.367 234.201 175.889 234.591 173.981C234.932 172.316 234.105 169.867 235.508 168.691C237.286 167.202 238.877 167.832 238.558 164.838C238.248 161.919 239.155 160.15 240.066 157.388C241.886 151.873 242.589 146.051 244.184 140.47C247.589 128.561 253.603 117.823 260.07 107.34C266.046 97.6538 274.401 89.4009 282.468 81.453C284.677 79.2761 286.862 77.0679 288.845 74.6814C290.554 72.6265 291.334 69.8286 292.976 67.8779C293.974 66.6932 295.831 66.1865 297.224 65.5583C299.547 64.5104 302.315 63.1434 304.938 63.3554C303.896 66.8679 303.556 70.9724 306.631 73.6063C310.361 76.8015 313.742 73.482 317.162 71.6603C323.394 68.3397 332.309 71.388 337.743 66.4108C339.038 65.2256 339.399 63.3317 340.744 62.2246C341.732 61.413 343.137 61.2069 344.249 60.6019C347.626 58.7636 349.265 55.3986 347.95 51.6813C346.749 48.283 344.881 47.1043 349.038 45.3821C352.413 43.9849 353.695 41.8797 352.168 38.1316C350.712 34.5581 348.044 34.1467 345.52 31.8082C343.075 29.5431 345.883 26.907 347.715 25.2067C350.077 23.0132 350.529 21.0364 347.79 18.7554C344.922 16.3671 340.828 16.4506 337.485 17.6317C333.705 18.9667 331.214 21.1862 329.614 24.7828C327.985 28.4443 323.947 27.4224 320.676 26.402C317.549 25.4263 316.735 23.3211 314.681 21.0542C312.397 18.5328 307.742 20.6889 305.048 21.841C298.413 24.6768 291.819 29.1523 291.555 37.0801C291.398 41.8075 293.398 45.8255 294.437 50.2628C295.388 54.3205 288.869 54.0008 287.74 57.9259C275.698 51.551 262.287 49.6003 248.825 49.1663C234.518 48.7046 220.004 48.3345 205.819 50.5913C209.112 44.8546 210.851 38.5638 213.715 32.6702C214.54 30.9734 214.895 31.1185 216.715 31.6311C220.211 32.6157 223.681 33.7174 227.17 34.7316C239.915 38.4365 252.409 42.9003 264.733 47.7893C265.931 48.2647 268.605 49.5843 269.655 48.1492C270.866 46.4945 268.064 44.4544 266.929 43.622C261.967 39.9817 255.818 37.7722 250.26 35.2182C238.11 29.636 224.656 26.9863 211.978 22.8403C184.61 13.8883 156.295 7.08953 127.853 2.59902C120.913 1.50318 113.898 1.34274 106.927 0.529298C100.752 -0.191196 94.5656 -0.174619 88.3914 0.569556C76.9878 1.94483 63.7673 4.91206 57.3267 15.3506C51.5124 24.7757 47.6311 35.3722 49.1147 46.552C49.5605 49.9099 50.9825 53.8866 55.1261 53.021C58.0004 52.4207 59.5266 49.9786 60.8611 47.5951C62.8775 43.9944 64.8691 40.3937 67.0542 36.8895C67.8647 42.1437 64.9194 47.3103 65.3824 52.6628C65.6973 56.2949 67.7043 62.0334 72.4198 61.0051C78.8829 59.596 81.5429 49.499 84.6504 44.6551C84.8079 48.386 83.5001 52.0631 83.9003 55.8023C84.2952 59.496 87.1813 62.983 91.2349 62.4768C95.0582 61.9997 97.5429 57.9034 99.1668 54.8196C101.427 50.528 103.05 45.9268 105.257 41.6068C107.326 37.5573 109.776 32.7365 114.715 31.9757C119.122 31.2961 124.173 32.8691 128.527 33.5179C140.604 35.3177 152.437 38.382 164.382 40.8579C177.189 43.5119 190.299 45.124 202.711 49.4067C198.347 55.3471 186.926 54.0636 180.424 54.7012C170.599 55.665 160.647 56.3902 150.878 57.8123C141.229 59.2165 131.782 61.7096 122.208 63.5194C112.685 65.3197 103.178 67.123 93.9635 70.1933C76.8546 75.8939 59.4603 83.1083 44.3862 93.0549C37.3725 97.6834 31.142 102.973 26.8096 110.279C22.4493 117.63 20.3541 125.942 19.5549 134.398C19.0576 139.664 19.9024 144.221 20.9225 149.345C21.6613 153.055 21.9005 159.268 24.8754 161.984C30.5535 167.17 35.2678 146.136 36.3163 143.596C37.0711 147.759 35.8368 171.213 44.9474 169.305C49.0135 168.455 49.9358 162.874 50.6101 159.512C51.8404 153.384 52.9421 147.133 55.0462 141.231C56.3966 149.183 56.9596 157.468 59.8688 165.063C61.8012 170.107 67.3147 179.057 71.1587 170.422C74.0419 163.946 73.0526 156.513 73.3984 149.637C73.7814 142.018 75.9689 134.668 76.7433 127.124C77.0435 124.201 76.7717 120.907 79.7088 119.312C82.2302 117.943 85.9173 117.497 88.6702 116.733C96.8242 114.469 105.031 112.388 113.147 109.986C121.266 107.583 129.272 104.775 137.283 102.034C144.945 99.4133 152.767 97.9231 160.521 95.6788C164.93 94.4024 169.286 93.0673 173.756 92.0017C175.836 91.5062 177.942 91.1202 180.018 90.6069C181.557 90.2268 183.584 88.7923 185.166 88.8178C186.794 88.8444 187.406 90.2227 189.272 90.331C191.282 90.447 193.326 90.0036 195.325 89.8503C200.194 89.4767 205.37 88.8728 210.228 89.5478C207.308 93.0111 203.365 95.4053 199.909 98.2742C195.923 101.583 192.065 105.156 188.66 109.063C181.809 116.925 175.334 125.236 169.319 133.753C163.385 142.156 158.607 151.35 154.454 160.745C152.384 165.426 150.375 170.209 148.945 175.13C148.358 177.151 147.878 179.18 146.818 181.018C145.845 182.704 144.475 184.157 145.624 186.193C146.416 185.698 147.127 185.082 147.843 184.487C147.015 190.313 145.231 195.949 144.313 201.758C143.408 207.48 143.445 213.366 143.504 219.145C143.627 231.248 144.527 243.078 146.982 254.949C149.465 266.954 152.654 278.867 156.677 290.448C160.549 301.598 164.434 313.291 169.839 323.8C175.611 335.025 182.478 346.826 190.833 356.328C185.375 358.563 178.429 358.145 172.65 359.046C166.609 359.987 161.383 361.764 156.235 365.106C151.026 368.489 148.199 372.844 147.479 379.012C146.968 383.402 145.448 389.479 151.207 390.633C155.349 391.462 159.98 390.1 164.131 389.763C171.391 389.175 178.663 388.807 185.939 388.49C193.197 388.173 200.456 387.894 207.716 387.669C211.131 387.563 214.548 387.51 217.961 387.387C219.491 387.333 220.419 387.309 221.791 387.751C222.875 388.101 222.796 388.828 224.004 387.929C225.951 386.481 225.551 381.913 225.496 379.905C225.413 376.806 225.12 373.671 224.515 370.631C224.156 368.824 219.801 357.177 223.188 356.687C219.254 352.364 217.682 346.191 215.915 340.772C213.701 333.984 211.758 327.215 210.232 320.233C206.973 305.32 205.532 290.243 205.532 274.984C220.64 284.296 236.624 289.34 254.418 289.902C272.109 290.461 291.544 289.009 308.343 283.123C316.122 280.398 323.09 276.818 329.76 271.996C332.15 270.268 334.712 266.354 337.849 266.421C341.594 266.501 345.787 267.918 349.506 268.525C356.617 269.684 365.899 270.338 371.92 274.737C375.19 277.126 377.534 280.47 380.453 283.223C382.673 285.318 385.609 286.455 387.812 288.55C390.19 290.81 389.245 293.762 393.188 293.945C396.557 294.101 400.252 292.745 403.159 291.154C408.957 287.979 415.132 281.202 409.773 274.77Z" fill="#171717"/>
<path fill-rule="evenodd" clip-rule="evenodd" d="M354.041 123.751C362.527 129.779 372.26 133.896 381.127 139.325C383.346 140.683 390.261 143.504 390.194 146.025C390.155 147.498 388.077 149.346 387.167 150.367C385.609 152.116 384.142 153.884 382.704 155.735C376.119 164.21 369.918 172.765 362.782 180.814C361.707 182.024 358.471 187.806 357.426 184.934C356.952 183.632 357.342 182.169 356.108 180.956C355.473 180.331 353.018 179.986 353.733 178.645C354.209 178.859 354.687 179.074 355.164 179.288C354.793 178.216 354.82 177.042 354.265 176.03C353.92 175.4 353.246 175.102 353.012 174.394C352.688 173.415 353.237 172.277 353.145 171.267C353.054 170.261 352.533 169.309 352.221 168.36C350.375 162.731 349.712 157.056 348.767 151.249C347.832 145.502 346.375 139.935 345.803 134.124C345.198 127.987 344.458 121.862 343.469 115.773C345.233 116.021 346.589 117.937 347.836 119.02C349.797 120.723 351.926 122.249 354.041 123.751ZM347.389 183.171C346.984 182.853 346.668 182.462 346.439 182C350.598 179.939 348.088 183.454 347.389 183.171ZM344.86 178.777C343.047 179.277 341.745 179.378 340.347 178.632C340.215 178.562 340.367 178.016 340.128 177.904C339.919 177.807 339.6 177.928 339.421 177.836C338.813 177.527 337.747 178.205 337.643 177.02C339.957 176.312 342.232 175.005 344.675 174.785C348.07 174.48 347.913 177.935 344.86 178.777ZM336.918 171.945C334.444 172.524 332.406 173.875 329.778 173.522C327.311 173.191 325.168 171.912 323.222 170.438C328.09 169.06 333.195 168.811 338.059 167.478C339.643 167.044 341.724 165.899 343.43 166.361C345.327 166.873 345.446 168.649 346.015 170.266C342.98 170.811 339.922 171.243 336.918 171.945ZM321.447 165.087C319.071 165.655 316.642 166.896 314.655 164.754C314.334 164.408 314.054 164.753 314.091 163.688C314.131 162.565 315.151 161.842 316.027 161.446C318.089 160.517 320.978 161.118 323.168 160.981C326.66 160.764 330.215 160.038 333.669 159.479C336.061 159.092 338.531 158.234 340.976 158.403C342.863 158.534 345.14 160.143 342.39 161.316C339.885 162.385 336.129 162.221 333.415 162.684C329.404 163.368 325.406 164.141 321.447 165.087ZM319.126 153.907C319.28 154.064 319.434 154.221 319.588 154.378C319.562 154.372 320.499 153.614 320.747 153.592C321.952 153.487 323.164 153.57 324.37 153.502C327.15 153.345 329.952 152.861 332.683 152.327C334.907 151.893 337.173 151.144 339.462 151.331C341.444 151.494 341.653 151.9 341.782 153.813C336.723 153.813 331.511 153.706 326.539 154.777C323.302 155.474 319.734 157.549 318.112 153.808C318.451 153.841 318.788 153.874 319.126 153.907ZM322.289 145.809C323.544 146.765 326.964 145.176 328.468 145.017C330.1 144.844 331.637 144.665 333.219 144.258C334.622 143.897 339.264 142.093 340.341 143.818C341.991 146.46 335.31 146.945 334.25 147.076C329.809 147.625 325.2 148.111 320.877 149.277C321.348 148.121 321.819 146.965 322.289 145.809ZM328.382 136.835C328.707 138.056 338.752 133.555 338.935 136.826C339.076 139.336 328.996 140.586 327.184 140.366C327.609 139.21 328.738 138.175 328.382 136.835ZM331.755 129.158C331.969 126.694 332.299 126.709 334.275 126.476C335.781 126.299 337.852 125.416 337.46 128.102C337.125 130.401 331.54 131.644 331.755 129.158ZM335.346 120.682C335.821 119.359 336.891 121.139 336.913 121.812C336.973 123.602 335.616 123.214 334.31 123.214C334.674 122.378 335.02 121.533 335.346 120.682ZM351.879 110.754C351.613 110.433 350.117 110.311 349.692 110.155C348.645 109.771 348.794 108.954 347.454 109.76C347.388 109.693 347.515 109.086 347.442 109.058C347.405 109.044 346.467 108.69 346.162 108.495C345.426 108.024 344.763 107.562 344.087 106.971C343.368 106.343 342.648 105.431 341.827 104.931C341.481 104.72 341.198 104.421 340.781 104.357C339.698 104.19 340.008 104.944 339.061 105.094C338.478 105.186 338.054 104.505 337.291 104.799C336.632 105.052 336.25 105.976 335.956 106.526C334.889 108.528 334.065 110.682 333.02 112.705C327.677 123.05 321.603 133.002 316.427 143.443C313.934 148.473 311.333 153.537 309.578 158.883C308.313 162.738 305.456 168.37 307.914 172.222C309.701 175.023 313.28 176.233 316.135 177.586C320.431 179.623 324.392 182.284 328.736 184.259C333.915 186.613 338.945 189.076 343.994 191.705C346.147 192.826 348.09 194.442 350.236 195.504C351.549 196.153 353.576 195.045 354.003 196.534C355.649 194.541 358.312 195.869 360.215 194.466C361.334 193.641 362.153 192.015 363.086 190.999C364.487 189.475 366.007 188.061 367.436 186.564C373.109 180.617 378.346 174.423 383.507 168.036C388.436 161.936 394.195 156.174 398.358 149.497C400.012 146.846 400.312 144.067 399.22 141.139C398.424 139.003 396.504 135.777 393.763 137.192C394.802 135.465 390.792 133.622 389.575 133.284C389.557 133.279 389.317 134.606 388.978 134.572C389.099 134.584 387.958 131.634 387.457 131.256C385.97 130.13 384.161 128.817 382.538 127.891C381.05 127.041 379.479 126.62 378.038 125.67C376.29 124.517 374.686 123.151 372.932 122.007C371.238 120.902 369.35 119.596 367.478 118.836C365.855 118.177 364.397 118.048 362.936 116.969C361.13 115.632 359.554 114.726 357.47 113.805C355.667 113.009 353.169 112.313 351.879 110.754Z" fill="#171717"/>
<path fill-rule="evenodd" clip-rule="evenodd" d="M105.801 270.745C106.132 269.966 106.463 269.188 106.794 268.41C107.204 269.767 107.319 270.442 105.801 270.745ZM106.242 274.341C105.524 274.469 105.807 272.216 105.807 271.824C107.047 272.526 106.02 273.368 106.242 274.341ZM105.122 267.842C105.734 267.48 106.347 267.119 106.959 266.757C106.106 268.337 106.441 267.35 106.792 268.405C106.149 268.59 105.524 268.374 105.122 267.842ZM101.494 280.187C99.1996 288.513 91.9112 295.079 84.2131 298.48C79.7895 300.434 75.4405 300.923 70.6635 300.705C68.8211 300.621 66.6531 300.022 64.88 300.133C63.5148 300.219 63.5763 300.278 62.4456 301.434C61.9453 300.513 62.3076 299.866 61.3041 299.33C60.052 298.661 59.5322 299.44 58.9112 300.367C58.0983 299.524 57.7656 299.084 56.7124 298.584C56.7455 298.6 55.7042 298.56 55.7468 298.573C55.5585 298.515 54.426 297.787 54.0714 297.655C52.6162 297.109 50.9336 296.884 49.5909 296.101C48.4164 295.417 47.449 293.497 46.1051 294.973C46.1039 292.508 42.7832 291.485 41.2268 290.194C38.7948 288.176 36.8612 285.189 35.6487 282.299C34.3558 279.218 33.9242 276.264 33.3191 273.088C32.8964 270.869 30.1281 267.661 31.7905 265.422C32.1866 266.361 32.0007 267.323 32.6584 268.174C33.2504 267.033 33.5761 265.757 33.8437 264.508C33.9751 263.897 34.7364 262.102 34.65 261.569C34.4742 260.478 33.1244 260.419 33.8727 259.082C35.425 260.771 36.6777 257.805 35.5049 256.623C34.9259 257.276 34.7133 258.018 34.4463 258.827C32.9201 255.746 37.1442 256.738 36.22 253.957C37.7617 253.66 38.6479 253.272 39.234 251.748C39.8859 250.053 39.4063 249.684 40.8864 248.564C41.3955 248.179 42.8353 247.626 43.0988 246.992C43.6085 245.768 42.3114 245.405 43.4475 244.259C43.8311 244.932 45.3266 246.264 46.1453 244.996C46.3093 244.744 45.6208 244.564 46.1217 243.982C46.8635 243.12 47.6935 242.274 48.948 242.455C47.9546 239.972 54.3023 239.775 55.928 239.189C57.5572 238.602 58.9396 238.217 60.6671 238.081C62.3929 237.945 62.4787 237.439 63.9398 236.4C64.0636 237.887 64.4212 237.56 65.4779 237.822C65.7319 237.386 65.9924 237.337 66.2588 237.675C66.524 237.928 66.8484 238.046 67.2309 238.032C67.8111 238.062 68.4694 237.986 69.0774 237.999C70.5048 238.026 71.9772 237.907 73.3773 237.938C73.7384 237.877 74.0759 237.752 74.392 237.561C74.5241 237.809 74.6567 238.058 74.7881 238.308C75.5299 238.401 75.5873 239.33 76.4996 238.314C76.7696 239.606 77.5452 238.933 78.3645 239.284C79.1117 239.604 79.2306 240.116 79.9204 240.473C80.3738 240.84 80.8599 240.889 81.3797 240.62C81.8741 240.986 82.3761 241.342 82.8852 241.687C83.8236 242.217 84.9295 242.541 85.9182 242.96C86.5759 243.231 87.2295 243.513 87.8778 243.806C87.8973 244.588 88.2484 244.865 88.9304 244.635C89.5467 245.15 89.7202 245.13 90.3181 246.008C91.6727 247.998 92.8745 249.544 94.5854 251.322C102.022 259.054 104.306 269.985 101.494 280.187ZM103.777 247.309C100.419 242.814 95.667 237.665 91.3968 234.826C89.2323 233.386 86.194 230.802 83.5471 230.041C82.9196 229.86 82.2701 229.848 81.6532 229.659C81.1766 229.513 80.9173 229.024 80.3739 228.935C79.9938 228.874 79.9517 229.724 79.548 229.646C78.7037 229.482 78.1686 228.644 77.5724 228.12C76.2918 230.327 75.5968 226.616 73.7165 229.111C71.4787 225.602 66.2215 226.369 62.648 226.546C61.5883 226.598 61.0904 226.975 60.1509 227.255C59.2765 227.514 59.19 227.448 58.2351 227.44C55.8569 227.422 53.7458 227.721 51.5476 228.765C47.8545 230.52 44.4646 233.253 40.9568 235.367C37.0364 237.73 33.5027 240.737 30.5035 244.193C19.6611 256.688 16.762 274.927 25.4073 289.412C39.1393 312.419 74.5608 314.878 94.6322 299.267C110.139 287.206 116.04 263.729 103.777 247.309Z" fill="#171717"/>
<path fill-rule="evenodd" clip-rule="evenodd" d="M273.74 182.567C273.355 183.487 269.756 183.177 269.677 182.093C269.56 180.473 274.41 180.969 273.74 182.567ZM277.563 181.966C279.602 182.132 282.953 183.517 284.919 182.68C287.919 181.402 284.768 179.441 283.159 178.855C281.522 178.259 279.083 178.576 278.241 176.864C277.607 175.576 279.173 171.981 277.231 172.559C275.193 173.165 275.786 178.315 272.588 176.579C271.063 175.751 271.685 170.706 269.131 173.283C268.432 173.988 268.371 175.283 267.445 175.809C266.5 176.346 265.315 175.786 264.317 175.833C261.676 175.957 260.835 178.427 263.511 179.407C264.501 179.77 268.234 180.213 265.973 181.831C264.548 182.851 261.382 180.711 260.159 182.486C258.477 184.924 262.982 184.979 264.192 185.709C266.243 186.944 264.549 189.828 264.712 191.883C264.963 195.022 266.786 194.366 267.449 191.709C268.011 189.456 267.314 186.211 270.712 187.107C276.245 188.566 267.635 195.59 271.688 197.387C274.272 198.534 274.638 192.338 274.839 191.271C275.582 187.334 277.794 188.253 281.145 188.373C285.059 188.514 286.004 185.619 281.859 184.789C280.536 184.525 278.717 184.859 277.568 184.017C276.889 183.519 275.954 181.836 277.563 181.966Z" fill="#171717"/>
<path fill-rule="evenodd" clip-rule="evenodd" d="M133.034 310.609C129.866 309.475 124.567 309.72 123.783 313.812C123.455 315.524 124.094 317.336 125.276 318.58C126.648 320.023 128.833 320.157 128.716 317.644C128.635 315.906 126.98 314.395 129.89 314.045C131.7 313.827 134.378 315.181 134.468 317.181C134.671 321.688 126.868 322.042 123.993 321.262C118.286 319.716 119.836 313.738 123.756 311.01C124.768 310.305 127.673 309.219 127.806 307.755C127.982 305.813 125.581 306.21 124.404 306.466C115.753 308.349 113.867 322.842 122.907 325.574C127.012 326.814 132.793 325.534 135.267 321.816C137.586 318.33 137.618 312.25 133.034 310.609Z" fill="#171717"/>
<path fill-rule="evenodd" clip-rule="evenodd" d="M18.3274 208.014C15.623 209.316 12.9186 210.617 10.2149 211.919C9.3209 210.006 7.81065 204.781 5.5432 204.113C1.87264 203.033 4.20995 208.729 4.84342 210.032C5.36381 211.102 6.57095 212.759 6.2779 214.035C5.88479 215.753 3.46104 216.361 2.19233 217.247C-0.947175 219.442 -0.922315 224.049 3.62444 222.097C6.19738 220.991 9.38306 217.927 11.3551 221.406C12.2656 223.012 14.423 231.982 16.6762 226.116C18.0704 222.484 11.3598 218.71 14.6681 215.638C15.7331 214.649 16.9799 214.566 18.0438 213.997C20.6132 212.624 19.1645 210.088 18.3274 208.014Z" fill="#171717"/>
<path fill-rule="evenodd" clip-rule="evenodd" d="M414.799 78.0405C413.187 77.4509 411.193 76.2994 409.4 76.6919C407.496 77.1087 406.729 79.0162 405.344 80.1629C401.58 83.2811 399.387 78.6338 397.318 76.0869C395.365 73.6821 392.981 73.0983 390.225 74.576C389.127 75.1651 384.5 77.8641 385.307 79.5934C385.887 80.8379 388.173 79.7207 388.953 79.449C390.645 78.8599 392.217 78.3442 393.948 79.2033C397.195 80.8136 398.038 85.2295 401.966 85.918C406.029 86.6302 406.162 82.7643 409.061 81.3091C411.005 80.334 412.359 82.0604 414.234 81.7164C416.02 81.389 416.847 78.7889 414.799 78.0405Z" fill="#171717"/>
<path fill-rule="evenodd" clip-rule="evenodd" d="M382.001 93.6209C383.438 93.9329 384.376 91.1462 385.275 90.4394C386.767 89.2678 389.353 89.0315 390.873 90.2108C393.839 92.5126 392.817 97.4821 397.041 98.7774C400.816 99.9354 402.595 94.963 405.773 93.7251C407.62 93.0052 409.649 92.534 408.927 89.951C408.43 88.1648 406.963 87.706 405.368 88.3921C402.627 89.5703 401.696 94.3698 398.446 94.4557C395.084 94.5445 394.719 89.6976 393.276 87.5864C391.076 84.3687 386.552 83.5914 383.981 86.6682C383.205 87.5965 379.265 93.0283 382.001 93.6209Z" fill="#171717"/>
<path fill-rule="evenodd" clip-rule="evenodd" d="M315.542 38.6752C317.541 40.0427 321.524 39.9954 323.365 38.2992C325.239 36.5735 322.737 36.3082 321.211 36.3609C320.037 36.4018 317.84 36.9837 318.509 34.956C319.102 33.1569 322.366 34.0728 322.639 32.0978C320.182 31.6573 317.477 31.8159 315.66 33.7465C314.346 35.1419 313.671 37.3946 315.542 38.6752Z" fill="#171717"/>
</svg>
