<svg width="152" height="115" viewBox="0 0 152 115" fill="none" xmlns="http://www.w3.org/2000/svg">
<path fill-rule="evenodd" clip-rule="evenodd" d="M0.00292969 0.523193H152V114.429H0.00292969V0.523193Z" fill="white"/>
<path fill-rule="evenodd" clip-rule="evenodd" d="M0.00292969 70.1321V79.6242H152V70.1321H0.00292969Z" fill="#E31D1C"/>
<path fill-rule="evenodd" clip-rule="evenodd" d="M0.00292969 87.5336V97.0257H152V87.5336H0.00292969Z" fill="#E31D1C"/>
<path fill-rule="evenodd" clip-rule="evenodd" d="M0.00292969 35.3271V44.8193H152V35.3271H0.00292969Z" fill="#E31D1C"/>
<path fill-rule="evenodd" clip-rule="evenodd" d="M0.00292969 104.936V114.429H152V104.936H0.00292969Z" fill="#E31D1C"/>
<path fill-rule="evenodd" clip-rule="evenodd" d="M0.00292969 52.7299V62.222H152V52.7299H0.00292969Z" fill="#E31D1C"/>
<path fill-rule="evenodd" clip-rule="evenodd" d="M0.00292969 0.523193V10.0153H152V0.523193H0.00292969Z" fill="#E31D1C"/>
<path fill-rule="evenodd" clip-rule="evenodd" d="M0.00292969 17.9255V27.4177H152V17.9255H0.00292969Z" fill="#E31D1C"/>
<path d="M0 0.523193H94.9984V62.222H0V0.523193Z" fill="#2E42A5"/>
<path fill-rule="evenodd" clip-rule="evenodd" d="M8.18116 14.4706L4.73327 16.8858L5.8973 12.5877L2.83496 9.86387H6.83479L8.17631 6.3562L9.74935 9.86387H13.1591L10.48 12.5877L11.5172 16.8858L8.18116 14.4706ZM27.1808 14.4706L23.733 16.8858L24.897 12.5877L21.8347 9.86387H25.8345L27.176 6.3562L28.749 9.86387H32.1588L29.4797 12.5877L30.5169 16.8858L27.1808 14.4706ZM42.7327 16.8858L46.1805 14.4706L49.5165 16.8858L48.4792 12.5877L51.1586 9.86387H47.7486L46.1757 6.3562L44.8342 9.86387H40.8344L43.8967 12.5877L42.7327 16.8858ZM65.1804 14.4706L61.7324 16.8858L62.8966 12.5877L59.8339 9.86387H63.8338L65.1756 6.3562L66.7483 9.86387H70.1583L67.4789 12.5877L68.5162 16.8858L65.1804 14.4706ZM4.73327 35.87L8.18116 33.4548L11.5172 35.87L10.48 31.5719L13.1591 28.8481H9.74935L8.17631 25.3404L6.83479 28.8481H2.83496L5.8973 31.5719L4.73327 35.87ZM27.1808 33.4548L23.733 35.87L24.897 31.5719L21.8347 28.8481H25.8345L27.176 25.3404L28.749 28.8481H32.1588L29.4797 31.5719L30.5169 35.87L27.1808 33.4548ZM42.7327 35.87L46.1805 33.4548L49.5165 35.87L48.4792 31.5719L51.1586 28.8481H47.7486L46.1757 25.3404L44.8342 28.8481H40.8344L43.8967 31.5719L42.7327 35.87ZM65.1804 33.4548L61.7324 35.87L62.8966 31.5719L59.8339 28.8481H63.8338L65.1756 25.3404L66.7483 28.8481H70.1583L67.4789 31.5719L68.5162 35.87L65.1804 33.4548ZM4.73327 54.8543L8.18116 52.439L11.5172 54.8543L10.48 50.5563L13.1591 47.8324H9.74935L8.17631 44.3247L6.83479 47.8324H2.83496L5.8973 50.5563L4.73327 54.8543ZM27.1808 52.439L23.733 54.8543L24.897 50.5563L21.8347 47.8324H25.8345L27.176 44.3247L28.749 47.8324H32.1588L29.4797 50.5563L30.5169 54.8543L27.1808 52.439ZM42.7327 54.8543L46.1805 52.439L49.5165 54.8543L48.4792 50.5563L51.1586 47.8324H47.7486L46.1757 44.3247L44.8342 47.8324H40.8344L43.8967 50.5563L42.7327 54.8543ZM65.1804 52.439L61.7324 54.8543L62.8966 50.5563L59.8339 47.8324H63.8338L65.1756 44.3247L66.7483 47.8324H70.1583L67.4789 50.5563L68.5162 54.8543L65.1804 52.439ZM80.7321 16.8858L84.1801 14.4706L87.5159 16.8858L86.4785 12.5877L89.158 9.86387H85.748L84.1753 6.3562L82.8335 9.86387H78.8335L81.8963 12.5877L80.7321 16.8858ZM84.1801 33.4548L80.7321 35.87L81.8963 31.5719L78.8335 28.8481H82.8335L84.1753 25.3404L85.748 28.8481H89.158L86.4785 31.5719L87.5159 35.87L84.1801 33.4548ZM80.7321 54.8543L84.1801 52.439L87.5159 54.8543L86.4785 50.5563L89.158 47.8324H85.748L84.1753 44.3247L82.8335 47.8324H78.8335L81.8963 50.5563L80.7321 54.8543ZM17.681 23.9627L14.2331 26.3779L15.3971 22.0798L12.3348 19.356H16.3346L17.6762 15.8483L19.2492 19.356H22.659L19.9798 22.0798L21.017 26.3779L17.681 23.9627ZM33.2328 26.3779L36.6807 23.9627L40.0167 26.3779L38.9795 22.0798L41.6587 19.356H38.2489L36.6758 15.8483L35.3343 19.356H31.3345L34.3968 22.0798L33.2328 26.3779ZM55.6805 23.9627L52.2326 26.3779L53.3968 22.0798L50.334 19.356H54.3339L55.6758 15.8483L57.2485 19.356H60.6584L57.979 22.0798L59.0164 26.3779L55.6805 23.9627ZM14.2331 45.3621L17.681 42.947L21.017 45.3621L19.9798 41.0641L22.659 38.3402H19.2492L17.6762 34.8326L16.3346 38.3402H12.3348L15.3971 41.0641L14.2331 45.3621ZM36.6807 42.947L33.2328 45.3621L34.3968 41.0641L31.3345 38.3402H35.3343L36.6758 34.8326L38.2489 38.3402H41.6587L38.9795 41.0641L40.0167 45.3621L36.6807 42.947ZM52.2326 45.3621L55.6805 42.947L59.0164 45.3621L57.979 41.0641L60.6584 38.3402H57.2485L55.6758 34.8326L54.3339 38.3402H50.334L53.3968 41.0641L52.2326 45.3621ZM74.6802 23.9627L71.2322 26.3779L72.3965 22.0798L69.3337 19.356H73.3336L74.6755 15.8483L76.2482 19.356H79.6581L76.9787 22.0798L78.0161 26.3779L74.6802 23.9627ZM71.2322 45.3621L74.6802 42.947L78.0161 45.3621L76.9787 41.0641L79.6581 38.3402H76.2482L74.6755 34.8326L73.3336 38.3402H69.3337L72.3965 41.0641L71.2322 45.3621Z" fill="white"/>
</svg>
